<?xml version="1.0" encoding="UTF-8" standalone="no"?>
<!DOCTYPE svg PUBLIC "-//W3C//DTD SVG 1.1//EN" "http://www.w3.org/Graphics/SVG/1.1/DTD/svg11.dtd">
<!-- Created with Vectornator (http://vectornator.io/) -->
<svg height="100%" stroke-miterlimit="10" style="fill-rule:nonzero;clip-rule:evenodd;stroke-linecap:round;stroke-linejoin:round;" version="1.1" viewBox="0 0 1024 1024" width="100%" xml:space="preserve" xmlns="http://www.w3.org/2000/svg" xmlns:vectornator="http://vectornator.io" xmlns:xlink="http://www.w3.org/1999/xlink">
<defs/>
<g id="Layer-1" vectornator:layerName="Layer 1">
<path d="M512 340C422.276 340 349.562 412.729 349.562 502.438C349.562 509.875 349.562 524.75 349.562 532.188C349.562 621.912 422.292 694.625 512 694.625C601.724 694.625 674.437 621.896 674.438 532.188C674.438 524.75 674.438 509.875 674.438 502.438C674.437 412.713 601.708 340 512 340Z" fill="#000000" fill-opacity="0.08" fill-rule="nonzero" opacity="1" stroke="none" vectornator:layerName="Curve 2"/>
<g opacity="1" vectornator:layerName="Group 13">
<g opacity="1" vectornator:layerName="Group 11">
<path d="M657.438 526.872C657.438 607.195 592.323 672.31 512 672.31C431.677 672.31 366.562 607.195 366.562 526.872L366.562 497.121L657.438 497.121L657.438 526.872Z" fill="#ffb000" fill-rule="nonzero" opacity="1" stroke="none" vectornator:layerName="Oval 2"/>
<path d="M366.562 490.125C362.697 490.125 359.562 493.259 359.562 497.125L359.562 526.875C359.562 611.064 427.811 679.312 512 679.312C596.189 679.312 664.438 611.064 664.438 526.875C664.438 525.945 664.438 498.055 664.438 497.125C664.438 493.259 661.304 490.125 657.438 490.125L366.562 490.125ZM373.562 504.125L650.438 504.125C650.438 512.256 650.438 526.164 650.438 526.875C650.438 603.332 588.457 665.313 512 665.312C435.543 665.312 373.562 603.332 373.562 526.875L373.562 504.125Z" fill="#000000" fill-rule="nonzero" opacity="1" stroke="none" vectornator:layerName="Curve 1"/>
</g>
<g opacity="1" vectornator:layerName="Group 12">
<path d="M366.562 497.121C366.562 416.798 431.677 351.683 512 351.683C592.323 351.683 657.438 416.798 657.438 497.121C657.438 577.444 592.323 642.559 512 642.559C431.677 642.559 366.562 577.444 366.562 497.121Z" fill="#ffc200" fill-rule="nonzero" opacity="1" stroke="none" vectornator:layerName="Oval 3"/>
<path d="M634.658 418.185C634.658 418.185 645.433 485.689 617.318 546.001C589.202 606.312 521.455 643.51 521.455 643.51C521.455 643.51 586.346 625.626 608.01 605.986C629.674 586.346 647.961 560.941 654.452 538.151C660.943 515.362 661.714 476.44 653.287 458.109C644.86 439.779 634.658 418.185 634.658 418.185Z" fill="#ffb000" fill-rule="nonzero" opacity="1" stroke="none" vectornator:layerName="Curve 1"/>
<path d="M512 344.688C427.811 344.688 359.562 412.936 359.562 497.125C359.562 581.314 427.811 649.562 512 649.562C596.189 649.562 664.438 581.314 664.438 497.125C664.438 412.936 596.189 344.688 512 344.688ZM512 358.688C588.457 358.688 650.438 420.668 650.438 497.125C650.438 573.582 588.457 635.562 512 635.562C435.543 635.562 373.562 573.582 373.562 497.125C373.562 420.668 435.543 358.688 512 358.688Z" fill="#000000" fill-rule="nonzero" opacity="1" stroke="none" vectornator:layerName="Curve 2"/>
<path d="M431.219 406.562C427.38 406.607 423.551 408.131 420.656 411.094C399.652 432.593 387.687 461.396 387.688 492.062C387.688 500.347 394.403 507.062 402.688 507.062C410.972 507.062 417.688 500.347 417.688 492.062C417.688 469.312 426.543 447.981 442.125 432.031C447.914 426.106 447.801 416.633 441.875 410.844C438.912 407.949 435.057 406.518 431.219 406.562Z" fill="#ffe287" fill-rule="nonzero" opacity="1" stroke="none" vectornator:layerName="Curve 3"/>
</g>
<path d="M502 387.938L502 408.562L501.344 408.562C473.945 408.562 451.719 430.758 451.719 458.156C451.719 483.248 473.78 503.191 502 507.062L502 565.969C484.371 562.601 471.719 550.713 471.719 537.375L451.719 537.375C451.719 562.466 473.78 582.41 502 586.281L502 606.312L522 606.312L522 587L522.656 587C550.055 587 572.281 564.774 572.281 537.375C572.281 512.284 550.22 492.366 522 488.5L522 429.594C539.629 432.954 552.281 444.818 552.281 458.156L572.281 458.156C572.281 433.065 550.22 413.148 522 409.281L522 387.938L502 387.938ZM501.344 428.562L502 428.562L502 486.75C484.371 483.383 471.719 471.494 471.719 458.156C471.719 441.803 484.991 428.563 501.344 428.562ZM522 508.812C539.629 512.173 552.281 524.037 552.281 537.375C552.281 553.728 539.009 567 522.656 567L522 567L522 508.812Z" fill="#000000" fill-rule="nonzero" opacity="1" stroke="none" vectornator:layerName="Curve 1"/>
</g>
<path d="M150.907 290.907C150.907 213.587 213.587 150.907 290.907 150.907L733.093 150.907C810.413 150.907 873.093 213.587 873.093 290.907L873.093 733.093C873.093 810.413 810.413 873.093 733.093 873.093L290.907 873.093C213.587 873.093 150.907 810.413 150.907 733.093L150.907 290.907Z" fill="#45ff00" fill-rule="nonzero" opacity="1" stroke="none" vectornator:layerName="Rectangle 1"/>
<path d="M379.305 201.094C379.305 201.094 401.453 201.094 290.906 201.094C241.347 201.094 201.094 241.301 201.094 290.906L201.094 339.819" fill="none" opacity="1" stroke="#92ff80" stroke-linecap="round" stroke-linejoin="round" stroke-width="35" vectornator:layerName="Curve 11"/>
<path d="M871.285 403.19C871.285 403.19 857.745 673.515 784.969 776.04C712.192 878.565 432.851 870.773 432.851 870.773L755.059 872.29L837.927 829.257L872.441 764.557L871.285 403.19Z" fill="#3ee600" fill-rule="nonzero" opacity="1" stroke="none" vectornator:layerName="Curve 12"/>
<path d="M150.907 290.907C150.907 213.587 213.587 150.907 290.907 150.907L733.093 150.907C810.413 150.907 873.093 213.587 873.093 290.907L873.093 733.093C873.093 810.413 810.413 873.093 733.093 873.093L290.907 873.093C213.587 873.093 150.907 810.413 150.907 733.093L150.907 290.907Z" fill="none" opacity="1" stroke="#000000" stroke-linecap="butt" stroke-linejoin="round" stroke-width="14" vectornator:layerName="Rectangle 2"/>
<path d="M549.269 417.49C540.138 406.569 527.069 401.109 510.06 401.109C486.785 401.109 470.941 409.792 462.526 427.158C457.692 437.184 454.827 453.119 453.932 474.961L379.542 474.961C380.796 441.839 386.793 415.073 397.536 394.663C417.946 355.812 454.201 336.387 506.3 336.387C547.479 336.387 580.242 347.8 604.591 370.628C628.94 393.455 641.115 423.667 641.115 461.265C641.115 490.09 632.521 515.692 615.333 538.071C604.054 552.931 585.524 569.492 559.743 587.754L529.127 609.507C509.971 623.114 496.856 632.961 489.784 639.048C482.712 645.135 476.759 652.207 471.925 660.264L641.92 660.264L641.92 727.671L375.246 727.671C375.962 699.741 381.959 674.229 393.239 651.133C404.16 625.173 429.941 597.691 470.583 568.687C505.853 543.443 528.68 525.36 539.064 514.439C554.998 497.43 562.965 478.81 562.965 458.579C562.965 442.108 558.4 428.412 549.269 417.49Z" fill="#1ab300" opacity="1" stroke="none" vectornator:layerName="Text 1"/>
<path d="M549.269 394.148C540.138 383.227 527.069 377.766 510.06 377.766C486.785 377.766 470.941 386.45 462.526 403.816C457.692 413.842 454.827 429.777 453.932 451.619L379.542 451.619C380.796 418.497 386.793 391.731 397.536 371.321C417.946 332.47 454.201 313.045 506.3 313.045C547.479 313.045 580.242 324.458 604.591 347.286C628.94 370.113 641.115 400.325 641.115 437.923C641.115 466.748 632.521 492.35 615.333 514.729C604.054 529.589 585.524 546.15 559.743 564.412L529.127 586.165C509.971 599.772 496.856 609.619 489.784 615.706C482.712 621.793 476.759 628.865 471.925 636.922L641.92 636.922L641.92 704.329L375.246 704.329C375.962 676.399 381.959 650.887 393.239 627.791C404.16 601.831 429.941 574.349 470.583 545.345C505.853 520.1 528.68 502.018 539.064 491.097C554.998 474.088 562.965 455.468 562.965 435.237C562.965 418.766 558.4 405.07 549.269 394.148Z" fill="#000000" opacity="1" stroke="none" vectornator:layerName="Text 2"/>
<g opacity="1" vectornator:layerName="Group 14">
<g opacity="1" vectornator:layerName="Curve 6">
<path d="M756.531 203.094C753.428 209.123 750.906 215.471 748.281 221.719C744.149 231.556 740.164 241.455 736.156 251.344C724.372 280.419 712.873 309.585 701.312 338.75C724.083 320.388 746.892 302.094 769.5 283.531C777.484 276.975 785.455 270.42 793.344 263.75C797.948 259.857 802.653 255.998 806.906 251.719C807.041 251.58 795.875 240.582 781.969 227.156C768.063 213.73 756.666 202.955 756.531 203.094Z" fill="#000000" stroke="none"/>
</g>
<g opacity="1" vectornator:layerName="Curve 7">
<path d="M724.031 770.875C740.725 790.872 757.384 810.898 774.25 830.75C779.972 837.485 785.682 844.222 791.5 850.875C795.169 855.07 798.779 859.398 802.812 863.25C802.994 863.316 808.478 848.612 815.062 830.438C821.647 812.264 826.838 797.503 826.656 797.438C822.065 795.597 817.199 794.378 812.438 793.062C804.99 791.005 797.516 789.074 790.031 787.156C768.08 781.532 746.045 776.248 724.031 770.875Z" fill="#000000" stroke="none"/>
</g>
<g opacity="1" vectornator:layerName="Curve 8">
<path d="M278.312 490.719C264.81 491.534 251.307 492.319 237.812 493.25C233.182 493.569 228.532 493.898 223.906 494.281C220.894 494.531 217.86 494.734 214.875 495.219C214.787 495.187 212.135 502.298 208.938 511.125C205.74 519.952 203.224 527.156 203.312 527.188C206.849 525.716 210.294 523.993 213.75 522.344C219.228 519.728 224.668 517.066 230.125 514.406C246.21 506.566 262.266 498.638 278.312 490.719Z" fill="#000000" stroke="none"/>
</g>
<g opacity="1" vectornator:layerName="Curve 10">
<path d="M507.688 786.531C501.405 804.852 495.076 823.172 488.906 841.531C486.805 847.783 484.694 854.04 482.656 860.312C481.357 864.312 480.02 868.301 478.969 872.375C478.969 872.469 486.58 872.517 495.969 872.469C505.357 872.421 512.969 872.281 512.969 872.188C513.03 868.172 512.739 864.166 512.531 860.156C512.207 853.907 511.831 847.651 511.438 841.406C510.283 823.108 508.967 804.821 507.688 786.531Z" fill="#000000" stroke="none"/>
</g>
<g opacity="1" vectornator:layerName="Curve 9">
<path d="M521.719 184.281C512.33 184.329 504.718 184.437 504.719 184.531C504.751 188.563 505.137 192.606 505.438 196.625C505.907 202.893 506.43 209.144 506.969 215.406C508.549 233.76 510.295 252.127 512 270.469C517.858 252.094 523.757 233.723 529.5 215.312C531.456 209.042 533.389 202.759 535.281 196.469C536.488 192.456 537.763 188.456 538.719 184.375C538.718 184.281 531.107 184.233 521.719 184.281Z" fill="#000000" stroke="none"/>
</g>
<g opacity="1" vectornator:layerName="Curve 4">
<path d="M812.406 491.781C809.559 493.393 806.872 495.273 804.156 497.094C799.87 499.968 795.626 502.886 791.375 505.812C778.866 514.423 766.444 523.172 754 531.875C767.482 530.66 780.967 529.466 794.438 528.125C799.035 527.667 803.629 527.215 808.219 526.688C811.163 526.349 814.127 526.072 817.031 525.469C817.124 525.456 816.182 517.896 814.906 508.594C813.631 499.292 812.499 491.768 812.406 491.781Z" fill="#000000" stroke="none"/>
</g>
<g opacity="1" vectornator:layerName="Curve 5">
<path d="M286.656 172.031C286.567 171.86 272.612 178.945 255.469 187.875C238.325 196.805 224.504 204.172 224.594 204.344C229.928 210.278 235.752 215.781 241.469 221.344C250.44 230.074 259.496 238.712 268.562 247.344C295.194 272.696 322.043 297.826 348.844 323C335.846 290.621 322.925 258.22 309.688 225.938C305.171 214.924 300.649 203.895 296 192.938C293.02 185.914 290.138 178.823 286.656 172.031Z" fill="#000000" stroke="none"/>
</g>
<g opacity="1" vectornator:layerName="Curve 3">
<path d="M291.094 727.656C259.724 741.598 228.326 755.478 197.062 769.656C186.389 774.497 175.738 779.341 165.125 784.312C158.31 787.505 151.409 790.596 144.844 794.281C144.669 794.364 151.246 808.582 159.562 826.031C167.879 843.481 174.763 857.552 174.938 857.469C180.753 851.863 186.123 845.811 191.562 839.844C200.112 830.465 208.582 820.969 217.031 811.5C241.863 783.673 266.441 755.642 291.094 727.656Z" fill="#000000" stroke="none"/>
</g>
</g>
</g>
</svg>
