<?xml version="1.0" encoding="UTF-8" standalone="no"?>
<!DOCTYPE svg PUBLIC "-//W3C//DTD SVG 1.1//EN" "http://www.w3.org/Graphics/SVG/1.1/DTD/svg11.dtd">
<!-- Created with Vectornator (http://vectornator.io/) -->
<svg height="100%" stroke-miterlimit="10" style="fill-rule:nonzero;clip-rule:evenodd;stroke-linecap:round;stroke-linejoin:round;" version="1.1" viewBox="0 0 1024 1024" width="100%" xml:space="preserve" xmlns="http://www.w3.org/2000/svg" xmlns:vectornator="http://vectornator.io" xmlns:xlink="http://www.w3.org/1999/xlink">
<defs/>
<g id="Layer-1" vectornator:layerName="Layer 1">
<path d="M512 340C422.276 340 349.562 412.729 349.562 502.438C349.562 509.875 349.562 524.75 349.562 532.188C349.562 621.912 422.292 694.625 512 694.625C601.724 694.625 674.437 621.896 674.438 532.188C674.438 524.75 674.438 509.875 674.438 502.438C674.437 412.713 601.708 340 512 340Z" fill="#000000" fill-opacity="0.08" fill-rule="nonzero" opacity="1" stroke="none" vectornator:layerName="Curve 2"/>
<g opacity="1" vectornator:layerName="Group 13">
<g opacity="1" vectornator:layerName="Group 11">
<path d="M657.438 526.872C657.438 607.195 592.323 672.31 512 672.31C431.677 672.31 366.562 607.195 366.562 526.872L366.562 497.121L657.438 497.121L657.438 526.872Z" fill="#ffb000" fill-rule="nonzero" opacity="1" stroke="none" vectornator:layerName="Oval 2"/>
<path d="M366.562 490.125C362.697 490.125 359.562 493.259 359.562 497.125L359.562 526.875C359.562 611.064 427.811 679.312 512 679.312C596.189 679.312 664.438 611.064 664.438 526.875C664.438 525.945 664.438 498.055 664.438 497.125C664.438 493.259 661.304 490.125 657.438 490.125L366.562 490.125ZM373.562 504.125L650.438 504.125C650.438 512.256 650.438 526.164 650.438 526.875C650.438 603.332 588.457 665.313 512 665.312C435.543 665.312 373.562 603.332 373.562 526.875L373.562 504.125Z" fill="#000000" fill-rule="nonzero" opacity="1" stroke="none" vectornator:layerName="Curve 1"/>
</g>
<g opacity="1" vectornator:layerName="Group 12">
<path d="M366.562 497.121C366.562 416.798 431.677 351.683 512 351.683C592.323 351.683 657.438 416.798 657.438 497.121C657.438 577.444 592.323 642.559 512 642.559C431.677 642.559 366.562 577.444 366.562 497.121Z" fill="#ffc200" fill-rule="nonzero" opacity="1" stroke="none" vectornator:layerName="Oval 3"/>
<path d="M634.658 418.185C634.658 418.185 645.433 485.689 617.318 546.001C589.202 606.312 521.455 643.51 521.455 643.51C521.455 643.51 586.346 625.626 608.01 605.986C629.674 586.346 647.961 560.941 654.452 538.151C660.943 515.362 661.714 476.44 653.287 458.109C644.86 439.779 634.658 418.185 634.658 418.185Z" fill="#ffb000" fill-rule="nonzero" opacity="1" stroke="none" vectornator:layerName="Curve 1"/>
<path d="M512 344.688C427.811 344.688 359.562 412.936 359.562 497.125C359.562 581.314 427.811 649.562 512 649.562C596.189 649.562 664.438 581.314 664.438 497.125C664.438 412.936 596.189 344.688 512 344.688ZM512 358.688C588.457 358.688 650.438 420.668 650.438 497.125C650.438 573.582 588.457 635.562 512 635.562C435.543 635.562 373.562 573.582 373.562 497.125C373.562 420.668 435.543 358.688 512 358.688Z" fill="#000000" fill-rule="nonzero" opacity="1" stroke="none" vectornator:layerName="Curve 2"/>
<path d="M431.219 406.562C427.38 406.607 423.551 408.131 420.656 411.094C399.652 432.593 387.687 461.396 387.688 492.062C387.688 500.347 394.403 507.062 402.688 507.062C410.972 507.062 417.688 500.347 417.688 492.062C417.688 469.312 426.543 447.981 442.125 432.031C447.914 426.106 447.801 416.633 441.875 410.844C438.912 407.949 435.057 406.518 431.219 406.562Z" fill="#ffe287" fill-rule="nonzero" opacity="1" stroke="none" vectornator:layerName="Curve 3"/>
</g>
<path d="M502 387.938L502 408.562L501.344 408.562C473.945 408.562 451.719 430.758 451.719 458.156C451.719 483.248 473.78 503.191 502 507.062L502 565.969C484.371 562.601 471.719 550.713 471.719 537.375L451.719 537.375C451.719 562.466 473.78 582.41 502 586.281L502 606.312L522 606.312L522 587L522.656 587C550.055 587 572.281 564.774 572.281 537.375C572.281 512.284 550.22 492.366 522 488.5L522 429.594C539.629 432.954 552.281 444.818 552.281 458.156L572.281 458.156C572.281 433.065 550.22 413.148 522 409.281L522 387.938L502 387.938ZM501.344 428.562L502 428.562L502 486.75C484.371 483.383 471.719 471.494 471.719 458.156C471.719 441.803 484.991 428.563 501.344 428.562ZM522 508.812C539.629 512.173 552.281 524.037 552.281 537.375C552.281 553.728 539.009 567 522.656 567L522 567L522 508.812Z" fill="#000000" fill-rule="nonzero" opacity="1" stroke="none" vectornator:layerName="Curve 1"/>
</g>
<path d="M150.907 290.907C150.907 213.587 213.587 150.907 290.907 150.907L733.093 150.907C810.413 150.907 873.093 213.587 873.093 290.907L873.093 733.093C873.093 810.413 810.413 873.093 733.093 873.093L290.907 873.093C213.587 873.093 150.907 810.413 150.907 733.093L150.907 290.907Z" fill="#45ff00" fill-rule="nonzero" opacity="1" stroke="none" vectornator:layerName="Rectangle 1"/>
<path d="M379.305 201.094C379.305 201.094 401.453 201.094 290.906 201.094C241.347 201.094 201.094 241.301 201.094 290.906L201.094 339.819" fill="none" opacity="1" stroke="#92ff80" stroke-linecap="round" stroke-linejoin="round" stroke-width="35" vectornator:layerName="Curve 11"/>
<path d="M871.285 403.19C871.285 403.19 857.745 673.515 784.969 776.04C712.192 878.565 432.851 870.773 432.851 870.773L755.059 872.29L837.927 829.257L872.441 764.557L871.285 403.19Z" fill="#3ee600" fill-rule="nonzero" opacity="1" stroke="none" vectornator:layerName="Curve 12"/>
<path d="M150.907 290.907C150.907 213.587 213.587 150.907 290.907 150.907L733.093 150.907C810.413 150.907 873.093 213.587 873.093 290.907L873.093 733.093C873.093 810.413 810.413 873.093 733.093 873.093L290.907 873.093C213.587 873.093 150.907 810.413 150.907 733.093L150.907 290.907Z" fill="none" opacity="1" stroke="#000000" stroke-linecap="butt" stroke-linejoin="round" stroke-width="14" vectornator:layerName="Rectangle 2"/>
<path d="M463.332 415.879C454.738 427.337 450.62 442.645 450.978 461.802L379.542 461.802C380.259 442.466 383.571 424.115 389.479 406.748C395.745 391.53 405.592 377.476 419.02 364.585C429.046 355.454 440.952 348.472 454.738 343.638C468.524 338.804 485.443 336.387 505.495 336.387C542.734 336.387 572.768 346.01 595.595 365.256C618.422 384.503 629.835 410.329 629.835 442.734C629.835 465.651 623.032 484.987 609.425 500.742C600.832 510.589 591.88 517.303 582.57 520.884C589.552 520.884 599.578 526.882 612.648 538.877C632.163 556.96 641.92 581.667 641.92 612.998C641.92 645.941 630.507 674.9 607.68 699.876C584.853 724.851 551.059 737.339 506.3 737.339C451.157 737.339 412.843 719.346 391.359 683.359C380.08 664.203 373.813 639.137 372.56 608.164L447.755 608.164C447.755 623.74 450.262 636.631 455.275 646.836C464.585 665.635 481.504 675.034 506.032 675.034C521.071 675.034 534.185 669.887 545.375 659.592C556.565 649.298 562.16 634.483 562.16 615.147C562.16 589.544 551.776 572.446 531.007 563.853C519.191 559.019 500.571 556.602 475.148 556.602L475.148 501.817C500.034 501.458 517.401 499.041 527.248 494.566C544.256 487.046 552.76 471.828 552.76 448.911C552.76 434.051 548.419 421.966 539.735 412.656C531.052 403.346 518.833 398.692 503.078 398.692C484.995 398.692 471.746 404.421 463.332 415.879Z" fill="#1ab300" opacity="1" stroke="none" vectornator:layerName="Text 1"/>
<path d="M463.332 392.537C454.738 403.995 450.62 419.303 450.978 438.46L379.542 438.46C380.259 419.124 383.571 400.773 389.479 383.406C395.745 368.188 405.592 354.134 419.02 341.243C429.046 332.112 440.952 325.13 454.738 320.296C468.524 315.462 485.443 313.045 505.495 313.045C542.734 313.045 572.768 322.668 595.595 341.914C618.422 361.161 629.835 386.987 629.835 419.392C629.835 442.309 623.032 461.645 609.425 477.4C600.832 487.247 591.88 493.961 582.57 497.542C589.552 497.542 599.578 503.54 612.648 515.535C632.163 533.618 641.92 558.325 641.92 589.656C641.92 622.599 630.507 651.558 607.68 676.534C584.853 701.509 551.059 713.997 506.3 713.997C451.157 713.997 412.843 696.004 391.359 660.017C380.08 640.861 373.813 615.795 372.56 584.822L447.755 584.822C447.755 600.398 450.262 613.289 455.275 623.494C464.585 642.293 481.504 651.692 506.032 651.692C521.071 651.692 534.185 646.545 545.375 636.25C556.565 625.956 562.16 611.141 562.16 591.805C562.16 566.202 551.776 549.104 531.007 540.511C519.191 535.677 500.571 533.26 475.148 533.26L475.148 478.474C500.034 478.116 517.401 475.699 527.248 471.224C544.256 463.704 552.76 448.486 552.76 425.569C552.76 410.709 548.419 398.624 539.735 389.314C531.052 380.004 518.833 375.349 503.078 375.349C484.995 375.349 471.746 381.079 463.332 392.537Z" fill="#000000" opacity="1" stroke="none" vectornator:layerName="Text 2"/>
<g opacity="1" vectornator:layerName="Group 14">
<g opacity="1" vectornator:layerName="Curve 6">
<path d="M868.562 362.25C863.478 365.526 858.768 369.348 854 373.062C846.61 378.82 839.301 384.693 832 390.562C810.649 407.728 789.501 425.166 768.312 442.531C800.666 435.999 833.033 429.524 865.344 422.781C876.314 420.492 887.274 418.188 898.219 415.781C905.137 414.26 912.134 412.858 918.938 410.875C919.072 410.736 907.905 399.739 894 386.312C880.095 372.886 868.697 362.111 868.562 362.25Z" fill="#000000" stroke="none"/>
</g>
<g opacity="1" vectornator:layerName="Curve 7">
<path d="M564.5 781.844C572.214 809.819 579.891 837.816 587.75 865.75C590.409 875.199 593.072 884.637 595.812 894.062C597.527 899.958 599.145 905.926 601.188 911.719C601.369 911.785 606.852 897.079 613.438 878.906C620.023 860.733 625.213 845.972 625.031 845.906C622.539 842.485 619.601 839.373 616.75 836.25C612.409 831.495 607.966 826.855 603.531 822.188C590.645 808.627 577.554 795.243 564.5 781.844Z" fill="#000000" stroke="none"/>
</g>
<g opacity="1" vectornator:layerName="Curve 8">
<path d="M261.844 328.719C261.755 328.687 259.073 335.798 255.875 344.625C252.677 353.452 250.162 360.624 250.25 360.656C253.756 361 257.293 361.04 260.812 361.125C266.343 361.258 271.875 361.308 277.406 361.375C293.66 361.571 309.933 361.642 326.188 361.719C312.503 354.53 298.805 347.297 285.062 340.219C280.377 337.805 275.718 335.383 271 333.031C267.981 331.527 264.975 329.98 261.844 328.719Z" fill="#000000" stroke="none"/>
</g>
<g opacity="1" vectornator:layerName="Curve 10">
<path d="M376.156 732.688C361.036 747.274 345.903 761.851 330.844 776.5C325.73 781.474 320.611 786.428 315.531 791.438C312.318 794.606 309.043 797.758 305.969 801.062C305.969 801.156 313.58 801.203 322.969 801.156C332.357 801.109 339.969 801 339.969 800.906C341.917 797.796 343.625 794.537 345.375 791.312C348.063 786.359 350.711 781.358 353.344 776.375C361.019 761.85 368.579 747.264 376.156 732.688Z" fill="#000000" stroke="none"/>
</g>
<g opacity="1" vectornator:layerName="Curve 9">
<path d="M679.312 247.719C669.924 247.766 662.312 247.906 662.312 248C660.435 251.17 658.829 254.469 657.156 257.75C654.584 262.793 652.047 267.867 649.531 272.938C642.195 287.723 634.985 302.571 627.75 317.406C642.53 302.56 657.346 287.721 672.062 272.812C677.06 267.75 682.038 262.692 687 257.594C690.14 254.368 693.317 251.174 696.312 247.812C696.312 247.719 688.701 247.671 679.312 247.719Z" fill="#000000" stroke="none"/>
</g>
<g opacity="1" vectornator:layerName="Curve 4">
<path d="M778.875 629.531C775.955 629.529 773.062 629.83 770.156 630.094C765.637 630.505 761.106 630.988 756.594 631.469C743.383 632.877 730.196 634.467 717 636C731.208 641.957 745.406 647.925 759.656 653.781C764.496 655.77 769.325 657.755 774.188 659.688C777.265 660.91 780.341 662.222 783.5 663.219C783.593 663.206 782.65 655.646 781.375 646.344C780.1 637.042 778.968 629.519 778.875 629.531Z" fill="#000000" stroke="none"/>
</g>
<g opacity="1" vectornator:layerName="Curve 5">
<path d="M489.406 72.4688C489.317 72.2973 475.331 79.3832 458.188 88.3125C441.044 97.2418 427.223 104.641 427.312 104.812C428.793 111.904 430.907 118.853 432.906 125.812C436 136.587 439.238 147.328 442.469 158.062C451.912 189.44 461.688 220.729 471.375 252.031C475.504 213.578 479.681 175.132 483.594 136.656C484.924 123.581 486.26 110.494 487.469 97.4062C488.235 89.1091 489.116 80.7986 489.406 72.4688Z" fill="#000000" stroke="none"/>
</g>
<g opacity="1" vectornator:layerName="Curve 3">
<path d="M104.656 544.469C104.482 544.552 111.059 558.769 119.375 576.219C127.691 593.669 134.575 607.739 134.75 607.656C141.876 605.87 148.842 603.433 155.812 601.125C166.627 597.545 177.419 593.841 188.188 590.125C219.69 579.253 251.083 568.084 282.5 556.969C244.42 554.022 206.316 551.003 168.219 548.281C155.266 547.356 142.336 546.424 129.375 545.625C121.148 545.118 112.901 544.481 104.656 544.469Z" fill="#000000" stroke="none"/>
</g>
</g>
</g>
</svg>
