<?xml version="1.0" encoding="UTF-8" standalone="no"?>
<!DOCTYPE svg PUBLIC "-//W3C//DTD SVG 1.1//EN" "http://www.w3.org/Graphics/SVG/1.1/DTD/svg11.dtd">
<!-- Created with Vectornator (http://vectornator.io/) -->
<svg height="100%" stroke-miterlimit="10" style="fill-rule:nonzero;clip-rule:evenodd;stroke-linecap:round;stroke-linejoin:round;" version="1.1" viewBox="0 0 651.101 450.673" width="100%" xml:space="preserve" xmlns="http://www.w3.org/2000/svg" xmlns:vectornator="http://vectornator.io" xmlns:xlink="http://www.w3.org/1999/xlink">
<defs/>
<g id="Layer-1" vectornator:layerName="Layer 1">
<g opacity="1" vectornator:layerName="Group 1">
<path d="M83.7966 2.30809C52.963 2.30822 28.0154 27.3262 28.0154 58.1518C28.0154 141.549 28.0154 308.318 28.0154 391.714C28.0153 422.551 52.9737 447.558 83.7966 447.558C92.4095 447.558 109.653 447.558 118.265 447.558C229.645 447.558 452.386 447.558 563.765 447.558C571.095 447.558 585.749 447.558 593.078 447.558C623.911 447.558 648.89 422.54 648.89 391.714C648.89 326.597 648.89 196.363 648.89 131.246C648.89 100.409 623.901 75.4331 593.078 75.4331C588.726 75.4331 582.123 75.4331 575.672 75.4331C575.672 69.0206 575.672 62.4764 575.672 58.1518C575.672 27.3152 550.682 2.3081 519.859 2.30809C410.841 2.30809 192.814 2.30809 83.7966 2.30809Z" fill="#000000" fill-opacity="0.08" fill-rule="nonzero" opacity="1" stroke="none" vectornator:layerName="Curve 8"/>
<path d="M67.1887 23.3298C43.7727 23.3299 24.7903 42.3282 24.7903 65.764L24.7903 387.961C24.7903 411.396 43.7727 430.395 67.1887 430.395L100.464 430.395L530.769 430.395L559.085 430.395C582.501 430.395 601.484 411.396 601.484 387.961L601.484 136.387C601.484 112.951 582.501 93.9524 559.085 93.9524L530.769 93.9524L530.769 65.764C530.769 42.3283 511.787 23.3298 488.371 23.3298L67.1887 23.3298Z" fill="#ffb35f" fill-rule="nonzero" opacity="1" stroke="none" vectornator:layerName="Curve 1"/>
<path d="M611.812 276.444C611.812 276.444 602.498 344.033 527.487 375.161C452.476 406.289 252.235 422.409 252.235 422.409L578.462 423.932L601.703 406L614.27 377.205L611.812 276.444Z" fill="#e6a156" fill-rule="nonzero" opacity="1" stroke="none" vectornator:layerName="Curve 2"/>
<path d="M462.962 196.714C423.264 196.714 391.121 231.145 391.121 273.589C391.121 316.046 423.274 350.464 462.962 350.464C486.95 350.464 507.862 337.693 520.831 318.527C543.749 318.527 581.376 318.527 601.557 318.527C608.174 318.527 613.54 312.79 613.54 305.714C613.54 289.651 613.54 257.528 613.54 241.464C613.54 234.389 608.174 228.652 601.557 228.652C581.376 228.652 543.749 228.652 520.831 228.652C507.863 209.488 486.953 196.714 462.962 196.714Z" fill="#e5a155" fill-rule="nonzero" opacity="1" stroke="none" vectornator:layerName="Curve 9"/>
<path d="M78.6646 146.174C78.6646 132.491 89.7474 121.399 103.419 121.399L301.477 121.399C315.149 121.399 326.231 132.491 326.231 146.174L326.231 146.174C326.231 159.857 315.149 170.949 301.477 170.949L103.419 170.949C89.7474 170.949 78.6646 159.857 78.6646 146.174L78.6646 146.174Z" fill="#ffc280" fill-rule="nonzero" opacity="1" stroke="none" vectornator:layerName="Rectangle 6"/>
<path d="M74.0124 77.8243L536.044 42.3273L540.578 82.0478L74.0124 77.8243Z" fill="#e5a155" fill-rule="nonzero" opacity="1" stroke="none" vectornator:layerName="Curve 4"/>
<path d="M505.448 223.949L605.877 223.949L605.877 288.183L505.448 288.183" fill="#007bcc" fill-rule="nonzero" opacity="1" stroke="none" vectornator:layerName="Rectangle 7"/>
<path d="M393.65 256.066C393.65 220.685 422.308 192.002 457.66 192.002C493.011 192.002 521.669 220.685 521.669 256.066C521.669 291.447 493.011 320.13 457.66 320.13C422.308 320.13 393.65 291.447 393.65 256.066Z" fill="#009aff" fill-rule="nonzero" opacity="1" stroke="none" vectornator:layerName="Oval 2"/>
<path d="M429.672 252.7C429.672 239.994 439.963 229.694 452.658 229.694C465.353 229.694 475.644 239.994 475.644 252.7C475.644 265.405 465.353 275.705 452.658 275.705C439.963 275.705 429.672 265.405 429.672 252.7Z" fill="#4db8ff" fill-rule="nonzero" opacity="1" stroke="none" vectornator:layerName="Oval 3"/>
<path d="M538.491 88.1438L538.48 76.9159C538.445 43.6901 511.416 16.8186 478.19 16.9788L78.0422 18.9089C44.9476 19.0685 18.2317 45.995 18.3319 79.0898L19.2189 372.124C19.3189 405.172 46.1248 431.917 79.1732 431.942L546.848 432.296C579.998 432.321 606.886 405.459 606.894 372.31L606.944 148.122C606.952 114.879 579.93 87.967 546.688 88.1088L538.491 88.1438Z" fill="none" opacity="1" stroke="#000000" stroke-linecap="butt" stroke-linejoin="round" stroke-width="24" vectornator:layerName="Curve 1"/>
<path d="M539.699 87.8199L70.7085 89.2585" fill="none" opacity="1" stroke="#000000" stroke-linecap="butt" stroke-linejoin="round" stroke-width="24" vectornator:layerName="Curve 2"/>
<path d="M515.194 224.515L606.958 224.515L606.958 290.377L515.194 290.377" fill="none" opacity="1" stroke="#000000" stroke-linecap="butt" stroke-linejoin="round" stroke-width="24" vectornator:layerName="Rectangle 1"/>
<path d="M398.911 257.446C398.911 222.329 427.379 193.861 462.496 193.861C497.613 193.861 526.081 222.329 526.081 257.446C526.081 292.563 497.613 321.031 462.496 321.031C427.379 321.031 398.911 292.563 398.911 257.446Z" fill="none" opacity="1" stroke="#000000" stroke-linecap="butt" stroke-linejoin="round" stroke-width="24" vectornator:layerName="Oval 1"/>
</g>
</g>
</svg>
