<?xml version="1.0" encoding="UTF-8" standalone="no"?>
<!DOCTYPE svg PUBLIC "-//W3C//DTD SVG 1.1//EN" "http://www.w3.org/Graphics/SVG/1.1/DTD/svg11.dtd">
<!-- Created with Vectornator (http://vectornator.io/) -->
<svg height="100%" stroke-miterlimit="10" style="fill-rule:nonzero;clip-rule:evenodd;stroke-linecap:round;stroke-linejoin:round;" version="1.1" viewBox="0 0 1005.82 521.781" width="100%" xml:space="preserve" xmlns="http://www.w3.org/2000/svg" xmlns:vectornator="http://vectornator.io" xmlns:xlink="http://www.w3.org/1999/xlink">
<defs/>
<g id="Layer-1" vectornator:layerName="Layer 1">
<path d="M56.6772 30.3737C32.4034 30.3738 12.7397 50.0437 12.7397 74.3112C12.7397 172.35 12.7397 368.428 12.7397 466.467C12.7397 490.741 32.4097 510.405 56.6772 510.405C259.083 510.405 663.896 510.405 866.302 510.405C890.576 510.405 910.24 490.735 910.24 466.467C910.24 463.928 910.24 460.077 910.24 456.311C923.001 456.311 940.872 456.311 951.083 456.311C974.284 456.311 993.083 437.506 993.083 414.311C993.083 347.35 993.083 213.428 993.083 146.467C993.083 123.267 974.278 104.468 951.083 104.467C940.872 104.467 923.001 104.467 910.24 104.467C910.24 94.623 910.24 81.8503 910.24 74.3112C910.24 50.0375 890.57 30.3737 866.302 30.3737C663.896 30.3737 259.083 30.3737 56.6772 30.3737Z" fill="#000000" fill-opacity="0.08" fill-rule="nonzero" opacity="1" stroke="none" vectornator:layerName="Curve 2"/>
<g opacity="1" vectornator:layerName="Group 1">
<path d="M19.7432 54.319C19.7432 33.9158 36.2833 17.3758 56.6865 17.3758L866.292 17.3758C886.695 17.3758 903.235 33.9158 903.235 54.319L903.235 446.459C903.235 466.862 886.695 483.402 866.292 483.402L56.6865 483.402C36.2833 483.402 19.7432 466.862 19.7432 446.459L19.7432 54.319Z" fill="#eb4566" fill-rule="nonzero" opacity="1" stroke="none" vectornator:layerName="Rectangle 1"/>
<path d="M901.963 173.944C901.963 173.944 633.795 315.918 547.925 400.546C462.055 485.173 269.483 485.173 269.483 485.173L678.73 484.496L866.78 485.134C874.333 485.159 881.713 482.869 887.925 478.572L888.374 478.261C893.857 474.468 898.21 469.262 900.974 463.195L900.974 463.195C903.209 458.29 904.343 452.955 904.297 447.564L901.963 173.944Z" fill="#eb284f" fill-rule="nonzero" opacity="1" stroke="none" vectornator:layerName="Curve 2"/>
<path d="M19.7432 54.319C19.7432 33.9158 36.2833 17.3758 56.6865 17.3758L866.292 17.3758C886.695 17.3758 903.235 33.9158 903.235 54.319L903.235 446.459C903.235 466.862 886.695 483.402 866.292 483.402L56.6865 483.402C36.2833 483.402 19.7432 466.862 19.7432 446.459L19.7432 54.319Z" fill="none" opacity="1" stroke="#000000" stroke-linecap="butt" stroke-linejoin="round" stroke-width="14" vectornator:layerName="Rectangle 2"/>
<path d="M162.789 55.3737L55.905 55.3737L55.905 143.607" fill="none" opacity="1" stroke="#ff597a" stroke-linecap="round" stroke-linejoin="round" stroke-width="24" vectornator:layerName="Curve 5"/>
<path d="M202.546 55.3737L192.45 55.3737" fill="none" opacity="1" stroke="#ff597a" stroke-linecap="round" stroke-linejoin="round" stroke-width="24" vectornator:layerName="Curve 4"/>
</g>
<g opacity="1" vectornator:layerName="Group 10">
<g opacity="1" vectornator:layerName="Rectangle 1 Rectangle 1">
<path d="M547.925 116.474C547.925 97.1438 563.595 81.4738 582.925 81.4738L951.089 81.4738C970.419 81.4738 986.089 97.1438 986.089 116.474L986.089 384.304C986.089 403.634 970.419 419.304 951.089 419.304L582.925 419.304C563.595 419.304 547.925 403.634 547.925 384.304L547.925 116.474Z" fill="#63d6d5" fill-rule="nonzero" opacity="1" stroke="none" vectornator:layerName="path"/>
<g opacity="1" vectornator:layerName="path">
<clipPath clip-rule="evenodd" id="ClipPath">
<path d="M547.925 116.474C547.925 97.1438 563.595 81.4738 582.925 81.4738L951.089 81.4738C970.419 81.4738 986.089 97.1438 986.089 116.474L986.089 384.304C986.089 403.634 970.419 419.304 951.089 419.304L582.925 419.304C563.595 419.304 547.925 403.634 547.925 384.304L547.925 116.474Z"/>
</clipPath>
<g clip-path="url(#ClipPath)">
<path d="M547.925 116.474C547.925 97.1438 563.595 81.4738 582.925 81.4738L951.089 81.4738C970.419 81.4738 986.089 97.1438 986.089 116.474L986.089 384.304C986.089 403.634 970.419 419.304 951.089 419.304L582.925 419.304C563.595 419.304 547.925 403.634 547.925 384.304L547.925 116.474Z" fill="none" opacity="1" stroke="#00ccca" stroke-linecap="round" stroke-linejoin="round" stroke-width="34" vectornator:layerName="path"/>
</g>
</g>
</g>
<path d="M547.925 116.474C547.925 97.1438 563.595 81.4738 582.925 81.4738L951.089 81.4738C970.419 81.4738 986.089 97.1438 986.089 116.474L986.089 384.304C986.089 403.634 970.419 419.304 951.089 419.304L582.925 419.304C563.595 419.304 547.925 403.634 547.925 384.304L547.925 116.474Z" fill="none" opacity="1" stroke="#000000" stroke-linecap="round" stroke-linejoin="round" stroke-width="14" vectornator:layerName="Rectangle 2"/>
</g>
<g opacity="0" vectornator:layerName="Group 9">
<g opacity="1" vectornator:layerName="Group 8">
<path d="M597.692 158.628C597.692 142.014 611.161 128.546 627.775 128.546C644.39 128.546 657.858 142.014 657.858 158.628C657.858 175.243 644.39 188.711 627.775 188.711C611.161 188.711 597.692 175.243 597.692 158.628Z" fill="#ffffff" fill-rule="nonzero" opacity="1" stroke="#000000" stroke-linecap="butt" stroke-linejoin="round" stroke-width="14" vectornator:layerName="Oval 3"/>
<path d="M775.822 158.628C775.822 142.014 789.291 128.546 805.905 128.546C822.519 128.546 835.988 142.014 835.988 158.628C835.988 175.243 822.519 188.711 805.905 188.711C789.291 188.711 775.822 175.243 775.822 158.628Z" fill="#ffffff" fill-rule="nonzero" opacity="1" stroke="#000000" stroke-linecap="butt" stroke-linejoin="round" stroke-width="14" vectornator:layerName="Oval 1"/>
<g opacity="1" vectornator:layerName="Group 3">
<path d="M741.846 133.622L691.834 183.635" fill="#ffffff" fill-rule="nonzero" opacity="1" stroke="#000000" stroke-linecap="round" stroke-linejoin="round" stroke-width="14" vectornator:layerName="Line 1"/>
<path d="M691.834 133.622L741.846 183.635" fill="#ffffff" fill-rule="nonzero" opacity="1" stroke="#000000" stroke-linecap="round" stroke-linejoin="round" stroke-width="14" vectornator:layerName="Line 2"/>
</g>
</g>
<g opacity="1" vectornator:layerName="Group 7">
<path d="M686.757 250.389C686.757 233.775 700.226 220.306 716.84 220.306C733.454 220.306 746.923 233.775 746.923 250.389C746.923 267.003 733.454 280.472 716.84 280.472C700.226 280.472 686.757 267.003 686.757 250.389Z" fill="#ffffff" fill-rule="nonzero" opacity="1" stroke="#000000" stroke-linecap="butt" stroke-linejoin="round" stroke-width="14" vectornator:layerName="Oval 5"/>
<g opacity="1" vectornator:layerName="Group 4">
<path d="M652.781 225.383L602.769 275.395" fill="#ffffff" fill-rule="nonzero" opacity="1" stroke="#000000" stroke-linecap="round" stroke-linejoin="round" stroke-width="14" vectornator:layerName="Line 1"/>
<path d="M602.769 225.383L652.781 275.395" fill="#ffffff" fill-rule="nonzero" opacity="1" stroke="#000000" stroke-linecap="round" stroke-linejoin="round" stroke-width="14" vectornator:layerName="Line 2"/>
</g>
<g opacity="1" vectornator:layerName="Group 5">
<path d="M830.911 225.383L780.899 275.395" fill="#ffffff" fill-rule="nonzero" opacity="1" stroke="#000000" stroke-linecap="round" stroke-linejoin="round" stroke-width="14" vectornator:layerName="Line 1"/>
<path d="M780.899 225.383L830.911 275.395" fill="#ffffff" fill-rule="nonzero" opacity="1" stroke="#000000" stroke-linecap="round" stroke-linejoin="round" stroke-width="14" vectornator:layerName="Line 2"/>
</g>
</g>
<g opacity="1" vectornator:layerName="Group 6">
<path d="M597.692 342.15C597.692 325.536 611.161 312.067 627.775 312.067C644.39 312.067 657.858 325.536 657.858 342.15C657.858 358.764 644.39 372.233 627.775 372.233C611.161 372.233 597.692 358.764 597.692 342.15Z" fill="#ffffff" fill-rule="nonzero" opacity="1" stroke="#000000" stroke-linecap="butt" stroke-linejoin="round" stroke-width="14" vectornator:layerName="Oval 4"/>
<path d="M775.822 342.15C775.822 325.536 789.291 312.067 805.905 312.067C822.519 312.067 835.988 325.536 835.988 342.15C835.988 358.764 822.519 372.233 805.905 372.233C789.291 372.233 775.822 358.764 775.822 342.15Z" fill="#ffffff" fill-rule="nonzero" opacity="1" stroke="#000000" stroke-linecap="butt" stroke-linejoin="round" stroke-width="14" vectornator:layerName="Oval 2"/>
<g opacity="1" vectornator:layerName="Group 2">
<path d="M741.846 317.144L691.834 367.156" fill="#ffffff" fill-rule="nonzero" opacity="1" stroke="#000000" stroke-linecap="round" stroke-linejoin="round" stroke-width="14" vectornator:layerName="Line 1"/>
<path d="M691.834 317.144L741.846 367.156" fill="#ffffff" fill-rule="nonzero" opacity="1" stroke="#000000" stroke-linecap="round" stroke-linejoin="round" stroke-width="14" vectornator:layerName="Line 2"/>
</g>
</g>
</g>
<g opacity="0" vectornator:layerName="Group 11">
<path d="M629.656 128.875C611.932 128.875 597.562 143.245 597.562 160.969L597.532 193.063L742.25 193.063C759.974 193.063 774.344 178.693 774.344 160.969C774.344 143.245 759.974 128.875 742.25 128.875L629.656 128.875Z" fill="none" opacity="1" stroke="#000000" stroke-linecap="butt" stroke-linejoin="round" stroke-width="14" vectornator:layerName="Curve 3"/>
<path d="M629.656 307.89C611.932 307.89 597.562 322.26 597.562 339.984L597.534 372.078L742.25 372.078C759.974 372.078 774.344 357.708 774.344 339.984C774.344 322.26 759.974 307.89 742.25 307.89L629.656 307.89Z" fill="none" opacity="1" stroke="#000000" stroke-linecap="butt" stroke-linejoin="round" stroke-width="14" vectornator:layerName="Curve 2"/>
<path d="M803.811 217.592C821.535 217.592 835.905 231.961 835.905 249.685L835.905 304.189L790.793 281.779L691.218 281.779C673.494 281.779 659.124 267.409 659.124 249.685C659.124 231.961 673.494 217.592 691.218 217.592L803.811 217.592Z" fill="#ffffff" fill-rule="nonzero" opacity="1" stroke="#000000" stroke-linecap="butt" stroke-linejoin="round" stroke-width="14" vectornator:layerName="Curve 1"/>
</g>
<g fill="#ffffff" opacity="1" stroke="none" vectornator:layerName="Text 1">
<path d="M184.962 233.771C184.962 238.101 184.307 242.216 182.997 246.119C181.687 250.021 179.622 253.553 176.802 256.714C173.982 259.876 170.379 262.639 165.992 265.003C161.606 267.367 156.308 269.176 150.099 270.429C150.099 271.625 150.384 272.466 150.953 272.95C151.523 273.434 152.207 273.676 153.004 273.676C154.485 273.676 156.294 273.42 158.43 272.907C160.566 272.394 162.76 271.654 165.01 270.685C167.26 269.717 169.453 268.563 171.589 267.225C173.726 265.886 175.563 264.391 177.101 262.739C179.835 265.473 181.872 268.748 183.21 272.565C184.549 276.382 185.219 280.313 185.219 284.357C185.219 288.288 184.592 292.076 183.339 295.722C182.085 299.368 180.177 302.472 177.614 305.036L100.795 305.036C96.4083 298.542 94.2151 291.165 94.2151 282.905C94.2151 279.487 94.5854 276.054 95.3259 272.608C96.0665 269.161 97.2343 266.043 98.8294 263.251C104.127 262.226 109.411 260.702 114.68 258.68C119.95 256.657 124.678 254.322 128.865 251.673C133.052 249.024 136.456 246.104 139.076 242.914C141.696 239.724 143.007 236.449 143.007 233.088C143.007 231.436 142.636 230.054 141.896 228.943C141.155 227.833 140.073 227.277 138.649 227.277C137.054 227.277 135.957 227.776 135.359 228.772C134.761 229.769 134.462 230.838 134.462 231.977C134.462 233.116 134.718 234.255 135.231 235.395C135.743 236.534 136.484 237.446 137.452 238.129C135.914 240.408 133.977 242.53 131.642 244.495C129.306 246.46 126.786 248.255 124.08 249.878C121.374 251.502 118.582 252.926 115.706 254.151C112.829 255.376 110.08 256.358 107.46 257.099C102.561 253.852 98.8009 249.907 96.1804 245.264C93.56 240.621 92.2498 235.366 92.2498 229.499C92.2498 223.688 93.4745 218.519 95.9241 213.99C98.3736 209.461 101.678 205.658 105.836 202.582C109.995 199.506 114.837 197.171 120.363 195.575C125.888 193.98 131.699 193.183 137.794 193.183C144.231 193.183 150.313 194.066 156.038 195.832C161.763 197.598 166.761 200.204 171.034 203.65C175.306 207.097 178.696 211.341 181.202 216.382C183.709 221.424 184.962 227.22 184.962 233.771Z"/>
<path d="M238.112 307.258C230.763 307.258 224.069 306.047 218.031 303.626C211.993 301.205 206.823 297.602 202.522 292.817C198.221 288.032 194.889 282.107 192.524 275.043C190.16 267.979 188.978 259.776 188.978 250.434C188.978 241.49 190.203 233.458 192.653 226.337C195.102 219.216 198.52 213.178 202.907 208.222C207.293 203.266 212.477 199.463 218.458 196.814C224.44 194.166 230.991 192.841 238.112 192.841C245.175 192.841 251.712 194.166 257.722 196.814C263.732 199.463 268.93 203.266 273.317 208.222C277.703 213.178 281.121 219.216 283.571 226.337C286.02 233.458 287.245 241.49 287.245 250.434C287.245 259.776 286.063 267.979 283.699 275.043C281.335 282.107 278.002 288.032 273.701 292.817C269.4 297.602 264.231 301.205 258.192 303.626C252.154 306.047 245.46 307.258 238.112 307.258ZM255.201 270.514C254.518 270.002 253.549 269.176 252.296 268.036C251.043 266.897 249.661 265.558 248.152 264.02C246.642 262.482 245.076 260.787 243.452 258.936C241.829 257.085 240.305 255.191 238.881 253.254C237.684 251.602 236.46 249.75 235.206 247.699C233.953 245.649 232.785 243.641 231.703 241.675C230.621 239.71 229.681 237.93 228.883 236.335C228.086 234.74 227.573 233.543 227.345 232.746C225.579 232.746 224.696 233.771 224.696 235.822C224.696 236.62 224.938 237.688 225.422 239.026C225.907 240.365 226.576 241.889 227.43 243.598C228.285 245.307 229.31 247.13 230.507 249.067C231.703 251.004 233.013 252.94 234.437 254.877L235.634 256.501C237.456 259.007 239.237 261.257 240.974 263.251C242.712 265.245 244.335 266.926 245.845 268.293C247.354 269.66 248.707 270.714 249.904 271.454C251.1 272.195 252.097 272.565 252.894 272.565C253.35 272.565 253.82 272.423 254.304 272.138C254.788 271.853 255.088 271.312 255.201 270.514Z"/>
<path d="M332.362 291.791L339.283 291.791C340.935 291.791 342.203 291.649 343.086 291.364C343.969 291.079 344.41 290.424 344.41 289.399C344.41 289.114 344.396 288.872 344.368 288.672C344.339 288.473 344.24 288.174 344.069 287.775L318.178 287.775C313.108 287.775 308.764 286.978 305.147 285.383C301.529 283.788 298.538 281.594 296.174 278.803C293.81 276.012 292.073 272.765 290.962 269.062C289.851 265.359 289.296 261.371 289.296 257.099C289.296 255.105 289.381 253.069 289.552 250.989C289.723 248.91 290.036 246.817 290.492 244.709C295.334 240.55 299.649 236.434 303.438 232.361C307.226 228.288 310.729 224.172 313.948 220.014C317.166 215.855 320.186 211.64 323.005 207.367C325.825 203.095 328.716 198.68 331.678 194.123L353.468 194.123C356.943 194.123 360.162 194.607 363.124 195.575C366.086 196.544 368.65 197.954 370.814 199.805C372.979 201.657 374.659 203.907 375.856 206.556C377.052 209.205 377.65 212.238 377.65 215.656L377.65 248.298L375.856 248.298C374.546 248.298 373.606 248.54 373.036 249.024C372.466 249.508 372.181 250.234 372.181 251.203L372.181 252.314L385.939 252.314C386.85 254.592 387.577 257.256 388.118 260.303C388.659 263.351 388.929 266.413 388.929 269.489C388.929 271.54 388.716 273.548 388.289 275.513C387.861 277.479 387.192 279.259 386.281 280.854C385.369 282.449 384.201 283.83 382.777 284.998C381.353 286.166 379.615 286.978 377.565 287.433L377.565 300.507C374.318 302.843 370.629 304.58 366.499 305.72C362.369 306.859 358.168 307.428 353.895 307.428C349.908 307.428 346.048 306.902 342.317 305.848C338.586 304.794 335.267 303.185 332.362 301.02L332.362 291.791ZM331.508 253.681L340.651 253.681L340.651 242.231L338.771 242.231C337.973 243.826 337.005 245.464 335.865 247.144C334.726 248.825 333.274 250.462 331.508 252.057L331.508 253.681Z"/>
<path d="M412.599 255.817C413.396 255.817 414.009 255.532 414.436 254.963C414.863 254.393 415.077 253.709 415.077 252.912C413.311 252.228 411.317 251.288 409.095 250.092C406.874 248.896 404.78 247.343 402.815 245.435C400.85 243.527 399.183 241.191 397.816 238.428C396.449 235.665 395.765 232.376 395.765 228.559C395.765 223.432 396.819 218.689 398.927 214.332C401.035 209.974 404.04 206.185 407.942 202.967C411.844 199.748 416.558 197.242 422.084 195.447C427.609 193.653 433.819 192.756 440.712 192.756C447.035 192.756 452.988 193.596 458.571 195.276C464.153 196.957 469.01 199.335 473.14 202.411C477.27 205.488 480.531 209.148 482.924 213.392C485.316 217.636 486.512 222.321 486.512 227.448C486.512 230.296 486.057 233.031 485.145 235.651C484.234 238.272 482.924 240.237 481.215 241.547C480.759 241.262 480.118 240.849 479.292 240.308C478.466 239.767 477.54 239.24 476.515 238.727C475.49 238.215 474.45 237.759 473.396 237.36C472.342 236.961 471.388 236.762 470.533 236.762C468.768 236.762 467.885 237.73 467.885 239.667C471.473 240.864 474.706 242.33 477.583 244.068C480.46 245.805 482.909 247.885 484.932 250.306C486.954 252.727 488.521 255.561 489.631 258.808C490.742 262.055 491.298 265.758 491.298 269.916C491.298 276.012 490.002 281.381 487.41 286.023C484.818 290.666 481.314 294.568 476.899 297.73C472.485 300.892 467.343 303.284 461.476 304.908C455.608 306.531 449.428 307.343 442.933 307.343C435.471 307.343 428.663 306.46 422.511 304.694C416.359 302.928 411.075 300.407 406.66 297.132C402.245 293.856 398.813 289.854 396.364 285.126C393.914 280.398 392.689 275.043 392.689 269.062C392.689 266.327 392.931 263.892 393.416 261.756C393.9 259.62 394.512 257.754 395.253 256.159C395.993 254.564 396.819 253.211 397.731 252.1C398.642 250.989 399.497 250.092 400.294 249.408C400.921 250.149 401.79 250.89 402.9 251.63C404.011 252.371 405.165 253.054 406.361 253.681C407.557 254.308 408.725 254.82 409.865 255.219C411.004 255.618 411.915 255.817 412.599 255.817ZM439.601 264.704C438.917 265.331 438.433 265.857 438.148 266.285C437.863 266.712 437.721 267.296 437.721 268.036C437.721 269.005 438.148 269.788 439.003 270.386C439.857 270.984 441.082 271.283 442.677 271.283C444.158 271.283 445.326 271.013 446.18 270.472C447.035 269.931 447.462 269.119 447.462 268.036C447.462 267.638 447.22 267.267 446.736 266.926C446.252 266.584 445.639 266.285 444.899 266.028C444.158 265.772 443.318 265.53 442.378 265.302C441.438 265.074 440.512 264.875 439.601 264.704ZM444.728 234.882C445.354 234.255 445.753 233.7 445.924 233.216C446.095 232.732 446.18 232.119 446.18 231.379C446.18 230.41 445.753 229.627 444.899 229.029C444.044 228.431 442.819 228.132 441.224 228.132C439.743 228.132 438.575 228.402 437.721 228.943C436.866 229.485 436.439 230.296 436.439 231.379C436.439 231.891 436.696 232.333 437.208 232.703C437.721 233.073 438.39 233.387 439.216 233.643C440.042 233.899 440.94 234.127 441.908 234.327C442.876 234.526 443.816 234.711 444.728 234.882Z"/>
</g>
<g opacity="1" vectornator:layerName="Group 15">
<g opacity="1" vectornator:layerName="Group 14">
<path d="M597.534 322.078C597.534 314.346 603.802 308.078 611.534 308.078L647.534 308.078C655.266 308.078 661.534 314.346 661.534 322.078L661.534 358.078C661.534 365.81 655.266 372.078 647.534 372.078L611.534 372.078C603.802 372.078 597.534 365.81 597.534 358.078L597.534 322.078Z" fill="#ffffff" fill-rule="nonzero" opacity="1" stroke="#000000" stroke-linecap="butt" stroke-linejoin="round" stroke-width="14" vectornator:layerName="Rectangle 4"/>
<path d="M684.719 322.078C684.719 314.346 690.987 308.078 698.719 308.078L734.719 308.078C742.451 308.078 748.719 314.346 748.719 322.078L748.719 358.078C748.719 365.81 742.451 372.078 734.719 372.078L698.719 372.078C690.987 372.078 684.719 365.81 684.719 358.078L684.719 322.078Z" fill="#ffffff" fill-rule="nonzero" opacity="1" stroke="#000000" stroke-linecap="butt" stroke-linejoin="round" stroke-width="14" vectornator:layerName="Rectangle 5"/>
<path d="M771.905 322.078C771.905 314.346 778.173 308.078 785.905 308.078L821.905 308.078C829.637 308.078 835.905 314.346 835.905 322.078L835.905 358.078C835.905 365.81 829.637 372.078 821.905 372.078L785.905 372.078C778.173 372.078 771.905 365.81 771.905 358.078L771.905 322.078Z" fill="none" opacity="1" stroke="#000000" stroke-linecap="butt" stroke-linejoin="round" stroke-width="14" vectornator:layerName="Rectangle 6"/>
</g>
<g opacity="1" vectornator:layerName="Group 13">
<path d="M597.534 232.476C597.534 224.744 603.802 218.476 611.534 218.476L647.534 218.476C655.266 218.476 661.534 224.744 661.534 232.476L661.534 268.476C661.534 276.208 655.266 282.476 647.534 282.476L611.534 282.476C603.802 282.476 597.534 276.208 597.534 268.476L597.534 232.476Z" fill="#ffffff" fill-rule="nonzero" opacity="1" stroke="#000000" stroke-linecap="butt" stroke-linejoin="round" stroke-width="14" vectornator:layerName="Rectangle 7"/>
<path d="M684.719 232.476C684.719 224.744 690.987 218.476 698.719 218.476L734.719 218.476C742.451 218.476 748.719 224.744 748.719 232.476L748.719 268.476C748.719 276.208 742.451 282.476 734.719 282.476L698.719 282.476C690.987 282.476 684.719 276.208 684.719 268.476L684.719 232.476Z" fill="none" opacity="1" stroke="#000000" stroke-linecap="butt" stroke-linejoin="round" stroke-width="14" vectornator:layerName="Rectangle 8"/>
<path d="M771.905 232.476C771.905 224.744 778.173 218.476 785.905 218.476L821.905 218.476C829.637 218.476 835.905 224.744 835.905 232.476L835.905 268.476C835.905 276.208 829.637 282.476 821.905 282.476L785.905 282.476C778.173 282.476 771.905 276.208 771.905 268.476L771.905 232.476Z" fill="#ffffff" fill-rule="nonzero" opacity="1" stroke="#000000" stroke-linecap="butt" stroke-linejoin="round" stroke-width="14" vectornator:layerName="Rectangle 9"/>
</g>
<g opacity="1" vectornator:layerName="Group 12">
<path d="M597.534 142.875C597.534 135.143 603.802 128.875 611.534 128.875L647.534 128.875C655.266 128.875 661.534 135.143 661.534 142.875L661.534 178.875C661.534 186.607 655.266 192.875 647.534 192.875L611.534 192.875C603.802 192.875 597.534 186.607 597.534 178.875L597.534 142.875Z" fill="none" opacity="1" stroke="#000000" stroke-linecap="butt" stroke-linejoin="round" stroke-width="14" vectornator:layerName="Rectangle 2"/>
<path d="M684.719 142.875C684.719 135.143 690.987 128.875 698.719 128.875L734.719 128.875C742.451 128.875 748.719 135.143 748.719 142.875L748.719 178.875C748.719 186.607 742.451 192.875 734.719 192.875L698.719 192.875C690.987 192.875 684.719 186.607 684.719 178.875L684.719 142.875Z" fill="none" opacity="1" stroke="#000000" stroke-linecap="butt" stroke-linejoin="round" stroke-width="14" vectornator:layerName="Rectangle 3"/>
<path d="M771.905 142.875C771.905 135.143 778.173 128.875 785.905 128.875L821.905 128.875C829.637 128.875 835.905 135.143 835.905 142.875L835.905 178.875C835.905 186.607 829.637 192.875 821.905 192.875L785.905 192.875C778.173 192.875 771.905 186.607 771.905 178.875L771.905 142.875Z" fill="none" opacity="1" stroke="#000000" stroke-linecap="butt" stroke-linejoin="round" stroke-width="14" vectornator:layerName="Rectangle 1"/>
</g>
</g>
</g>
</svg>
