<?xml version="1.0" encoding="UTF-8" standalone="no"?>
<!DOCTYPE svg PUBLIC "-//W3C//DTD SVG 1.1//EN" "http://www.w3.org/Graphics/SVG/1.1/DTD/svg11.dtd">
<!-- Created with Vectornator (http://vectornator.io/) -->
<svg height="100%" stroke-miterlimit="10" style="fill-rule:nonzero;clip-rule:evenodd;stroke-linecap:round;stroke-linejoin:round;" version="1.1" viewBox="0 0 1005.82 521.781" width="100%" xml:space="preserve" xmlns="http://www.w3.org/2000/svg" xmlns:vectornator="http://vectornator.io" xmlns:xlink="http://www.w3.org/1999/xlink">
<defs/>
<g id="Layer-1" vectornator:layerName="Layer 1">
<path d="M56.6772 30.3737C32.4034 30.3738 12.7397 50.0437 12.7397 74.3112C12.7397 172.35 12.7397 368.428 12.7397 466.467C12.7397 490.741 32.4097 510.405 56.6772 510.405C259.083 510.405 663.896 510.405 866.302 510.405C890.576 510.405 910.24 490.735 910.24 466.467C910.24 463.928 910.24 460.077 910.24 456.311C923.001 456.311 940.872 456.311 951.083 456.311C974.284 456.311 993.083 437.506 993.083 414.311C993.083 347.35 993.083 213.428 993.083 146.467C993.083 123.267 974.278 104.468 951.083 104.467C940.872 104.467 923.001 104.467 910.24 104.467C910.24 94.623 910.24 81.8503 910.24 74.3112C910.24 50.0375 890.57 30.3737 866.302 30.3737C663.896 30.3737 259.083 30.3737 56.6772 30.3737Z" fill="#000000" fill-opacity="0.08" fill-rule="nonzero" opacity="1" stroke="none" vectornator:layerName="Curve 2"/>
<g opacity="1" vectornator:layerName="Group 1">
<path d="M19.7432 54.319C19.7432 33.9158 36.2833 17.3758 56.6865 17.3758L866.292 17.3758C886.695 17.3758 903.235 33.9158 903.235 54.319L903.235 446.459C903.235 466.862 886.695 483.402 866.292 483.402L56.6865 483.402C36.2833 483.402 19.7432 466.862 19.7432 446.459L19.7432 54.319Z" fill="#ffaa00" fill-rule="nonzero" opacity="1" stroke="none" vectornator:layerName="Rectangle 1"/>
<path d="M901.963 173.944C901.963 173.944 633.795 315.918 547.925 400.546C462.055 485.173 269.483 485.173 269.483 485.173L678.73 484.496L866.78 485.134C874.333 485.159 881.713 482.869 887.925 478.572L888.374 478.261C893.857 474.468 898.21 469.262 900.974 463.195L900.974 463.195C903.209 458.29 904.343 452.955 904.297 447.564L901.963 173.944Z" fill="#ff9500" fill-rule="nonzero" opacity="1" stroke="none" vectornator:layerName="Curve 2"/>
<path d="M19.7432 54.319C19.7432 33.9158 36.2833 17.3758 56.6865 17.3758L866.292 17.3758C886.695 17.3758 903.235 33.9158 903.235 54.319L903.235 446.459C903.235 466.862 886.695 483.402 866.292 483.402L56.6865 483.402C36.2833 483.402 19.7432 466.862 19.7432 446.459L19.7432 54.319Z" fill="none" opacity="1" stroke="#000000" stroke-linecap="butt" stroke-linejoin="round" stroke-width="14" vectornator:layerName="Rectangle 2"/>
<path d="M162.789 55.3737L55.905 55.3737L55.905 143.607" fill="none" opacity="1" stroke="#ffc200" stroke-linecap="round" stroke-linejoin="round" stroke-width="24" vectornator:layerName="Curve 5"/>
<path d="M202.546 55.3737L192.45 55.3737" fill="none" opacity="1" stroke="#ffc200" stroke-linecap="round" stroke-linejoin="round" stroke-width="24" vectornator:layerName="Curve 4"/>
</g>
<g opacity="1" vectornator:layerName="Group 10">
<g opacity="1" vectornator:layerName="Rectangle 1 Rectangle 1">
<path d="M547.925 116.474C547.925 97.1438 563.595 81.4738 582.925 81.4738L951.089 81.4738C970.419 81.4738 986.089 97.1438 986.089 116.474L986.089 384.304C986.089 403.634 970.419 419.304 951.089 419.304L582.925 419.304C563.595 419.304 547.925 403.634 547.925 384.304L547.925 116.474Z" fill="#ffc200" fill-rule="nonzero" opacity="1" stroke="none" vectornator:layerName="path"/>
<g opacity="1" vectornator:layerName="path">
<clipPath clip-rule="evenodd" id="ClipPath">
<path d="M547.925 116.474C547.925 97.1438 563.595 81.4738 582.925 81.4738L951.089 81.4738C970.419 81.4738 986.089 97.1438 986.089 116.474L986.089 384.304C986.089 403.634 970.419 419.304 951.089 419.304L582.925 419.304C563.595 419.304 547.925 403.634 547.925 384.304L547.925 116.474Z"/>
</clipPath>
<g clip-path="url(#ClipPath)">
<path d="M547.925 116.474C547.925 97.1438 563.595 81.4738 582.925 81.4738L951.089 81.4738C970.419 81.4738 986.089 97.1438 986.089 116.474L986.089 384.304C986.089 403.634 970.419 419.304 951.089 419.304L582.925 419.304C563.595 419.304 547.925 403.634 547.925 384.304L547.925 116.474Z" fill="none" opacity="1" stroke="#ffaa00" stroke-linecap="round" stroke-linejoin="round" stroke-width="34" vectornator:layerName="path"/>
</g>
</g>
</g>
<path d="M547.925 116.474C547.925 97.1438 563.595 81.4738 582.925 81.4738L951.089 81.4738C970.419 81.4738 986.089 97.1438 986.089 116.474L986.089 384.304C986.089 403.634 970.419 419.304 951.089 419.304L582.925 419.304C563.595 419.304 547.925 403.634 547.925 384.304L547.925 116.474Z" fill="none" opacity="1" stroke="#000000" stroke-linecap="round" stroke-linejoin="round" stroke-width="14" vectornator:layerName="Rectangle 2"/>
</g>
<g opacity="0" vectornator:layerName="Group 9">
<g opacity="1" vectornator:layerName="Group 8">
<path d="M597.692 158.628C597.692 142.014 611.161 128.546 627.775 128.546C644.39 128.546 657.858 142.014 657.858 158.628C657.858 175.243 644.39 188.711 627.775 188.711C611.161 188.711 597.692 175.243 597.692 158.628Z" fill="#ffffff" fill-rule="nonzero" opacity="1" stroke="#000000" stroke-linecap="butt" stroke-linejoin="round" stroke-width="14" vectornator:layerName="Oval 3"/>
<path d="M775.822 158.628C775.822 142.014 789.291 128.546 805.905 128.546C822.519 128.546 835.988 142.014 835.988 158.628C835.988 175.243 822.519 188.711 805.905 188.711C789.291 188.711 775.822 175.243 775.822 158.628Z" fill="#ffffff" fill-rule="nonzero" opacity="1" stroke="#000000" stroke-linecap="butt" stroke-linejoin="round" stroke-width="14" vectornator:layerName="Oval 1"/>
<g opacity="1" vectornator:layerName="Group 3">
<path d="M741.846 133.622L691.834 183.635" fill="#ffffff" fill-rule="nonzero" opacity="1" stroke="#000000" stroke-linecap="round" stroke-linejoin="round" stroke-width="14" vectornator:layerName="Line 1"/>
<path d="M691.834 133.622L741.846 183.635" fill="#ffffff" fill-rule="nonzero" opacity="1" stroke="#000000" stroke-linecap="round" stroke-linejoin="round" stroke-width="14" vectornator:layerName="Line 2"/>
</g>
</g>
<g opacity="1" vectornator:layerName="Group 7">
<path d="M686.757 250.389C686.757 233.775 700.226 220.306 716.84 220.306C733.454 220.306 746.923 233.775 746.923 250.389C746.923 267.003 733.454 280.472 716.84 280.472C700.226 280.472 686.757 267.003 686.757 250.389Z" fill="#ffffff" fill-rule="nonzero" opacity="1" stroke="#000000" stroke-linecap="butt" stroke-linejoin="round" stroke-width="14" vectornator:layerName="Oval 5"/>
<g opacity="1" vectornator:layerName="Group 4">
<path d="M652.781 225.383L602.769 275.395" fill="#ffffff" fill-rule="nonzero" opacity="1" stroke="#000000" stroke-linecap="round" stroke-linejoin="round" stroke-width="14" vectornator:layerName="Line 1"/>
<path d="M602.769 225.383L652.781 275.395" fill="#ffffff" fill-rule="nonzero" opacity="1" stroke="#000000" stroke-linecap="round" stroke-linejoin="round" stroke-width="14" vectornator:layerName="Line 2"/>
</g>
<g opacity="1" vectornator:layerName="Group 5">
<path d="M830.911 225.383L780.899 275.395" fill="#ffffff" fill-rule="nonzero" opacity="1" stroke="#000000" stroke-linecap="round" stroke-linejoin="round" stroke-width="14" vectornator:layerName="Line 1"/>
<path d="M780.899 225.383L830.911 275.395" fill="#ffffff" fill-rule="nonzero" opacity="1" stroke="#000000" stroke-linecap="round" stroke-linejoin="round" stroke-width="14" vectornator:layerName="Line 2"/>
</g>
</g>
<g opacity="1" vectornator:layerName="Group 6">
<path d="M597.692 342.15C597.692 325.536 611.161 312.067 627.775 312.067C644.39 312.067 657.858 325.536 657.858 342.15C657.858 358.764 644.39 372.233 627.775 372.233C611.161 372.233 597.692 358.764 597.692 342.15Z" fill="#ffffff" fill-rule="nonzero" opacity="1" stroke="#000000" stroke-linecap="butt" stroke-linejoin="round" stroke-width="14" vectornator:layerName="Oval 4"/>
<path d="M775.822 342.15C775.822 325.536 789.291 312.067 805.905 312.067C822.519 312.067 835.988 325.536 835.988 342.15C835.988 358.764 822.519 372.233 805.905 372.233C789.291 372.233 775.822 358.764 775.822 342.15Z" fill="#ffffff" fill-rule="nonzero" opacity="1" stroke="#000000" stroke-linecap="butt" stroke-linejoin="round" stroke-width="14" vectornator:layerName="Oval 2"/>
<g opacity="1" vectornator:layerName="Group 2">
<path d="M741.846 317.144L691.834 367.156" fill="#ffffff" fill-rule="nonzero" opacity="1" stroke="#000000" stroke-linecap="round" stroke-linejoin="round" stroke-width="14" vectornator:layerName="Line 1"/>
<path d="M691.834 317.144L741.846 367.156" fill="#ffffff" fill-rule="nonzero" opacity="1" stroke="#000000" stroke-linecap="round" stroke-linejoin="round" stroke-width="14" vectornator:layerName="Line 2"/>
</g>
</g>
</g>
<g opacity="0" vectornator:layerName="Group 11">
<path d="M629.656 128.875C611.932 128.875 597.562 143.245 597.562 160.969L597.532 193.063L742.25 193.063C759.974 193.063 774.344 178.693 774.344 160.969C774.344 143.245 759.974 128.875 742.25 128.875L629.656 128.875Z" fill="none" opacity="1" stroke="#000000" stroke-linecap="butt" stroke-linejoin="round" stroke-width="14" vectornator:layerName="Curve 3"/>
<path d="M629.656 307.89C611.932 307.89 597.562 322.26 597.562 339.984L597.534 372.078L742.25 372.078C759.974 372.078 774.344 357.708 774.344 339.984C774.344 322.26 759.974 307.89 742.25 307.89L629.656 307.89Z" fill="none" opacity="1" stroke="#000000" stroke-linecap="butt" stroke-linejoin="round" stroke-width="14" vectornator:layerName="Curve 2"/>
<path d="M803.811 217.592C821.535 217.592 835.905 231.961 835.905 249.685L835.905 304.189L790.793 281.779L691.218 281.779C673.494 281.779 659.124 267.409 659.124 249.685C659.124 231.961 673.494 217.592 691.218 217.592L803.811 217.592Z" fill="#ffffff" fill-rule="nonzero" opacity="1" stroke="#000000" stroke-linecap="butt" stroke-linejoin="round" stroke-width="14" vectornator:layerName="Curve 1"/>
</g>
<g opacity="0" vectornator:layerName="Group 15">
<g opacity="1" vectornator:layerName="Group 14">
<path d="M597.534 322.078C597.534 314.346 603.802 308.078 611.534 308.078L647.534 308.078C655.266 308.078 661.534 314.346 661.534 322.078L661.534 358.078C661.534 365.81 655.266 372.078 647.534 372.078L611.534 372.078C603.802 372.078 597.534 365.81 597.534 358.078L597.534 322.078Z" fill="#ffffff" fill-rule="nonzero" opacity="1" stroke="#000000" stroke-linecap="butt" stroke-linejoin="round" stroke-width="14" vectornator:layerName="Rectangle 4"/>
<path d="M684.719 322.078C684.719 314.346 690.987 308.078 698.719 308.078L734.719 308.078C742.451 308.078 748.719 314.346 748.719 322.078L748.719 358.078C748.719 365.81 742.451 372.078 734.719 372.078L698.719 372.078C690.987 372.078 684.719 365.81 684.719 358.078L684.719 322.078Z" fill="#ffffff" fill-rule="nonzero" opacity="1" stroke="#000000" stroke-linecap="butt" stroke-linejoin="round" stroke-width="14" vectornator:layerName="Rectangle 5"/>
<path d="M771.905 322.078C771.905 314.346 778.173 308.078 785.905 308.078L821.905 308.078C829.637 308.078 835.905 314.346 835.905 322.078L835.905 358.078C835.905 365.81 829.637 372.078 821.905 372.078L785.905 372.078C778.173 372.078 771.905 365.81 771.905 358.078L771.905 322.078Z" fill="none" opacity="1" stroke="#000000" stroke-linecap="butt" stroke-linejoin="round" stroke-width="14" vectornator:layerName="Rectangle 6"/>
</g>
<g opacity="1" vectornator:layerName="Group 13">
<path d="M597.534 232.476C597.534 224.744 603.802 218.476 611.534 218.476L647.534 218.476C655.266 218.476 661.534 224.744 661.534 232.476L661.534 268.476C661.534 276.208 655.266 282.476 647.534 282.476L611.534 282.476C603.802 282.476 597.534 276.208 597.534 268.476L597.534 232.476Z" fill="#ffffff" fill-rule="nonzero" opacity="1" stroke="#000000" stroke-linecap="butt" stroke-linejoin="round" stroke-width="14" vectornator:layerName="Rectangle 7"/>
<path d="M684.719 232.476C684.719 224.744 690.987 218.476 698.719 218.476L734.719 218.476C742.451 218.476 748.719 224.744 748.719 232.476L748.719 268.476C748.719 276.208 742.451 282.476 734.719 282.476L698.719 282.476C690.987 282.476 684.719 276.208 684.719 268.476L684.719 232.476Z" fill="none" opacity="1" stroke="#000000" stroke-linecap="butt" stroke-linejoin="round" stroke-width="14" vectornator:layerName="Rectangle 8"/>
<path d="M771.905 232.476C771.905 224.744 778.173 218.476 785.905 218.476L821.905 218.476C829.637 218.476 835.905 224.744 835.905 232.476L835.905 268.476C835.905 276.208 829.637 282.476 821.905 282.476L785.905 282.476C778.173 282.476 771.905 276.208 771.905 268.476L771.905 232.476Z" fill="#ffffff" fill-rule="nonzero" opacity="1" stroke="#000000" stroke-linecap="butt" stroke-linejoin="round" stroke-width="14" vectornator:layerName="Rectangle 9"/>
</g>
<g opacity="1" vectornator:layerName="Group 12">
<path d="M597.534 142.875C597.534 135.143 603.802 128.875 611.534 128.875L647.534 128.875C655.266 128.875 661.534 135.143 661.534 142.875L661.534 178.875C661.534 186.607 655.266 192.875 647.534 192.875L611.534 192.875C603.802 192.875 597.534 186.607 597.534 178.875L597.534 142.875Z" fill="none" opacity="1" stroke="#000000" stroke-linecap="butt" stroke-linejoin="round" stroke-width="14" vectornator:layerName="Rectangle 2"/>
<path d="M684.719 142.875C684.719 135.143 690.987 128.875 698.719 128.875L734.719 128.875C742.451 128.875 748.719 135.143 748.719 142.875L748.719 178.875C748.719 186.607 742.451 192.875 734.719 192.875L698.719 192.875C690.987 192.875 684.719 186.607 684.719 178.875L684.719 142.875Z" fill="none" opacity="1" stroke="#000000" stroke-linecap="butt" stroke-linejoin="round" stroke-width="14" vectornator:layerName="Rectangle 3"/>
<path d="M771.905 142.875C771.905 135.143 778.173 128.875 785.905 128.875L821.905 128.875C829.637 128.875 835.905 135.143 835.905 142.875L835.905 178.875C835.905 186.607 829.637 192.875 821.905 192.875L785.905 192.875C778.173 192.875 771.905 186.607 771.905 178.875L771.905 142.875Z" fill="none" opacity="1" stroke="#000000" stroke-linecap="butt" stroke-linejoin="round" stroke-width="14" vectornator:layerName="Rectangle 1"/>
</g>
</g>
<g fill="#ffffff" opacity="0" stroke="none" vectornator:layerName="Text 1">
<path d="M332.191 233.771C332.191 238.101 331.536 242.216 330.226 246.119C328.916 250.021 326.851 253.553 324.031 256.714C321.211 259.876 317.608 262.639 313.221 265.003C308.835 267.367 303.537 269.176 297.328 270.429C297.328 271.625 297.613 272.466 298.182 272.95C298.752 273.434 299.436 273.676 300.233 273.676C301.714 273.676 303.523 273.42 305.659 272.907C307.795 272.394 309.989 271.654 312.239 270.685C314.489 269.717 316.682 268.563 318.818 267.225C320.955 265.886 322.792 264.391 324.33 262.739C327.064 265.473 329.101 268.748 330.439 272.565C331.778 276.382 332.448 280.313 332.448 284.357C332.448 288.288 331.821 292.076 330.568 295.722C329.314 299.368 327.406 302.472 324.843 305.036L248.024 305.036C243.637 298.542 241.444 291.165 241.444 282.905C241.444 279.487 241.814 276.054 242.555 272.608C243.296 269.161 244.463 266.043 246.058 263.251C251.356 262.226 256.64 260.702 261.909 258.68C267.179 256.657 271.907 254.322 276.094 251.673C280.281 249.024 283.685 246.104 286.305 242.914C288.925 239.724 290.236 236.449 290.236 233.088C290.236 231.436 289.865 230.054 289.125 228.943C288.384 227.833 287.302 227.277 285.878 227.277C284.283 227.277 283.186 227.776 282.588 228.772C281.99 229.769 281.691 230.838 281.691 231.977C281.691 233.116 281.947 234.255 282.46 235.395C282.972 236.534 283.713 237.446 284.681 238.129C283.143 240.408 281.206 242.53 278.871 244.495C276.535 246.46 274.015 248.255 271.309 249.878C268.603 251.502 265.811 252.926 262.935 254.151C260.058 255.376 257.309 256.358 254.689 257.099C249.79 253.852 246.03 249.907 243.409 245.264C240.789 240.621 239.479 235.366 239.479 229.499C239.479 223.688 240.704 218.519 243.153 213.99C245.603 209.461 248.907 205.658 253.065 202.582C257.224 199.506 262.066 197.171 267.592 195.575C273.117 193.98 278.928 193.183 285.023 193.183C291.46 193.183 297.542 194.066 303.267 195.832C308.992 197.598 313.99 200.204 318.263 203.65C322.535 207.097 325.925 211.341 328.431 216.382C330.938 221.424 332.191 227.22 332.191 233.771Z"/>
<path d="M385.341 307.258C377.992 307.258 371.298 306.047 365.26 303.626C359.222 301.205 354.052 297.602 349.751 292.817C345.45 288.032 342.118 282.107 339.753 275.043C337.389 267.979 336.207 259.776 336.207 250.434C336.207 241.49 337.432 233.458 339.882 226.337C342.331 219.216 345.749 213.178 350.136 208.222C354.522 203.266 359.706 199.463 365.687 196.814C371.669 194.166 378.22 192.841 385.341 192.841C392.404 192.841 398.941 194.166 404.951 196.814C410.961 199.463 416.159 203.266 420.546 208.222C424.932 213.178 428.35 219.216 430.8 226.337C433.249 233.458 434.474 241.49 434.474 250.434C434.474 259.776 433.292 267.979 430.928 275.043C428.564 282.107 425.231 288.032 420.93 292.817C416.629 297.602 411.46 301.205 405.421 303.626C399.383 306.047 392.689 307.258 385.341 307.258ZM402.43 270.514C401.747 270.002 400.778 269.176 399.525 268.036C398.272 266.897 396.89 265.558 395.381 264.02C393.871 262.482 392.305 260.787 390.681 258.936C389.058 257.085 387.534 255.191 386.11 253.254C384.913 251.602 383.689 249.75 382.435 247.699C381.182 245.649 380.014 243.641 378.932 241.675C377.85 239.71 376.91 237.93 376.112 236.335C375.315 234.74 374.802 233.543 374.574 232.746C372.808 232.746 371.925 233.771 371.925 235.822C371.925 236.62 372.167 237.688 372.651 239.026C373.136 240.365 373.805 241.889 374.659 243.598C375.514 245.307 376.539 247.13 377.736 249.067C378.932 251.004 380.242 252.94 381.666 254.877L382.863 256.501C384.685 259.007 386.466 261.257 388.203 263.251C389.941 265.245 391.564 266.926 393.074 268.293C394.583 269.66 395.936 270.714 397.133 271.454C398.329 272.195 399.326 272.565 400.123 272.565C400.579 272.565 401.049 272.423 401.533 272.138C402.017 271.853 402.317 271.312 402.43 270.514Z"/>
<path d="M479.591 291.791L486.512 291.791C488.164 291.791 489.432 291.649 490.315 291.364C491.198 291.079 491.639 290.424 491.639 289.399C491.639 289.114 491.625 288.872 491.597 288.672C491.568 288.473 491.469 288.174 491.298 287.775L465.407 287.775C460.337 287.775 455.993 286.978 452.376 285.383C448.758 283.788 445.767 281.594 443.403 278.803C441.039 276.012 439.302 272.765 438.191 269.062C437.08 265.359 436.525 261.371 436.525 257.099C436.525 255.105 436.61 253.069 436.781 250.989C436.952 248.91 437.265 246.817 437.721 244.709C442.563 240.55 446.878 236.434 450.667 232.361C454.455 228.288 457.958 224.172 461.177 220.014C464.395 215.855 467.415 211.64 470.234 207.367C473.054 203.095 475.945 198.68 478.907 194.123L500.697 194.123C504.172 194.123 507.391 194.607 510.353 195.575C513.315 196.544 515.879 197.954 518.043 199.805C520.208 201.657 521.888 203.907 523.085 206.556C524.281 209.205 524.879 212.238 524.879 215.656L524.879 248.298L523.085 248.298C521.775 248.298 520.835 248.54 520.265 249.024C519.695 249.508 519.41 250.234 519.41 251.203L519.41 252.314L533.168 252.314C534.079 254.592 534.806 257.256 535.347 260.303C535.888 263.351 536.158 266.413 536.158 269.489C536.158 271.54 535.945 273.548 535.518 275.513C535.09 277.479 534.421 279.259 533.51 280.854C532.598 282.449 531.43 283.83 530.006 284.998C528.582 286.166 526.845 286.978 524.794 287.433L524.794 300.507C521.547 302.843 517.858 304.58 513.728 305.72C509.598 306.859 505.397 307.428 501.124 307.428C497.137 307.428 493.277 306.902 489.546 305.848C485.815 304.794 482.496 303.185 479.591 301.02L479.591 291.791ZM478.737 253.681L487.88 253.681L487.88 242.231L486 242.231C485.202 243.826 484.234 245.464 483.095 247.144C481.955 248.825 480.503 250.462 478.737 252.057L478.737 253.681Z"/>
<path d="M559.828 255.817C560.625 255.817 561.238 255.532 561.665 254.963C562.092 254.393 562.306 253.709 562.306 252.912C560.54 252.228 558.546 251.288 556.324 250.092C554.103 248.896 552.009 247.343 550.044 245.435C548.079 243.527 546.412 241.191 545.045 238.428C543.678 235.665 542.994 232.376 542.994 228.559C542.994 223.432 544.048 218.689 546.156 214.332C548.264 209.974 551.269 206.185 555.171 202.967C559.073 199.748 563.787 197.242 569.313 195.447C574.838 193.653 581.048 192.756 587.941 192.756C594.264 192.756 600.217 193.596 605.8 195.276C611.382 196.957 616.239 199.335 620.369 202.411C624.499 205.488 627.76 209.148 630.153 213.392C632.545 217.636 633.741 222.321 633.741 227.448C633.741 230.296 633.286 233.031 632.374 235.651C631.463 238.272 630.153 240.237 628.444 241.547C627.988 241.262 627.347 240.849 626.521 240.308C625.695 239.767 624.769 239.24 623.744 238.727C622.719 238.215 621.679 237.759 620.625 237.36C619.571 236.961 618.617 236.762 617.762 236.762C615.997 236.762 615.114 237.73 615.114 239.667C618.702 240.864 621.935 242.33 624.812 244.068C627.689 245.805 630.138 247.885 632.161 250.306C634.183 252.727 635.75 255.561 636.86 258.808C637.971 262.055 638.527 265.758 638.527 269.916C638.527 276.012 637.231 281.381 634.639 286.023C632.047 290.666 628.543 294.568 624.128 297.73C619.714 300.892 614.572 303.284 608.705 304.908C602.837 306.531 596.657 307.343 590.162 307.343C582.7 307.343 575.892 306.46 569.74 304.694C563.588 302.928 558.304 300.407 553.889 297.132C549.474 293.856 546.042 289.854 543.593 285.126C541.143 280.398 539.918 275.043 539.918 269.062C539.918 266.327 540.16 263.892 540.645 261.756C541.129 259.62 541.741 257.754 542.482 256.159C543.222 254.564 544.048 253.211 544.96 252.1C545.871 250.989 546.726 250.092 547.523 249.408C548.15 250.149 549.019 250.89 550.129 251.63C551.24 252.371 552.394 253.054 553.59 253.681C554.786 254.308 555.954 254.82 557.094 255.219C558.233 255.618 559.144 255.817 559.828 255.817ZM586.83 264.704C586.146 265.331 585.662 265.857 585.377 266.285C585.092 266.712 584.95 267.296 584.95 268.036C584.95 269.005 585.377 269.788 586.232 270.386C587.086 270.984 588.311 271.283 589.906 271.283C591.387 271.283 592.555 271.013 593.409 270.472C594.264 269.931 594.691 269.119 594.691 268.036C594.691 267.638 594.449 267.267 593.965 266.926C593.481 266.584 592.868 266.285 592.128 266.028C591.387 265.772 590.547 265.53 589.607 265.302C588.667 265.074 587.741 264.875 586.83 264.704ZM591.957 234.882C592.583 234.255 592.982 233.7 593.153 233.216C593.324 232.732 593.409 232.119 593.409 231.379C593.409 230.41 592.982 229.627 592.128 229.029C591.273 228.431 590.048 228.132 588.453 228.132C586.972 228.132 585.804 228.402 584.95 228.943C584.095 229.485 583.668 230.296 583.668 231.379C583.668 231.891 583.925 232.333 584.437 232.703C584.95 233.073 585.619 233.387 586.445 233.643C587.271 233.899 588.169 234.127 589.137 234.327C590.105 234.526 591.045 234.711 591.957 234.882Z"/>
</g>
<g opacity="1" vectornator:layerName="Group 17">
<path d="M139.286 254.716C132.894 254.716 127.112 253.759 121.94 251.846C116.768 249.933 112.342 247.136 108.663 243.457C104.984 239.778 102.145 235.257 100.148 229.896C98.1506 224.534 97.152 218.427 97.152 211.573C97.152 204.508 98.2978 198.359 100.59 193.123C102.881 187.888 105.93 183.525 109.735 180.035C113.541 176.545 117.914 173.938 122.855 172.214C127.796 170.49 132.915 169.628 138.214 169.628C143.554 169.628 148.453 170.322 152.91 171.709C157.367 173.097 161.183 174.989 164.358 177.386C167.533 179.783 170.003 182.6 171.769 185.838C173.535 189.076 174.418 192.566 174.418 196.309C174.418 199.294 173.935 201.838 172.968 203.941C172.001 206.043 170.665 207.757 168.962 209.081C167.259 210.406 165.21 211.383 162.813 212.014C160.416 212.645 157.809 212.96 154.991 212.96C153.225 212.96 151.47 212.719 149.725 212.235C147.98 211.751 146.371 211.152 144.899 210.437C143.428 209.722 142.177 208.955 141.147 208.135C140.116 207.315 139.454 206.59 139.16 205.959C139.16 204.866 139.17 203.604 139.191 202.175C139.212 200.745 139.265 199.294 139.349 197.822C139.223 197.78 139.065 197.759 138.876 197.759C138.687 197.759 138.55 197.759 138.466 197.759C137.835 197.759 137.341 197.938 136.984 198.295C136.626 198.653 136.342 199.284 136.132 200.188C135.922 201.092 135.785 202.322 135.722 203.878C135.659 205.433 135.628 207.41 135.628 209.807C135.628 213.044 135.701 215.809 135.848 218.101C135.995 220.393 136.195 222.264 136.447 223.715C136.7 225.165 137.015 226.227 137.394 226.9C137.772 227.573 138.193 227.909 138.655 227.909C139.076 227.909 139.454 227.804 139.79 227.594L139.79 221.854C141.262 220.845 143.07 219.941 145.215 219.142C147.359 218.343 149.641 217.659 152.058 217.092C154.476 216.524 156.968 216.082 159.533 215.767C162.098 215.452 164.537 215.294 166.849 215.294C167.985 216.471 169.026 217.964 169.972 219.772C170.918 221.58 171.738 223.525 172.432 225.607C173.125 227.688 173.683 229.791 174.103 231.914C174.524 234.038 174.755 235.983 174.797 237.749C173.998 239.304 172.631 241.06 170.697 243.015C168.763 244.971 166.303 246.821 163.317 248.566C160.332 250.311 156.821 251.772 152.784 252.95C148.747 254.127 144.248 254.716 139.286 254.716Z" fill="#ffffff" fill-rule="nonzero" opacity="1" stroke="none"/>
<path d="M190.376 177.323C192.016 176.272 193.866 175.315 195.927 174.453C197.987 173.591 200.163 172.866 202.455 172.277C204.747 171.688 207.123 171.236 209.583 170.921C212.042 170.606 214.513 170.448 216.994 170.448C220.274 170.448 223.522 170.742 226.739 171.331C229.956 171.92 232.889 172.845 235.538 174.106C238.187 175.368 240.458 176.997 242.35 178.995C244.242 180.992 245.525 183.378 246.197 186.154L260.578 245.633C258.644 248.114 255.932 250.153 252.442 251.751C248.952 253.349 244.536 254.148 239.196 254.148C236.841 254.148 234.634 253.938 232.573 253.517C230.513 253.097 228.694 252.477 227.117 251.657C225.54 250.837 224.237 249.806 223.207 248.566C222.176 247.325 221.514 245.864 221.22 244.182L219.832 236.487C221.136 236.445 222.429 236.287 223.711 236.014C224.994 235.741 226.15 235.404 227.18 235.005C228.211 234.605 229.052 234.153 229.703 233.649C230.355 233.144 230.681 232.64 230.681 232.135C230.681 231.462 230.408 230.916 229.861 230.495C229.104 231.042 228.221 231.536 227.212 231.977C226.203 232.419 225.141 232.787 224.027 233.081C222.912 233.375 221.798 233.596 220.684 233.743C219.569 233.891 218.529 233.964 217.562 233.964C215.753 233.964 214.145 233.849 212.736 233.617C211.328 233.386 210.098 233.102 209.046 232.766C207.995 232.429 207.091 232.061 206.334 231.662C205.577 231.262 204.947 230.873 204.442 230.495C204.274 230.705 204.127 230.947 204 231.22C203.874 231.494 203.811 231.799 203.811 232.135C203.811 232.766 204.137 233.344 204.789 233.87C205.441 234.395 206.313 234.858 207.406 235.257C208.5 235.657 209.751 235.983 211.159 236.235C212.568 236.487 214.05 236.655 215.606 236.739C215.859 239.683 216.142 242.027 216.458 243.772C216.773 245.517 217.078 246.621 217.372 247.084C216.994 247.799 216.247 248.566 215.133 249.386C214.019 250.206 212.631 250.973 210.97 251.688C209.309 252.403 207.417 252.992 205.293 253.454C203.17 253.917 200.91 254.148 198.513 254.148C195.527 254.148 192.71 253.812 190.061 253.139C187.412 252.466 185.099 251.53 183.123 250.332C181.146 249.134 179.57 247.683 178.392 245.98C177.215 244.277 176.626 242.374 176.626 240.272C176.626 239.809 176.647 239.336 176.689 238.852C176.731 238.369 176.815 237.875 176.941 237.37L190.376 177.323ZM220.021 209.807C219.559 207.284 219.191 205.265 218.918 203.751C218.644 202.238 218.371 201.092 218.098 200.314C217.824 199.536 217.53 199.031 217.215 198.8C216.899 198.569 216.51 198.453 216.048 198.453C215.753 198.453 215.48 198.495 215.228 198.579C214.975 198.663 214.744 198.747 214.534 198.832L216.931 211.573C217.099 211.741 217.341 211.867 217.656 211.951C217.972 212.035 218.255 212.077 218.508 212.077C218.886 212.077 219.244 212.025 219.58 211.92C219.916 211.814 220.169 211.72 220.337 211.636L220.021 209.807Z" fill="#ffffff" fill-rule="nonzero" opacity="1" stroke="none"/>
<path d="M307.254 248.219C305.53 249.733 303.08 251.099 299.906 252.319C296.731 253.538 292.915 254.148 288.457 254.148C286.103 254.148 283.832 253.896 281.645 253.391C279.459 252.887 277.535 252.119 275.874 251.089C274.213 250.059 272.889 248.755 271.9 247.178C270.912 245.601 270.418 243.741 270.418 241.596L270.418 200.976L255.722 200.976C254.124 198.663 252.967 196.361 252.253 194.069C251.538 191.778 251.18 189.349 251.18 186.784C251.18 184.85 251.349 183.094 251.685 181.518C252.021 179.941 252.463 178.532 253.009 177.292C253.556 176.051 254.176 174.958 254.87 174.012C255.564 173.066 256.268 172.277 256.983 171.646L322.202 171.646C323.38 173.455 324.378 175.704 325.198 178.395C326.018 181.087 326.428 183.799 326.428 186.532C326.428 189.097 326.124 191.294 325.514 193.123C324.904 194.952 324.063 196.445 322.991 197.602C321.919 198.758 320.647 199.609 319.175 200.156C317.703 200.703 316.084 200.976 314.318 200.976L295.837 200.976C295.711 201.312 295.648 201.628 295.648 201.922C295.648 202.301 295.732 202.606 295.9 202.837C296.068 203.068 296.415 203.268 296.941 203.436C297.467 203.604 298.202 203.72 299.149 203.783C300.095 203.846 301.346 203.878 302.902 203.878L307.254 203.878L307.254 248.219Z" fill="#ffffff" fill-rule="nonzero" opacity="1" stroke="none"/>
<path d="M367.553 254.716C361.162 254.716 355.38 253.759 350.208 251.846C345.035 249.933 340.61 247.136 336.93 243.457C333.251 239.778 330.413 235.257 328.415 229.896C326.418 224.534 325.419 218.427 325.419 211.573C325.419 204.508 326.565 198.359 328.857 193.123C331.148 187.888 334.197 183.525 338.003 180.035C341.808 176.545 346.181 173.938 351.122 172.214C356.063 170.49 361.183 169.628 366.481 169.628C371.821 169.628 376.72 170.322 381.177 171.709C385.635 173.097 389.451 174.989 392.625 177.386C395.8 179.783 398.27 182.6 400.037 185.838C401.803 189.076 402.686 192.566 402.686 196.309C402.686 199.294 402.202 201.838 401.235 203.941C400.268 206.043 398.933 207.757 397.23 209.081C395.527 210.406 393.477 211.383 391.08 212.014C388.683 212.645 386.076 212.96 383.259 212.96C381.493 212.96 379.737 212.719 377.992 212.235C376.247 211.751 374.638 211.152 373.167 210.437C371.695 209.722 370.444 208.955 369.414 208.135C368.384 207.315 367.721 206.59 367.427 205.959C367.427 204.866 367.437 203.604 367.458 202.175C367.48 200.745 367.532 199.294 367.616 197.822C367.49 197.78 367.332 197.759 367.143 197.759C366.954 197.759 366.817 197.759 366.733 197.759C366.102 197.759 365.608 197.938 365.251 198.295C364.893 198.653 364.61 199.284 364.399 200.188C364.189 201.092 364.052 202.322 363.989 203.878C363.926 205.433 363.895 207.41 363.895 209.807C363.895 213.044 363.968 215.809 364.116 218.101C364.263 220.393 364.462 222.264 364.715 223.715C364.967 225.165 365.282 226.227 365.661 226.9C366.039 227.573 366.46 227.909 366.922 227.909C367.343 227.909 367.721 227.804 368.058 227.594L368.058 221.854C369.529 220.845 371.338 219.941 373.482 219.142C375.627 218.343 377.908 217.659 380.326 217.092C382.744 216.524 385.235 216.082 387.8 215.767C390.365 215.452 392.804 215.294 395.117 215.294C396.252 216.471 397.293 217.964 398.239 219.772C399.185 221.58 400.005 223.525 400.699 225.607C401.393 227.688 401.95 229.791 402.37 231.914C402.791 234.038 403.022 235.983 403.064 237.749C402.265 239.304 400.899 241.06 398.964 243.015C397.03 244.971 394.57 246.821 391.585 248.566C388.599 250.311 385.088 251.772 381.051 252.95C377.014 254.127 372.515 254.716 367.553 254.716Z" fill="#ffffff" fill-rule="nonzero" opacity="1" stroke="none"/>
<path d="M483.674 248.85C480.814 250.994 477.808 252.413 474.654 253.107C471.5 253.801 468.473 254.148 465.571 254.148C462.796 254.148 460.262 253.854 457.971 253.265C455.679 252.676 453.703 251.814 452.042 250.679C450.381 249.544 449.098 248.124 448.194 246.421C447.29 244.718 446.838 242.732 446.838 240.461L446.838 227.972L451.316 227.972C452.283 227.972 453.03 227.898 453.555 227.751C454.081 227.604 454.47 227.404 454.722 227.152C454.975 226.9 455.122 226.595 455.164 226.238C455.206 225.88 455.227 225.512 455.227 225.134L435.421 225.134C435.421 225.512 435.442 225.88 435.485 226.238C435.527 226.595 435.653 226.9 435.863 227.152C436.073 227.404 436.399 227.604 436.841 227.751C437.282 227.898 437.902 227.972 438.701 227.972L443.495 227.972L443.495 248.85C441.729 249.985 440.036 250.9 438.417 251.594C436.799 252.287 435.232 252.823 433.718 253.202C432.205 253.58 430.754 253.833 429.366 253.959C427.979 254.085 426.654 254.148 425.393 254.148C422.617 254.148 420.084 253.854 417.792 253.265C415.5 252.676 413.524 251.814 411.863 250.679C410.202 249.544 408.92 248.124 408.016 246.421C407.111 244.718 406.659 242.732 406.659 240.461L406.659 177.702C408.888 175.347 411.621 173.56 414.859 172.34C418.097 171.121 421.419 170.511 424.825 170.511C427.18 170.511 429.482 170.826 431.732 171.457C433.981 172.088 435.979 173.045 437.724 174.327C439.469 175.61 440.867 177.239 441.918 179.215C442.969 181.192 443.495 183.504 443.495 186.154L443.495 197.381L451.505 197.381C451.505 196.203 451.295 195.436 450.875 195.079C450.454 194.721 449.823 194.542 448.983 194.542L446.838 194.542L446.838 177.702C449.067 175.347 451.8 173.56 455.038 172.34C458.276 171.121 461.597 170.511 465.003 170.511C467.358 170.511 469.66 170.826 471.91 171.457C474.16 172.088 476.157 173.045 477.902 174.327C479.647 175.61 481.045 177.239 482.097 179.215C483.148 181.192 483.674 183.504 483.674 186.154L483.674 248.85Z" fill="#ffffff" fill-rule="nonzero" opacity="1" stroke="none"/>
<path d="M147.296 334.114C148.768 333.777 150.366 333.083 152.09 332.032C153.814 330.981 155.475 329.278 157.073 326.923C157.788 325.83 158.145 324.884 158.145 324.085C158.145 322.991 157.599 322.445 156.505 322.445C156.421 322.445 156.348 322.455 156.284 322.476C156.221 322.497 156.148 322.508 156.064 322.508C153.078 328.689 148.306 331.78 141.746 331.78C140.106 331.78 138.582 331.612 137.173 331.275C135.764 330.939 134.45 330.392 133.231 329.635C132.011 328.878 130.855 327.869 129.762 326.608C128.668 325.346 127.617 323.79 126.608 321.94L126.229 321.94C125.767 321.94 125.367 322.045 125.031 322.256C124.695 322.466 124.526 322.844 124.526 323.391C124.526 324.106 124.779 324.863 125.283 325.662C126.208 327.175 127.207 328.479 128.279 329.572C129.352 330.666 130.445 331.58 131.559 332.316C132.674 333.052 133.777 333.609 134.871 333.988C135.964 334.366 136.952 334.597 137.835 334.681L137.331 346.602C136.237 347.317 135.091 347.969 133.893 348.558C132.695 349.146 131.338 349.641 129.825 350.04C128.311 350.439 126.597 350.744 124.684 350.955C122.771 351.165 120.574 351.27 118.093 351.27C115.738 351.27 113.278 351.039 110.713 350.576C108.148 350.114 105.793 349.346 103.649 348.274C101.504 347.202 99.7275 345.825 98.3188 344.143C96.9102 342.461 96.2058 340.379 96.2058 337.898C96.2058 336.595 96.2689 334.818 96.3951 332.568C96.5212 330.319 96.6999 327.764 96.9312 324.905C97.1625 322.045 97.4253 318.955 97.7196 315.633C98.014 312.311 98.3294 308.957 98.6658 305.572C99.0022 302.187 99.3386 298.834 99.6749 295.512C100.011 292.19 100.348 289.099 100.684 286.24C101.021 283.381 101.325 280.837 101.599 278.608C101.872 276.379 102.114 274.634 102.324 273.373C103.544 272.279 104.931 271.354 106.487 270.597C108.043 269.841 109.672 269.241 111.375 268.8C113.078 268.358 114.792 268.043 116.516 267.854C118.24 267.664 119.901 267.57 121.499 267.57C124.358 267.57 127.165 267.885 129.919 268.516C132.674 269.147 134.955 269.967 136.763 270.976L140.232 282.582L138.024 291.854C137.94 292.19 137.877 292.505 137.835 292.8C137.793 293.094 137.772 293.388 137.772 293.683C137.772 295.112 138.613 295.869 140.295 295.953L146.287 271.039C147.002 270.661 147.917 270.261 149.031 269.841C150.145 269.42 151.386 269.042 152.752 268.705C154.119 268.369 155.601 268.095 157.199 267.885C158.797 267.675 160.437 267.57 162.119 267.57C165.104 267.57 167.722 267.812 169.972 268.295C172.221 268.779 174.114 269.557 175.648 270.629C177.183 271.701 178.392 273.099 179.275 274.823C180.158 276.548 180.747 278.671 181.041 281.194C181.336 283.843 181.704 287.039 182.145 290.781C182.587 294.524 183.039 298.487 183.501 302.671C183.964 306.855 184.426 311.091 184.889 315.38C185.351 319.67 185.761 323.696 186.119 327.459C186.476 331.223 186.771 334.555 187.002 337.457C187.233 340.358 187.349 342.503 187.349 343.89C182.681 348.81 175.953 351.27 167.165 351.27C164.39 351.27 161.846 351.039 159.533 350.576C157.22 350.114 155.233 349.409 153.572 348.463C151.911 347.517 150.587 346.35 149.599 344.963C148.61 343.575 148.032 341.935 147.864 340.043L147.296 334.114Z" fill="#ffffff" fill-rule="nonzero" opacity="1" stroke="none"/>
<path d="M229.609 352.153C226.077 352.153 222.586 351.785 219.138 351.049C215.69 350.313 212.431 349.189 209.362 347.675C206.292 346.161 203.464 344.248 200.878 341.935C198.292 339.622 196.053 336.889 194.161 333.735C192.269 330.581 190.797 326.986 189.746 322.949C188.694 318.913 188.169 314.413 188.169 309.451C188.169 302.093 189.304 295.733 191.575 290.371C193.845 285.01 196.873 280.574 200.658 277.063C204.442 273.551 208.805 270.955 213.746 269.273C218.686 267.591 223.848 266.75 229.23 266.75C235.622 266.75 241.362 267.791 246.45 269.872C251.538 271.954 255.848 274.866 259.38 278.608C262.912 282.35 265.624 286.85 267.517 292.106C269.409 297.362 270.355 303.144 270.355 309.451C270.355 316.936 269.293 323.37 267.17 328.752C265.046 334.135 262.145 338.56 258.465 342.03C254.786 345.499 250.476 348.053 245.535 349.693C240.594 351.333 235.286 352.153 229.609 352.153ZM232.132 306.613C232.132 304.595 232.09 302.86 232.006 301.409C231.922 299.959 231.774 298.75 231.564 297.783C231.354 296.9 231.07 296.311 230.713 296.017C230.355 295.722 229.945 295.575 229.483 295.575C229.02 295.575 228.663 295.649 228.41 295.796C228.158 295.943 227.948 296.08 227.78 296.206C227.822 296.963 227.885 297.667 227.969 298.319C228.053 298.971 228.127 299.706 228.19 300.526C228.253 301.346 228.305 302.292 228.347 303.365C228.389 304.437 228.41 305.751 228.41 307.307L228.41 311.407C228.41 312.963 228.389 314.277 228.347 315.349C228.305 316.421 228.253 317.367 228.19 318.187C228.127 319.007 228.053 319.743 227.969 320.395C227.885 321.047 227.822 321.751 227.78 322.508C227.948 322.634 228.158 322.771 228.41 322.918C228.663 323.065 229.02 323.139 229.483 323.139C229.945 323.139 230.355 322.991 230.713 322.697C231.07 322.403 231.354 321.814 231.564 320.931C231.774 319.964 231.922 318.755 232.006 317.304C232.09 315.854 232.132 314.119 232.132 312.101L232.132 306.613Z" fill="#ffffff" fill-rule="nonzero" opacity="1" stroke="none"/>
<path d="M312.3 273.12C313.393 272.195 314.623 271.386 315.99 270.692C317.356 269.998 318.796 269.42 320.31 268.958C321.824 268.495 323.38 268.148 324.978 267.917C326.576 267.686 328.131 267.57 329.645 267.57C332 267.57 334.302 267.791 336.552 268.232C338.802 268.674 340.799 269.42 342.544 270.471C344.289 271.523 345.687 272.931 346.738 274.697C347.79 276.463 348.315 278.671 348.315 281.32L348.315 341.052C348.315 342.944 347.842 344.542 346.896 345.846C345.95 347.149 344.689 348.19 343.112 348.968C341.535 349.746 339.727 350.303 337.687 350.639C335.648 350.976 333.535 351.144 331.348 351.144C330.003 351.144 328.647 351.07 327.28 350.923C325.913 350.776 324.62 350.555 323.401 350.261C322.181 349.966 321.046 349.63 319.995 349.252C318.944 348.873 318.039 348.453 317.283 347.99C315.474 345.677 313.845 343.449 312.394 341.304C310.944 339.16 309.608 337.099 308.389 335.123C307.17 333.147 306.034 331.265 304.983 329.478C303.932 327.691 302.923 325.998 301.955 324.4C301.241 324.484 300.757 324.705 300.505 325.062C300.252 325.42 300.126 325.851 300.126 326.355C300.126 326.986 300.294 327.606 300.631 328.216C300.967 328.826 301.409 329.572 301.955 330.455L309.84 343.196L309.84 346.539C309.209 346.96 308.41 347.443 307.443 347.99C306.476 348.537 305.288 349.052 303.879 349.535C302.471 350.019 300.841 350.429 298.991 350.765C297.141 351.102 295.017 351.27 292.62 351.27C289.887 351.27 287.364 350.997 285.051 350.45C282.739 349.903 280.741 349.094 279.059 348.022C277.377 346.949 276.074 345.614 275.149 344.016C274.224 342.418 273.761 340.568 273.761 338.466L273.761 275.265C273.761 274.214 274.224 273.215 275.149 272.269C276.074 271.323 277.335 270.513 278.933 269.841C280.531 269.168 282.402 268.632 284.547 268.232C286.691 267.833 288.983 267.633 291.422 267.633C294.197 267.633 296.762 267.969 299.117 268.642C301.472 269.315 303.259 270.135 304.478 271.102C305.404 272.279 306.413 273.678 307.506 275.297C308.599 276.915 309.756 278.703 310.975 280.658C312.195 282.613 313.467 284.695 314.791 286.902C316.116 289.11 317.472 291.37 318.859 293.683C319.28 293.683 319.69 293.546 320.089 293.273C320.489 292.999 320.689 292.547 320.689 291.917C320.689 291.454 320.52 290.897 320.184 290.245C319.848 289.593 319.49 288.952 319.112 288.321L312.3 276.59L312.3 273.12Z" fill="#ffffff" fill-rule="nonzero" opacity="1" stroke="none"/>
<path d="M417.761 268.768C418.307 269.651 418.812 270.629 419.274 271.701C419.737 272.774 420.115 273.888 420.41 275.044C420.704 276.201 420.935 277.357 421.103 278.513C421.272 279.67 421.356 280.752 421.356 281.762C421.356 286.093 420.515 289.31 418.833 291.412C417.151 293.515 414.838 294.566 411.895 294.566L386.475 294.566C384.92 294.566 384.142 295.176 384.142 296.395C384.142 296.479 384.142 296.647 384.142 296.9C384.142 297.152 384.184 297.32 384.268 297.404L414.418 297.404C414.796 298.035 415.153 298.781 415.49 299.643C415.826 300.505 416.11 301.409 416.341 302.356C416.573 303.302 416.762 304.269 416.909 305.257C417.056 306.245 417.13 307.181 417.13 308.064C417.13 310.587 416.877 312.847 416.373 314.844C415.868 316.842 415.196 318.492 414.355 319.796L400.667 319.796C397.093 319.796 394.139 319.89 391.805 320.08C389.472 320.269 387.632 320.511 386.286 320.805C384.941 321.099 383.995 321.425 383.448 321.783C382.901 322.14 382.628 322.508 382.628 322.886C382.628 323.223 382.681 323.538 382.786 323.832C382.891 324.127 383.133 324.379 383.511 324.589C384.562 324.253 385.635 323.959 386.728 323.706C387.821 323.454 389.041 323.254 390.386 323.107C391.732 322.96 393.235 322.844 394.896 322.76C396.557 322.676 398.481 322.634 400.667 322.634L418.391 322.634C418.854 323.307 419.316 324.053 419.779 324.873C420.241 325.693 420.651 326.639 421.009 327.712C421.366 328.784 421.661 330.014 421.892 331.401C422.123 332.789 422.239 334.387 422.239 336.195C422.239 337.33 422.155 338.539 421.987 339.822C421.818 341.104 421.566 342.376 421.23 343.638C420.893 344.899 420.452 346.098 419.905 347.233C419.358 348.369 418.707 349.357 417.95 350.198L370.707 350.198C368.226 350.198 365.913 349.893 363.769 349.283C361.624 348.673 359.753 347.727 358.155 346.445C356.557 345.162 355.296 343.543 354.37 341.588C353.445 339.633 352.983 337.288 352.983 334.555L352.983 274.571C352.983 272.553 355.317 271.081 359.984 270.156C364.652 269.231 371.779 268.768 381.366 268.768L417.761 268.768Z" fill="#ffffff" fill-rule="nonzero" opacity="1" stroke="none"/>
<path d="M452.641 329.005C447.889 325.851 443.737 322.34 440.184 318.471C436.63 314.603 433.645 310.45 431.227 306.014C428.809 301.578 426.927 296.879 425.582 291.917C424.236 286.955 423.416 281.804 423.122 276.463C424.173 274.908 425.477 273.583 427.033 272.49C428.588 271.396 430.27 270.492 432.078 269.777C433.887 269.063 435.758 268.537 437.692 268.201C439.626 267.864 441.477 267.696 443.243 267.696C446.144 267.696 448.678 267.969 450.843 268.516C453.009 269.063 454.996 269.82 456.804 270.787C457.098 271.544 457.519 272.71 458.065 274.287C458.612 275.864 459.169 277.546 459.737 279.333C460.304 281.12 460.851 282.887 461.377 284.632C461.902 286.377 462.312 287.817 462.607 288.952L459.831 301.189C459.747 301.651 459.632 302.177 459.484 302.766C459.337 303.354 459.264 303.88 459.264 304.342C459.264 304.973 459.432 305.488 459.768 305.888C460.105 306.287 460.693 306.487 461.534 306.487C461.787 305.688 462.134 304.395 462.575 302.608C463.017 300.821 463.5 298.781 464.026 296.49C464.551 294.198 465.098 291.759 465.666 289.173C466.233 286.587 466.78 284.095 467.306 281.699C467.831 279.302 468.325 277.105 468.788 275.107C469.25 273.11 469.629 271.523 469.923 270.345C471.563 269.546 473.519 268.884 475.789 268.358C478.06 267.833 480.52 267.57 483.169 267.57C486.112 267.57 488.804 267.938 491.243 268.674C493.681 269.41 495.763 270.492 497.487 271.922C499.211 273.352 500.546 275.128 501.492 277.252C502.438 279.375 502.911 281.825 502.911 284.6C502.911 289.015 502.281 293.199 501.019 297.152C499.758 301.105 498.118 304.784 496.099 308.19C494.081 311.596 491.821 314.729 489.319 317.588C486.817 320.447 484.346 322.97 481.907 325.157L481.907 345.972C480.057 347.107 478.333 348.022 476.735 348.715C475.137 349.409 473.592 349.945 472.099 350.324C470.607 350.702 469.177 350.955 467.81 351.081C466.444 351.207 465.088 351.27 463.742 351.27C460.967 351.27 458.433 351.018 456.141 350.513C453.85 350.008 451.884 349.22 450.244 348.148C448.604 347.076 447.332 345.719 446.428 344.079C445.524 342.44 445.072 340.484 445.072 338.214L445.072 327.112C445.324 327.365 445.703 327.712 446.207 328.153C446.712 328.595 447.237 329.026 447.784 329.446C448.331 329.867 448.888 330.224 449.456 330.518C450.023 330.813 450.496 330.96 450.875 330.96C451.379 330.96 451.8 330.802 452.136 330.487C452.473 330.171 452.641 329.677 452.641 329.005Z" fill="#ffffff" fill-rule="nonzero" opacity="1" stroke="none"/>
</g>
<g opacity="1" vectornator:layerName="Group 18">
<path d="M808.178 232.709L808.174 228.163C808.16 214.707 797.214 203.825 783.759 203.89L621.714 204.672C608.312 204.737 597.493 215.641 597.534 229.043L597.893 347.711C597.934 361.094 608.789 371.924 622.172 371.935L811.563 372.078C824.987 372.088 835.876 361.21 835.879 347.786L835.899 256.998C835.903 243.536 824.96 232.638 811.498 232.695L808.178 232.709Z" fill="#ffffff" fill-rule="nonzero" opacity="1" stroke="#000000" stroke-linecap="butt" stroke-linejoin="round" stroke-width="14" vectornator:layerName="Curve 3"/>
<g opacity="1" vectornator:layerName="Group 16">
<path d="M716.719 128.875C679.549 128.875 649.406 159.018 649.406 196.188C649.406 209.621 653.405 222.09 660.188 232.594L773.25 232.594C780.032 222.09 784.031 209.621 784.031 196.188C784.031 159.018 753.889 128.875 716.719 128.875Z" fill="#ffc200" fill-rule="nonzero" opacity="1" stroke="#000000" stroke-linecap="round" stroke-linejoin="round" stroke-width="14" vectornator:layerName="Curve 5"/>
<path d="M712.092 145.652L712.092 155.196L711.788 155.196C699.109 155.196 688.824 165.467 688.824 178.146C688.824 189.757 699.033 198.986 712.092 200.778L712.092 228.037C703.934 226.478 698.079 220.977 698.079 214.805L688.824 214.805C688.824 226.416 699.033 235.645 712.092 237.436L721.347 237.769L721.651 237.769C734.33 237.769 744.615 227.484 744.615 214.805C744.615 203.194 734.406 193.977 721.347 192.188L721.347 164.929C729.505 166.484 735.36 171.974 735.36 178.146L744.615 178.146C744.615 166.535 734.406 157.318 721.347 155.529L721.347 145.652L712.092 145.652ZM711.788 164.451L712.092 164.451L712.092 191.378C703.934 189.82 698.079 184.318 698.079 178.146C698.079 170.578 704.221 164.452 711.788 164.451ZM721.347 201.588C729.505 203.143 735.36 208.633 735.36 214.805C735.36 222.372 729.218 228.514 721.651 228.514L721.347 228.514L721.347 201.588Z" fill="#000000" fill-rule="nonzero" opacity="1" stroke="none" vectornator:layerName="Curve 1"/>
</g>
<path d="M808.668 232.578L618.744 233.161" fill="none" opacity="1" stroke="#000000" stroke-linecap="butt" stroke-linejoin="round" stroke-width="14" vectornator:layerName="Curve 4"/>
<path d="M798.744 287.935L835.905 287.935L835.905 314.606L798.744 314.606" fill="#ffc200" fill-rule="nonzero" opacity="1" stroke="#000000" stroke-linecap="butt" stroke-linejoin="round" stroke-width="14" vectornator:layerName="Rectangle 1"/>
<path d="M751.654 301.27C751.654 287.049 763.182 275.521 777.403 275.521C791.624 275.521 803.153 287.049 803.153 301.27C803.153 315.491 791.624 327.02 777.403 327.02C763.182 327.02 751.654 315.491 751.654 301.27Z" fill="#ffc200" fill-rule="nonzero" opacity="1" stroke="#000000" stroke-linecap="butt" stroke-linejoin="round" stroke-width="14" vectornator:layerName="Oval 1"/>
</g>
</g>
</svg>
