<?xml version="1.0" encoding="UTF-8" standalone="no"?>
<!DOCTYPE svg PUBLIC "-//W3C//DTD SVG 1.1//EN" "http://www.w3.org/Graphics/SVG/1.1/DTD/svg11.dtd">
<!-- Created with Vectornator (http://vectornator.io/) -->
<svg height="100%" stroke-miterlimit="10" style="fill-rule:nonzero;clip-rule:evenodd;stroke-linecap:round;stroke-linejoin:round;" version="1.1" viewBox="0 0 1005.82 521.781" width="100%" xml:space="preserve" xmlns="http://www.w3.org/2000/svg" xmlns:vectornator="http://vectornator.io" xmlns:xlink="http://www.w3.org/1999/xlink">
<defs/>
<g id="Layer-1" vectornator:layerName="Layer 1">
<path d="M56.6772 30.3737C32.4034 30.3738 12.7397 50.0437 12.7397 74.3112C12.7397 172.35 12.7397 368.428 12.7397 466.467C12.7397 490.741 32.4097 510.405 56.6772 510.405C259.083 510.405 663.896 510.405 866.302 510.405C890.576 510.405 910.24 490.735 910.24 466.467C910.24 463.928 910.24 460.077 910.24 456.311C923.001 456.311 940.872 456.311 951.083 456.311C974.284 456.311 993.083 437.506 993.083 414.311C993.083 347.35 993.083 213.428 993.083 146.467C993.083 123.267 974.278 104.468 951.083 104.467C940.872 104.467 923.001 104.467 910.24 104.467C910.24 94.623 910.24 81.8503 910.24 74.3112C910.24 50.0375 890.57 30.3737 866.302 30.3737C663.896 30.3737 259.083 30.3737 56.6772 30.3737Z" fill="#000000" fill-opacity="0.08" fill-rule="nonzero" opacity="1" stroke="none" vectornator:layerName="Curve 2"/>
<g opacity="1" vectornator:layerName="Group 1">
<path d="M19.7432 54.319C19.7432 33.9158 36.2833 17.3758 56.6865 17.3758L866.292 17.3758C886.695 17.3758 903.235 33.9158 903.235 54.319L903.235 446.459C903.235 466.862 886.695 483.402 866.292 483.402L56.6865 483.402C36.2833 483.402 19.7432 466.862 19.7432 446.459L19.7432 54.319Z" fill="#445069" fill-rule="nonzero" opacity="1" stroke="none" vectornator:layerName="Rectangle 1"/>
<path d="M901.963 173.944C901.963 173.944 633.795 315.918 547.925 400.546C462.055 485.173 269.483 485.173 269.483 485.173L678.73 484.496L866.78 485.134C874.333 485.159 881.713 482.869 887.925 478.572L888.374 478.261C893.857 474.468 898.21 469.262 900.974 463.195L900.974 463.195C903.209 458.29 904.343 452.955 904.297 447.564L901.963 173.944Z" fill="#252b48" fill-rule="nonzero" opacity="1" stroke="none" vectornator:layerName="Curve 2"/>
<path d="M19.7432 54.319C19.7432 33.9158 36.2833 17.3758 56.6865 17.3758L866.292 17.3758C886.695 17.3758 903.235 33.9158 903.235 54.319L903.235 446.459C903.235 466.862 886.695 483.402 866.292 483.402L56.6865 483.402C36.2833 483.402 19.7432 466.862 19.7432 446.459L19.7432 54.319Z" fill="none" opacity="1" stroke="#000000" stroke-linecap="butt" stroke-linejoin="round" stroke-width="14" vectornator:layerName="Rectangle 2"/>
<path d="M162.789 55.3737L55.905 55.3737L55.905 143.607" fill="none" opacity="1" stroke="#637599" stroke-linecap="round" stroke-linejoin="round" stroke-width="24" vectornator:layerName="Curve 5"/>
<path d="M202.546 55.3737L192.45 55.3737" fill="none" opacity="1" stroke="#637599" stroke-linecap="round" stroke-linejoin="round" stroke-width="24" vectornator:layerName="Curve 4"/>
</g>
<g opacity="1" vectornator:layerName="Group 10">
<g opacity="1" vectornator:layerName="Rectangle 1 Rectangle 1">
<path d="M547.925 116.474C547.925 97.1438 563.595 81.4738 582.925 81.4738L951.089 81.4738C970.419 81.4738 986.089 97.1438 986.089 116.474L986.089 384.304C986.089 403.634 970.419 419.304 951.089 419.304L582.925 419.304C563.595 419.304 547.925 403.634 547.925 384.304L547.925 116.474Z" fill="#f7e987" fill-rule="nonzero" opacity="1" stroke="none" vectornator:layerName="path"/>
<g opacity="1" vectornator:layerName="path">
<clipPath clip-rule="evenodd" id="ClipPath">
<path d="M547.925 116.474C547.925 97.1438 563.595 81.4738 582.925 81.4738L951.089 81.4738C970.419 81.4738 986.089 97.1438 986.089 116.474L986.089 384.304C986.089 403.634 970.419 419.304 951.089 419.304L582.925 419.304C563.595 419.304 547.925 403.634 547.925 384.304L547.925 116.474Z"/>
</clipPath>
<g clip-path="url(#ClipPath)">
<path d="M547.925 116.474C547.925 97.1438 563.595 81.4738 582.925 81.4738L951.089 81.4738C970.419 81.4738 986.089 97.1438 986.089 116.474L986.089 384.304C986.089 403.634 970.419 419.304 951.089 419.304L582.925 419.304C563.595 419.304 547.925 403.634 547.925 384.304L547.925 116.474Z" fill="none" opacity="1" stroke="#f7e14a" stroke-linecap="round" stroke-linejoin="round" stroke-width="34" vectornator:layerName="path"/>
</g>
</g>
</g>
<path d="M547.925 116.474C547.925 97.1438 563.595 81.4738 582.925 81.4738L951.089 81.4738C970.419 81.4738 986.089 97.1438 986.089 116.474L986.089 384.304C986.089 403.634 970.419 419.304 951.089 419.304L582.925 419.304C563.595 419.304 547.925 403.634 547.925 384.304L547.925 116.474Z" fill="none" opacity="1" stroke="#000000" stroke-linecap="round" stroke-linejoin="round" stroke-width="14" vectornator:layerName="Rectangle 2"/>
</g>
<g opacity="0" vectornator:layerName="Group 9">
<g opacity="1" vectornator:layerName="Group 8">
<path d="M597.692 158.628C597.692 142.014 611.161 128.546 627.775 128.546C644.39 128.546 657.858 142.014 657.858 158.628C657.858 175.243 644.39 188.711 627.775 188.711C611.161 188.711 597.692 175.243 597.692 158.628Z" fill="#ffffff" fill-rule="nonzero" opacity="1" stroke="#000000" stroke-linecap="butt" stroke-linejoin="round" stroke-width="14" vectornator:layerName="Oval 3"/>
<path d="M775.822 158.628C775.822 142.014 789.291 128.546 805.905 128.546C822.519 128.546 835.988 142.014 835.988 158.628C835.988 175.243 822.519 188.711 805.905 188.711C789.291 188.711 775.822 175.243 775.822 158.628Z" fill="#ffffff" fill-rule="nonzero" opacity="1" stroke="#000000" stroke-linecap="butt" stroke-linejoin="round" stroke-width="14" vectornator:layerName="Oval 1"/>
<g opacity="1" vectornator:layerName="Group 3">
<path d="M741.846 133.622L691.834 183.635" fill="#ffffff" fill-rule="nonzero" opacity="1" stroke="#000000" stroke-linecap="round" stroke-linejoin="round" stroke-width="14" vectornator:layerName="Line 1"/>
<path d="M691.834 133.622L741.846 183.635" fill="#ffffff" fill-rule="nonzero" opacity="1" stroke="#000000" stroke-linecap="round" stroke-linejoin="round" stroke-width="14" vectornator:layerName="Line 2"/>
</g>
</g>
<g opacity="1" vectornator:layerName="Group 7">
<path d="M686.757 250.389C686.757 233.775 700.226 220.306 716.84 220.306C733.454 220.306 746.923 233.775 746.923 250.389C746.923 267.003 733.454 280.472 716.84 280.472C700.226 280.472 686.757 267.003 686.757 250.389Z" fill="#ffffff" fill-rule="nonzero" opacity="1" stroke="#000000" stroke-linecap="butt" stroke-linejoin="round" stroke-width="14" vectornator:layerName="Oval 5"/>
<g opacity="1" vectornator:layerName="Group 4">
<path d="M652.781 225.383L602.769 275.395" fill="#ffffff" fill-rule="nonzero" opacity="1" stroke="#000000" stroke-linecap="round" stroke-linejoin="round" stroke-width="14" vectornator:layerName="Line 1"/>
<path d="M602.769 225.383L652.781 275.395" fill="#ffffff" fill-rule="nonzero" opacity="1" stroke="#000000" stroke-linecap="round" stroke-linejoin="round" stroke-width="14" vectornator:layerName="Line 2"/>
</g>
<g opacity="1" vectornator:layerName="Group 5">
<path d="M830.911 225.383L780.899 275.395" fill="#ffffff" fill-rule="nonzero" opacity="1" stroke="#000000" stroke-linecap="round" stroke-linejoin="round" stroke-width="14" vectornator:layerName="Line 1"/>
<path d="M780.899 225.383L830.911 275.395" fill="#ffffff" fill-rule="nonzero" opacity="1" stroke="#000000" stroke-linecap="round" stroke-linejoin="round" stroke-width="14" vectornator:layerName="Line 2"/>
</g>
</g>
<g opacity="1" vectornator:layerName="Group 6">
<path d="M597.692 342.15C597.692 325.536 611.161 312.067 627.775 312.067C644.39 312.067 657.858 325.536 657.858 342.15C657.858 358.764 644.39 372.233 627.775 372.233C611.161 372.233 597.692 358.764 597.692 342.15Z" fill="#ffffff" fill-rule="nonzero" opacity="1" stroke="#000000" stroke-linecap="butt" stroke-linejoin="round" stroke-width="14" vectornator:layerName="Oval 4"/>
<path d="M775.822 342.15C775.822 325.536 789.291 312.067 805.905 312.067C822.519 312.067 835.988 325.536 835.988 342.15C835.988 358.764 822.519 372.233 805.905 372.233C789.291 372.233 775.822 358.764 775.822 342.15Z" fill="#ffffff" fill-rule="nonzero" opacity="1" stroke="#000000" stroke-linecap="butt" stroke-linejoin="round" stroke-width="14" vectornator:layerName="Oval 2"/>
<g opacity="1" vectornator:layerName="Group 2">
<path d="M741.846 317.144L691.834 367.156" fill="#ffffff" fill-rule="nonzero" opacity="1" stroke="#000000" stroke-linecap="round" stroke-linejoin="round" stroke-width="14" vectornator:layerName="Line 1"/>
<path d="M691.834 317.144L741.846 367.156" fill="#ffffff" fill-rule="nonzero" opacity="1" stroke="#000000" stroke-linecap="round" stroke-linejoin="round" stroke-width="14" vectornator:layerName="Line 2"/>
</g>
</g>
</g>
<g fill="#ffffff" opacity="1" stroke="none" vectornator:layerName="Text 1">
<path d="M165.182 284.186C167.176 283.731 169.34 282.791 171.676 281.366C174.012 279.942 176.262 277.635 178.427 274.445C179.395 272.964 179.879 271.682 179.879 270.6C179.879 269.119 179.139 268.378 177.657 268.378C177.544 268.378 177.444 268.392 177.358 268.421C177.273 268.449 177.173 268.464 177.059 268.464C173.015 276.838 166.549 281.025 157.662 281.025C155.441 281.025 153.376 280.797 151.467 280.341C149.559 279.885 147.779 279.145 146.127 278.119C144.475 277.094 142.908 275.727 141.427 274.018C139.946 272.309 138.522 270.201 137.155 267.695L136.642 267.695C136.015 267.695 135.474 267.837 135.018 268.122C134.563 268.407 134.335 268.919 134.335 269.66C134.335 270.628 134.677 271.654 135.36 272.736C136.613 274.787 137.966 276.553 139.419 278.034C140.872 279.515 142.353 280.754 143.862 281.751C145.372 282.748 146.867 283.503 148.348 284.015C149.83 284.528 151.168 284.841 152.365 284.955L151.681 301.105C150.2 302.074 148.647 302.957 147.024 303.754C145.4 304.552 143.563 305.221 141.512 305.762C139.462 306.303 137.14 306.716 134.548 307.001C131.956 307.286 128.98 307.428 125.619 307.428C122.429 307.428 119.096 307.115 115.621 306.489C112.146 305.862 108.956 304.822 106.051 303.37C103.146 301.917 100.739 300.051 98.8306 297.773C96.9222 295.494 95.968 292.674 95.968 289.313C95.968 287.547 96.0535 285.14 96.2244 282.093C96.3953 279.045 96.6374 275.584 96.9507 271.711C97.264 267.837 97.6201 263.65 98.0188 259.15C98.4176 254.649 98.8448 250.106 99.3006 245.521C99.7563 240.935 100.212 236.392 100.668 231.891C101.123 227.391 101.579 223.204 102.035 219.33C102.491 215.457 102.904 212.01 103.274 208.991C103.644 205.972 103.972 203.608 104.257 201.899C105.909 200.418 107.789 199.164 109.896 198.139C112.004 197.114 114.211 196.302 116.519 195.704C118.826 195.105 121.147 194.678 123.483 194.422C125.818 194.166 128.068 194.037 130.233 194.037C134.107 194.037 137.909 194.465 141.641 195.319C145.372 196.174 148.462 197.284 150.912 198.652L155.612 214.374L152.621 226.935C152.507 227.391 152.421 227.818 152.365 228.217C152.308 228.616 152.279 229.015 152.279 229.413C152.279 231.35 153.418 232.376 155.697 232.49L163.815 198.737C164.783 198.224 166.022 197.683 167.532 197.114C169.041 196.544 170.722 196.031 172.573 195.575C174.425 195.12 176.433 194.749 178.597 194.465C180.762 194.18 182.984 194.037 185.262 194.037C189.307 194.037 192.853 194.365 195.901 195.02C198.949 195.675 201.512 196.729 203.591 198.182C205.671 199.634 207.308 201.528 208.505 203.864C209.701 206.2 210.498 209.076 210.897 212.494C211.296 216.083 211.794 220.413 212.393 225.483C212.991 230.553 213.603 235.922 214.23 241.59C214.856 247.258 215.483 252.997 216.11 258.808C216.736 264.618 217.292 270.073 217.776 275.171C218.26 280.27 218.659 284.784 218.972 288.715C219.286 292.646 219.442 295.551 219.442 297.431C213.119 304.096 204.004 307.428 192.098 307.428C188.339 307.428 184.892 307.115 181.759 306.489C178.626 305.862 175.934 304.908 173.684 303.626C171.434 302.344 169.64 300.763 168.301 298.884C166.962 297.004 166.179 294.782 165.951 292.219L165.182 284.186Z"/>
<path d="M276.693 308.625C271.908 308.625 267.18 308.126 262.509 307.129C257.837 306.133 253.422 304.609 249.264 302.558C245.105 300.507 241.274 297.915 237.771 294.782C234.268 291.649 231.234 287.946 228.671 283.674C226.107 279.401 224.113 274.531 222.689 269.062C221.265 263.593 220.553 257.498 220.553 250.776C220.553 240.807 222.091 232.19 225.167 224.927C228.243 217.664 232.345 211.654 237.472 206.897C242.599 202.141 248.509 198.623 255.203 196.345C261.896 194.066 268.889 192.927 276.18 192.927C284.839 192.927 292.615 194.336 299.508 197.156C306.401 199.976 312.24 203.921 317.025 208.991C321.81 214.061 325.485 220.156 328.048 227.277C330.612 234.398 331.893 242.231 331.893 250.776C331.893 260.916 330.455 269.631 327.578 276.923C324.701 284.215 320.771 290.21 315.786 294.91C310.802 299.61 304.963 303.071 298.269 305.292C291.576 307.514 284.384 308.625 276.693 308.625ZM280.111 246.93C280.111 244.196 280.054 241.846 279.94 239.881C279.826 237.916 279.627 236.278 279.342 234.968C279.057 233.771 278.673 232.974 278.188 232.575C277.704 232.176 277.149 231.977 276.522 231.977C275.896 231.977 275.411 232.077 275.07 232.276C274.728 232.475 274.443 232.66 274.215 232.831C274.272 233.857 274.358 234.811 274.471 235.694C274.585 236.577 274.685 237.574 274.771 238.685C274.856 239.795 274.927 241.077 274.984 242.53C275.041 243.982 275.07 245.763 275.07 247.87L275.07 253.425C275.07 255.532 275.041 257.313 274.984 258.765C274.927 260.218 274.856 261.5 274.771 262.61C274.685 263.721 274.585 264.718 274.471 265.601C274.358 266.484 274.272 267.438 274.215 268.464C274.443 268.635 274.728 268.82 275.07 269.019C275.411 269.218 275.896 269.318 276.522 269.318C277.149 269.318 277.704 269.119 278.188 268.72C278.673 268.321 279.057 267.524 279.342 266.327C279.627 265.017 279.826 263.379 279.94 261.414C280.054 259.449 280.111 257.099 280.111 254.365L280.111 246.93Z"/>
<path d="M386.41 299.396C384.074 301.447 380.756 303.298 376.455 304.95C372.154 306.602 366.984 307.428 360.946 307.428C357.756 307.428 354.68 307.087 351.718 306.403C348.755 305.72 346.149 304.68 343.899 303.284C341.649 301.889 339.854 300.123 338.516 297.986C337.177 295.85 336.508 293.329 336.508 290.424L336.508 202.155C338.843 200.104 342.161 198.253 346.462 196.601C350.763 194.949 355.933 194.123 361.971 194.123C365.162 194.123 368.238 194.465 371.2 195.148C374.162 195.832 376.768 196.871 379.019 198.267C381.269 199.663 383.063 201.429 384.402 203.565C385.741 205.701 386.41 208.222 386.41 211.127L386.41 299.396Z"/>
<path d="M465.707 299.396C463.371 301.447 460.053 303.298 455.752 304.95C451.451 306.602 446.281 307.428 440.243 307.428C437.053 307.428 433.977 307.087 431.014 306.403C428.052 305.72 425.446 304.68 423.196 303.284C420.946 301.889 419.151 300.123 417.813 297.986C416.474 295.85 415.804 293.329 415.804 290.424L415.804 235.395L395.895 235.395C393.73 232.262 392.164 229.143 391.195 226.038C390.227 222.933 389.742 219.644 389.742 216.169C389.742 213.548 389.97 211.17 390.426 209.034C390.882 206.897 391.48 204.989 392.22 203.309C392.961 201.628 393.801 200.147 394.741 198.865C395.681 197.584 396.635 196.515 397.604 195.661L485.958 195.661C487.553 198.11 488.906 201.158 490.017 204.804C491.128 208.45 491.683 212.124 491.683 215.827C491.683 219.302 491.27 222.278 490.444 224.756C489.618 227.234 488.479 229.257 487.026 230.823C485.574 232.39 483.851 233.543 481.857 234.284C479.863 235.025 477.67 235.395 475.277 235.395L450.24 235.395C450.07 235.851 449.984 236.278 449.984 236.677C449.984 237.189 450.098 237.602 450.326 237.916C450.554 238.229 451.024 238.499 451.736 238.727C452.448 238.955 453.445 239.112 454.727 239.197C456.008 239.283 457.703 239.325 459.811 239.325L465.707 239.325L465.707 299.396Z"/>
</g>
<path d="M629.656 128.875C611.932 128.875 597.562 143.245 597.562 160.969L597.532 193.063L742.25 193.063C759.974 193.063 774.344 178.693 774.344 160.969C774.344 143.245 759.974 128.875 742.25 128.875L629.656 128.875Z" fill="none" opacity="1" stroke="#000000" stroke-linecap="butt" stroke-linejoin="round" stroke-width="14" vectornator:layerName="Curve 3"/>
<path d="M629.656 307.89C611.932 307.89 597.562 322.26 597.562 339.984L597.534 372.078L742.25 372.078C759.974 372.078 774.344 357.708 774.344 339.984C774.344 322.26 759.974 307.89 742.25 307.89L629.656 307.89Z" fill="none" opacity="1" stroke="#000000" stroke-linecap="butt" stroke-linejoin="round" stroke-width="14" vectornator:layerName="Curve 2"/>
<path d="M803.811 217.592C821.535 217.592 835.905 231.961 835.905 249.685L835.905 304.189L790.793 281.779L691.218 281.779C673.494 281.779 659.124 267.409 659.124 249.685C659.124 231.961 673.494 217.592 691.218 217.592L803.811 217.592Z" fill="#ffffff" fill-rule="nonzero" opacity="1" stroke="#000000" stroke-linecap="butt" stroke-linejoin="round" stroke-width="14" vectornator:layerName="Curve 1"/>
</g>
</svg>
