<?xml version="1.0" encoding="UTF-8" standalone="no"?>
<!DOCTYPE svg PUBLIC "-//W3C//DTD SVG 1.1//EN" "http://www.w3.org/Graphics/SVG/1.1/DTD/svg11.dtd">
<!-- Created with Vectornator (http://vectornator.io/) -->
<svg height="100%" stroke-miterlimit="10" style="fill-rule:nonzero;clip-rule:evenodd;stroke-linecap:round;stroke-linejoin:round;" version="1.1" viewBox="0 0 1005.82 521.781" width="100%" xml:space="preserve" xmlns="http://www.w3.org/2000/svg" xmlns:vectornator="http://vectornator.io" xmlns:xlink="http://www.w3.org/1999/xlink">
<defs>
<path d="M547.925 116.474C547.925 97.1438 563.595 81.4738 582.925 81.4738L951.089 81.4738C970.419 81.4738 986.089 97.1438 986.089 116.474L986.089 384.304C986.089 403.634 970.419 419.304 951.089 419.304L582.925 419.304C563.595 419.304 547.925 403.634 547.925 384.304L547.925 116.474Z" id="Fill"/>
</defs>
<g id="Layer-1" vectornator:layerName="Layer 1">
<g opacity="1" vectornator:layerName="Group 11">
<path d="M56.6772 30.3737C32.4034 30.3738 12.7397 50.0437 12.7397 74.3112C12.7397 172.35 12.7397 368.428 12.7397 466.467C12.7397 490.741 32.4097 510.405 56.6772 510.405C259.083 510.405 663.896 510.405 866.302 510.405C890.576 510.405 910.24 490.735 910.24 466.467C910.24 463.928 910.24 460.077 910.24 456.311C923.001 456.311 940.872 456.311 951.083 456.311C974.284 456.311 993.083 437.506 993.083 414.311C993.083 347.35 993.083 213.428 993.083 146.467C993.083 123.267 974.278 104.468 951.083 104.467C940.872 104.467 923.001 104.467 910.24 104.467C910.24 94.623 910.24 81.8503 910.24 74.3112C910.24 50.0375 890.57 30.3737 866.302 30.3737C663.896 30.3737 259.083 30.3737 56.6772 30.3737Z" fill="#000000" fill-opacity="0.08" fill-rule="nonzero" opacity="1" stroke="none" vectornator:layerName="Curve 2"/>
<g opacity="1" vectornator:layerName="Group 1">
<path d="M19.7432 54.319C19.7432 33.9158 36.2833 17.3758 56.6865 17.3758L866.292 17.3758C886.695 17.3758 903.235 33.9158 903.235 54.319L903.235 446.459C903.235 466.862 886.695 483.402 866.292 483.402L56.6865 483.402C36.2833 483.402 19.7432 466.862 19.7432 446.459L19.7432 54.319Z" fill="#3395ff" fill-rule="nonzero" opacity="1" stroke="none" vectornator:layerName="Rectangle 1"/>
<path d="M901.963 173.944C901.963 173.944 633.795 315.918 547.925 400.546C462.055 485.173 269.483 485.173 269.483 485.173L678.73 484.496L866.78 485.134C874.333 485.159 881.713 482.869 887.925 478.572L888.374 478.261C893.857 474.468 898.21 469.262 900.974 463.195L900.974 463.195C903.209 458.29 904.343 452.955 904.297 447.564L901.963 173.944Z" fill="#1988ff" fill-rule="nonzero" opacity="1" stroke="none" vectornator:layerName="Curve 2"/>
<path d="M19.7432 54.319C19.7432 33.9158 36.2833 17.3758 56.6865 17.3758L866.292 17.3758C886.695 17.3758 903.235 33.9158 903.235 54.319L903.235 446.459C903.235 466.862 886.695 483.402 866.292 483.402L56.6865 483.402C36.2833 483.402 19.7432 466.862 19.7432 446.459L19.7432 54.319Z" fill="none" opacity="1" stroke="#000000" stroke-linecap="butt" stroke-linejoin="round" stroke-width="14" vectornator:layerName="Rectangle 2"/>
<path d="M162.789 55.3737L55.905 55.3737L55.905 143.607" fill="none" opacity="1" stroke="#66afff" stroke-linecap="round" stroke-linejoin="round" stroke-width="24" vectornator:layerName="Curve 5"/>
<path d="M202.546 55.3737L192.45 55.3737" fill="none" opacity="1" stroke="#66afff" stroke-linecap="round" stroke-linejoin="round" stroke-width="24" vectornator:layerName="Curve 4"/>
</g>
<g fill="#ffffff" opacity="1" stroke="none" vectornator:layerName="Text 1">
<path d="M237.646 309.777C235.824 310.46 233.773 311.03 231.494 311.486C229.215 311.941 226.623 312.169 223.718 312.169C219.332 312.169 215.301 311.528 211.627 310.247C207.953 308.965 204.777 307.128 202.1 304.735C199.422 302.342 197.329 299.437 195.819 296.019C194.309 292.601 193.555 288.728 193.555 284.398C193.555 280.581 194.238 276.964 195.605 273.546C196.973 270.128 198.909 266.966 201.416 264.061C203.922 261.156 206.984 258.493 210.602 256.072C214.219 253.651 218.249 251.472 222.693 249.535C222.408 248.68 222.038 247.997 221.582 247.484C221.126 246.971 220.443 246.715 219.531 246.715C218.677 246.715 217.552 247.028 216.156 247.655C214.76 248.282 212.752 249.478 210.132 251.244C208.252 250.275 206.358 248.908 204.449 247.142C202.541 245.376 200.818 243.269 199.28 240.819C197.742 238.369 196.488 235.649 195.52 232.659C194.552 229.668 194.067 226.464 194.067 223.046C194.067 219.628 194.68 216.409 195.904 213.39C197.129 210.371 198.909 207.722 201.245 205.443C203.581 203.164 206.486 201.356 209.961 200.017C213.436 198.678 217.452 198.009 222.009 198.009C226.567 198.009 230.369 198.465 233.417 199.376C236.464 200.288 238.843 201.228 240.552 202.196L249.609 220.226L256.958 201.769C258.952 200.857 261.344 200.088 264.136 199.462C266.927 198.835 269.946 198.522 273.193 198.522C277.409 198.522 281.268 199.12 284.772 200.316C288.275 201.512 291.294 203.25 293.829 205.528C296.364 207.807 298.33 210.641 299.725 214.031C301.121 217.42 301.819 221.28 301.819 225.609C301.819 229.312 301.107 232.886 299.683 236.333C298.258 239.779 296.307 243.012 293.829 246.031C291.351 249.051 288.46 251.785 285.156 254.235C281.852 256.684 278.32 258.763 274.56 260.472C274.788 261.042 275.144 261.597 275.629 262.139C276.113 262.68 276.839 262.95 277.808 262.95C278.719 262.95 279.801 262.651 281.055 262.053C282.308 261.455 283.903 260.501 285.84 259.191L303.442 281.237C303.442 285.509 302.873 289.539 301.733 293.328C300.594 297.116 298.871 300.406 296.564 303.197C294.257 305.988 291.38 308.196 287.933 309.819C284.487 311.443 280.456 312.255 275.842 312.255C272.082 312.255 268.721 311.728 265.759 310.674C262.797 309.62 260.162 308.125 257.855 306.188C255.548 304.251 253.554 301.944 251.874 299.266C250.193 296.589 248.755 293.655 247.559 290.465L237.646 309.777Z"/>
<path d="M359.753 313.28C354.968 313.28 350.24 312.782 345.569 311.785C340.898 310.788 336.483 309.264 332.324 307.213C328.166 305.162 324.335 302.57 320.831 299.437C317.328 296.304 314.294 292.601 311.731 288.329C309.167 284.056 307.174 279.186 305.749 273.717C304.325 268.248 303.613 262.153 303.613 255.431C303.613 245.462 305.151 236.846 308.227 229.582C311.304 222.319 315.405 216.309 320.532 211.553C325.659 206.796 331.569 203.278 338.263 201C344.956 198.721 351.949 197.582 359.241 197.582C367.9 197.582 375.675 198.992 382.568 201.811C389.461 204.631 395.3 208.576 400.085 213.646C404.871 218.716 408.545 224.812 411.108 231.932C413.672 239.053 414.954 246.886 414.954 255.431C414.954 265.571 413.515 274.287 410.638 281.578C407.762 288.87 403.831 294.866 398.846 299.565C393.862 304.265 388.023 307.726 381.329 309.947C374.636 312.169 367.444 313.28 359.753 313.28ZM363.171 251.586C363.171 248.851 363.114 246.501 363 244.536C362.886 242.571 362.687 240.933 362.402 239.623C362.117 238.426 361.733 237.629 361.249 237.23C360.765 236.831 360.209 236.632 359.582 236.632C358.956 236.632 358.472 236.732 358.13 236.931C357.788 237.13 357.503 237.316 357.275 237.487C357.332 238.512 357.418 239.466 357.532 240.349C357.646 241.232 357.745 242.229 357.831 243.34C357.916 244.451 357.987 245.732 358.044 247.185C358.101 248.638 358.13 250.418 358.13 252.526L358.13 258.08C358.13 260.188 358.101 261.968 358.044 263.42C357.987 264.873 357.916 266.155 357.831 267.266C357.745 268.376 357.646 269.373 357.532 270.256C357.418 271.139 357.332 272.093 357.275 273.119C357.503 273.29 357.788 273.475 358.13 273.674C358.472 273.874 358.956 273.973 359.582 273.973C360.209 273.973 360.765 273.774 361.249 273.375C361.733 272.976 362.117 272.179 362.402 270.983C362.687 269.672 362.886 268.035 363 266.069C363.114 264.104 363.171 261.754 363.171 259.02L363.171 251.586Z"/>
</g>
<g opacity="1" vectornator:layerName="Group 10">
<g opacity="1" vectornator:layerName="Rectangle 1 Rectangle 1">
<use fill="#66b0ff" fill-rule="nonzero" stroke="none" xlink:href="#Fill"/>
<mask height="337.831" id="StrokeMask" maskUnits="userSpaceOnUse" width="438.164" x="547.925" y="81.4738">
<rect fill="#000000" height="337.831" stroke="none" width="438.164" x="547.925" y="81.4738"/>
<use fill="#ffffff" fill-rule="evenodd" stroke="none" xlink:href="#Fill"/>
</mask>
<use fill="none" mask="url(#StrokeMask)" stroke="#4da3ff" stroke-linecap="round" stroke-linejoin="round" stroke-width="34" xlink:href="#Fill"/>
</g>
<path d="M547.925 116.474C547.925 97.1438 563.595 81.4738 582.925 81.4738L951.089 81.4738C970.419 81.4738 986.089 97.1438 986.089 116.474L986.089 384.304C986.089 403.634 970.419 419.304 951.089 419.304L582.925 419.304C563.595 419.304 547.925 403.634 547.925 384.304L547.925 116.474Z" fill="none" opacity="1" stroke="#000000" stroke-linecap="round" stroke-linejoin="round" stroke-width="14" vectornator:layerName="Rectangle 2"/>
</g>
<g opacity="1" vectornator:layerName="Group 9">
<g opacity="1" vectornator:layerName="Group 8">
<path d="M597.692 158.628C597.692 142.014 611.161 128.546 627.775 128.546C644.39 128.546 657.858 142.014 657.858 158.628C657.858 175.243 644.39 188.711 627.775 188.711C611.161 188.711 597.692 175.243 597.692 158.628Z" fill="#ffffff" fill-rule="nonzero" opacity="1" stroke="#000000" stroke-linecap="butt" stroke-linejoin="round" stroke-width="14" vectornator:layerName="Oval 3"/>
<path d="M775.822 158.628C775.822 142.014 789.291 128.546 805.905 128.546C822.519 128.546 835.988 142.014 835.988 158.628C835.988 175.243 822.519 188.711 805.905 188.711C789.291 188.711 775.822 175.243 775.822 158.628Z" fill="#ffffff" fill-rule="nonzero" opacity="1" stroke="#000000" stroke-linecap="butt" stroke-linejoin="round" stroke-width="14" vectornator:layerName="Oval 1"/>
<g opacity="1" vectornator:layerName="Group 3">
<path d="M741.846 133.622L691.834 183.635" fill="#ffffff" fill-rule="nonzero" opacity="1" stroke="#000000" stroke-linecap="round" stroke-linejoin="round" stroke-width="14" vectornator:layerName="Line 1"/>
<path d="M691.834 133.622L741.846 183.635" fill="#ffffff" fill-rule="nonzero" opacity="1" stroke="#000000" stroke-linecap="round" stroke-linejoin="round" stroke-width="14" vectornator:layerName="Line 2"/>
</g>
</g>
<g opacity="1" vectornator:layerName="Group 7">
<path d="M686.757 250.389C686.757 233.775 700.226 220.306 716.84 220.306C733.454 220.306 746.923 233.775 746.923 250.389C746.923 267.003 733.454 280.472 716.84 280.472C700.226 280.472 686.757 267.003 686.757 250.389Z" fill="#ffffff" fill-rule="nonzero" opacity="1" stroke="#000000" stroke-linecap="butt" stroke-linejoin="round" stroke-width="14" vectornator:layerName="Oval 5"/>
<g opacity="1" vectornator:layerName="Group 4">
<path d="M652.781 225.383L602.769 275.395" fill="#ffffff" fill-rule="nonzero" opacity="1" stroke="#000000" stroke-linecap="round" stroke-linejoin="round" stroke-width="14" vectornator:layerName="Line 1"/>
<path d="M602.769 225.383L652.781 275.395" fill="#ffffff" fill-rule="nonzero" opacity="1" stroke="#000000" stroke-linecap="round" stroke-linejoin="round" stroke-width="14" vectornator:layerName="Line 2"/>
</g>
<g opacity="1" vectornator:layerName="Group 5">
<path d="M830.911 225.383L780.899 275.395" fill="#ffffff" fill-rule="nonzero" opacity="1" stroke="#000000" stroke-linecap="round" stroke-linejoin="round" stroke-width="14" vectornator:layerName="Line 1"/>
<path d="M780.899 225.383L830.911 275.395" fill="#ffffff" fill-rule="nonzero" opacity="1" stroke="#000000" stroke-linecap="round" stroke-linejoin="round" stroke-width="14" vectornator:layerName="Line 2"/>
</g>
</g>
<g opacity="1" vectornator:layerName="Group 6">
<path d="M597.692 342.15C597.692 325.536 611.161 312.067 627.775 312.067C644.39 312.067 657.858 325.536 657.858 342.15C657.858 358.764 644.39 372.233 627.775 372.233C611.161 372.233 597.692 358.764 597.692 342.15Z" fill="#ffffff" fill-rule="nonzero" opacity="1" stroke="#000000" stroke-linecap="butt" stroke-linejoin="round" stroke-width="14" vectornator:layerName="Oval 4"/>
<path d="M775.822 342.15C775.822 325.536 789.291 312.067 805.905 312.067C822.519 312.067 835.988 325.536 835.988 342.15C835.988 358.764 822.519 372.233 805.905 372.233C789.291 372.233 775.822 358.764 775.822 342.15Z" fill="#ffffff" fill-rule="nonzero" opacity="1" stroke="#000000" stroke-linecap="butt" stroke-linejoin="round" stroke-width="14" vectornator:layerName="Oval 2"/>
<g opacity="1" vectornator:layerName="Group 2">
<path d="M741.846 317.144L691.834 367.156" fill="#ffffff" fill-rule="nonzero" opacity="1" stroke="#000000" stroke-linecap="round" stroke-linejoin="round" stroke-width="14" vectornator:layerName="Line 1"/>
<path d="M691.834 317.144L741.846 367.156" fill="#ffffff" fill-rule="nonzero" opacity="1" stroke="#000000" stroke-linecap="round" stroke-linejoin="round" stroke-width="14" vectornator:layerName="Line 2"/>
</g>
</g>
</g>
</g>
</g>
</svg>
