<?xml version="1.0" encoding="UTF-8" standalone="no"?>
<!DOCTYPE svg PUBLIC "-//W3C//DTD SVG 1.1//EN" "http://www.w3.org/Graphics/SVG/1.1/DTD/svg11.dtd">
<!-- Created with Vectornator (http://vectornator.io/) -->
<svg height="100%" stroke-miterlimit="10" style="fill-rule:nonzero;clip-rule:evenodd;stroke-linecap:round;stroke-linejoin:round;" version="1.1" viewBox="0 0 1024 1500" width="100%" xml:space="preserve" xmlns="http://www.w3.org/2000/svg" xmlns:vectornator="http://vectornator.io" xmlns:xlink="http://www.w3.org/1999/xlink">
<defs/>
<clipPath id="ArtboardFrame">
<rect height="1500" width="1024" x="0" y="0"/>
</clipPath>
<g clip-path="url(#ArtboardFrame)" id="Layer-1" vectornator:layerName="Layer 1">
<path d="M485.471 46.5938C464.12 46.5938 446.814 63.8991 446.814 85.25L446.814 132.281C446.814 110.93 429.509 93.625 408.158 93.625C386.807 93.625 369.471 110.93 369.471 132.281L369.471 267.469L369.471 269.469L369.471 376.906L356.346 313.281C352.946 292.203 339.09 279.68 312.033 281.25C290.718 282.487 280.127 292.22 280.002 325.594C279.809 377.176 293.94 420.668 310.252 445.875C347.578 503.555 416.158 531.344 416.158 531.344L416.158 584.031L369.814 584.031L369.814 1500L655.939 1500L670.939 584.031L610.846 584.031L615.846 519.312C650.004 490.951 678.752 448.154 678.752 400.281L678.752 269.469L678.752 267.469L678.752 149.125C678.752 127.774 661.447 110.469 640.096 110.469C618.745 110.469 601.439 127.774 601.439 149.125L601.439 113.75C601.439 92.3991 584.134 75.0937 562.783 75.0938C541.432 75.0938 524.127 92.3991 524.127 113.75L524.127 85.25C524.127 63.8991 506.822 46.5937 485.471 46.5938Z" fill="#000000" fill-opacity="0.08" fill-rule="nonzero" opacity="1" stroke="none" vectornator:layerName="Curve 1"/>
<g opacity="1" vectornator:layerName="Group 9">
<path d="M459.188 46.587C437.837 46.587 420.531 63.8923 420.531 85.2432L420.531 132.274C420.531 110.924 403.226 93.6182 381.875 93.6182C360.524 93.6182 343.188 110.924 343.188 132.274L343.188 267.462L343.188 269.462L343.188 376.899L330.063 313.274C326.663 292.196 312.807 279.673 285.75 281.243C264.435 282.48 253.843 292.213 253.719 325.587C253.526 377.169 267.657 420.662 283.969 445.868C321.295 503.548 389.875 531.337 389.875 531.337L389.875 754.306L596.562 754.306L596.562 519.306C630.721 490.944 652.469 448.147 652.469 400.274L652.469 269.462L652.469 267.462L652.469 149.118C652.469 127.767 635.163 110.462 613.812 110.462C592.462 110.462 575.156 127.767 575.156 149.118L575.156 113.743C575.156 92.3923 557.851 75.087 536.5 75.087C515.149 75.087 497.844 92.3923 497.844 113.743L497.844 85.2432C497.844 63.8923 480.538 46.587 459.188 46.587Z" fill="#ffd8ad" fill-rule="nonzero" opacity="1" stroke="none" vectornator:layerName="Curve 2"/>
<g opacity="1" vectornator:layerName="Group 8">
<path d="M393.429 124.104C386.428 105.247 382.814 100.717 375.37 97.4994C374.096 96.9487 384.102 95.2924 384.102 95.2924L407.087 108.64C414.631 108.64 420.745 115.564 420.745 124.104L420.745 259.176C420.745 267.716 428.497 273.975 420.953 273.975L424.734 274.64C417.191 274.64 410.604 275 402.295 251.167C389.843 215.454 400.43 142.961 393.429 124.104Z" fill="#ffcf9b" fill-rule="nonzero" opacity="1" stroke="none" vectornator:layerName="Rectangle 2"/>
<path d="M470.766 82.5671C463.92 59.0184 460.387 53.3611 453.107 49.3431C451.861 48.6554 461.646 46.587 461.646 46.587C461.646 46.587 475.164 54.2608 484.122 63.2559C493.08 72.2509 497.477 71.9018 497.477 82.5671L497.477 251.245C497.477 261.91 505.057 269.727 497.681 269.727L501.377 270.556C494.001 270.556 487.561 271.006 479.435 241.244C467.26 196.644 477.612 106.116 470.766 82.5671Z" fill="#ffcf9b" fill-rule="nonzero" opacity="1" stroke="none" vectornator:layerName="Rectangle 3"/>
<path d="M548.175 106.393C541.329 84.2177 537.795 78.8903 530.516 75.1066C529.27 74.459 539.054 72.5112 539.054 72.5112L561.531 88.2081C561.531 88.2081 574.886 96.3499 574.886 106.393L574.886 265.236C574.886 275.279 574.548 276.519 574.548 276.519C574.422 275.943 565.383 273 557.258 244.973C545.082 202.974 555.021 128.569 548.175 106.393Z" fill="#ffcf9b" fill-rule="nonzero" opacity="1" stroke="none" vectornator:layerName="Rectangle 4"/>
<path d="M614.75 108.618C614.75 108.618 604.942 110.564 606.188 111.212C613.467 114.996 616.998 120.318 623.844 142.493C630.237 163.203 630.406 177.926 630.406 283.024C630.406 388.123 606.635 425.239 586.786 451.785C554.433 495.055 538.406 483.22 538.406 568.556C538.406 653.892 538.813 753.431 538.812 753.431L598 750.681L594.25 520.368L626.531 486.837L643.188 458.931L645.938 447.431L652.469 424.806C656.583 424.806 655.591 392.223 653.844 359.274L653 253.806L650.563 253.399L650.563 142.493C650.562 132.45 637.219 124.306 637.219 124.306L614.75 108.618Z" fill="#ffcf9b" fill-rule="nonzero" opacity="1" stroke="none" vectornator:layerName="Curve 3"/>
<path d="M290.228 281.779C290.228 281.779 306.588 294.556 310.484 317.9C314.379 341.244 326.44 372.055 339.68 377.787L326.336 315.466C326.336 315.466 319.642 294.477 319.522 294.356C319.402 294.236 308.877 280.513 308.877 280.513L290.228 281.779Z" fill="#ffcf9b" fill-rule="nonzero" opacity="1" stroke="none" vectornator:layerName="Curve 4"/>
<g opacity="1" vectornator:layerName="Group 9">
<path d="M594.582 143.071C594.582 132.973 602.768 124.787 612.866 124.787L616.563 124.787C626.661 124.787 634.848 132.973 634.848 143.071L634.848 150.396C634.848 160.494 626.661 168.68 616.563 168.68L612.866 168.68C602.768 168.68 594.582 160.494 594.582 150.396L594.582 143.071Z" fill="#ffcf9b" fill-rule="nonzero" opacity="1" stroke="none" vectornator:layerName="Rectangle 3"/>
<path d="M516 107.835C516 97.7373 524.186 89.5512 534.284 89.5512L537.982 89.5512C548.08 89.5512 556.266 97.7373 556.266 107.835L556.266 115.16C556.266 125.258 548.08 133.444 537.982 133.444L534.284 133.444C524.186 133.444 516 125.258 516 115.16L516 107.835Z" fill="#ffcf9b" fill-rule="nonzero" opacity="1" stroke="none" vectornator:layerName="Rectangle 4"/>
<path d="M438.96 78.9158C438.96 68.8178 447.146 60.6317 457.244 60.6317L460.942 60.6317C471.04 60.6317 479.226 68.8178 479.226 78.9158L479.226 86.2405C479.226 96.3386 471.04 104.525 460.942 104.525L457.244 104.525C447.146 104.525 438.96 96.3386 438.96 86.2405L438.96 78.9158Z" fill="#ffcf9b" fill-rule="nonzero" opacity="1" stroke="none" vectornator:layerName="Rectangle 5"/>
<path d="M361.303 126.782C361.303 116.684 369.489 108.498 379.587 108.498L383.285 108.498C393.383 108.498 401.569 116.684 401.569 126.782L401.569 134.107C401.569 144.205 393.383 152.391 383.285 152.391L379.587 152.391C369.489 152.391 361.303 144.205 361.303 134.107L361.303 126.782Z" fill="#ffcf9b" fill-rule="nonzero" opacity="1" stroke="none" vectornator:layerName="Rectangle 6"/>
</g>
<path d="M390.796 568.784L593.894 549.488L593.894 612.697L390.796 612.697L390.796 568.784Z" fill="#ffcf9b" fill-rule="nonzero" opacity="1" stroke="none" vectornator:layerName="Rectangle 1"/>
</g>
<g opacity="1" vectornator:layerName="Group 7">
<g opacity="1" vectornator:layerName="Group 2">
<path d="M253.873 331.935C253.873 331.935 277.611 340.476 286.243 327.292C294.874 314.108 289.906 290.13 288.398 279.198C286.891 268.266 266.379 286.703 266.379 286.703L259.273 299.133L254.621 316.469L253.873 331.935Z" fill="#ffebd4" fill-rule="nonzero" opacity="1" stroke="none" vectornator:layerName="Curve 3"/>
<path d="M270.098 310.908C267.935 310.459 265.829 311.831 265.38 313.994C265.328 314.243 265.266 314.66 265.196 315.206C264.862 317.787 264.745 321.196 265.044 325.398C265.2 327.601 267.133 329.268 269.337 329.111C271.54 328.954 273.175 327.02 273.019 324.816C272.758 321.151 272.859 318.276 273.125 316.217C273.169 315.875 273.205 315.679 273.216 315.627C273.665 313.464 272.261 311.357 270.098 310.908Z" fill="#fff1e0" fill-rule="nonzero" opacity="1" stroke="none" vectornator:layerName="Curve 4"/>
</g>
<g opacity="1" vectornator:layerName="Group 4">
<path d="M361.303 131.782C361.303 121.684 369.489 113.498 379.587 113.498L383.285 113.498C393.383 113.498 401.569 121.684 401.569 131.782L401.569 139.107C401.569 149.205 393.383 157.391 383.285 157.391L379.587 157.391C369.489 157.391 361.303 149.205 361.303 139.107L361.303 131.782Z" fill="#ffebd4" fill-rule="nonzero" opacity="1" stroke="none" vectornator:layerName="Rectangle 2"/>
<path d="M367.475 127.809C367.475 125.559 369.298 123.736 371.548 123.736L371.548 123.736C373.797 123.736 375.621 125.559 375.621 127.809L375.621 136.548C375.621 138.798 373.797 140.621 371.548 140.621L371.548 140.621C369.298 140.621 367.475 138.798 367.475 136.548L367.475 127.809Z" fill="#fff1e0" fill-rule="nonzero" opacity="1" stroke="none" vectornator:layerName="Rectangle 3"/>
</g>
<g opacity="1" vectornator:layerName="Group 5">
<path d="M438.96 83.9158C438.96 73.8178 447.146 65.6317 457.244 65.6317L460.942 65.6317C471.04 65.6317 479.226 73.8178 479.226 83.9158L479.226 91.2405C479.226 101.339 471.04 109.525 460.942 109.525L457.244 109.525C447.146 109.525 438.96 101.339 438.96 91.2405L438.96 83.9158Z" fill="#ffebd4" fill-rule="nonzero" opacity="1" stroke="none" vectornator:layerName="Rectangle 2"/>
<path d="M445.132 79.9426C445.132 77.6931 446.955 75.8695 449.205 75.8695L449.205 75.8695C451.454 75.8695 453.278 77.6931 453.278 79.9426L453.278 88.6823C453.278 90.9318 451.454 92.7554 449.205 92.7554L449.205 92.7554C446.955 92.7554 445.132 90.9318 445.132 88.6823L445.132 79.9426Z" fill="#fff1e0" fill-rule="nonzero" opacity="1" stroke="none" vectornator:layerName="Rectangle 3"/>
</g>
<g opacity="1" vectornator:layerName="Group 6">
<path d="M516 112.835C516 102.737 524.186 94.5512 534.284 94.5512L537.982 94.5512C548.08 94.5512 556.266 102.737 556.266 112.835L556.266 120.16C556.266 130.258 548.08 138.444 537.982 138.444L534.284 138.444C524.186 138.444 516 130.258 516 120.16L516 112.835Z" fill="#ffebd4" fill-rule="nonzero" opacity="1" stroke="none" vectornator:layerName="Rectangle 2"/>
<path d="M522.172 108.862C522.172 106.613 523.996 104.789 526.245 104.789L526.245 104.789C528.495 104.789 530.318 106.613 530.318 108.862L530.318 117.602C530.318 119.851 528.495 121.675 526.245 121.675L526.245 121.675C523.996 121.675 522.172 119.851 522.172 117.602L522.172 108.862Z" fill="#fff1e0" fill-rule="nonzero" opacity="1" stroke="none" vectornator:layerName="Rectangle 3"/>
</g>
<g opacity="1" vectornator:layerName="Group 3">
<path d="M594.582 147.071C594.582 136.973 602.768 128.787 612.866 128.787L616.563 128.787C626.661 128.787 634.848 136.973 634.848 147.071L634.848 154.396C634.848 164.494 626.661 172.68 616.563 172.68L612.866 172.68C602.768 172.68 594.582 164.494 594.582 154.396L594.582 147.071Z" fill="#ffebd4" fill-rule="nonzero" opacity="1" stroke="none" vectornator:layerName="Rectangle 2"/>
<path d="M600.753 143.098C600.753 140.849 602.577 139.025 604.827 139.025L604.827 139.025C607.076 139.025 608.9 140.849 608.9 143.098L608.9 151.838C608.9 154.087 607.076 155.911 604.827 155.911L604.827 155.911C602.577 155.911 600.753 154.087 600.753 151.838L600.753 143.098Z" fill="#fff1e0" fill-rule="nonzero" opacity="1" stroke="none" vectornator:layerName="Rectangle 3"/>
</g>
</g>
<path d="M459.188 39.5937C433.971 39.5937 413.5 60.0331 413.5 85.25L413.5 99.5C405.287 91.5689 394.164 86.625 381.844 86.625C356.627 86.625 336.188 107.064 336.188 132.281L336.188 267.469L336.188 269.469L336.188 309.5C330.013 288.369 317.93 275.572 302.031 271.719C288.719 268.492 273.895 272.107 263.594 279.906C257.005 284.895 252.503 291.789 249.75 300C246.902 308.496 246.175 317.207 246.625 324.75C246.652 325.202 246.693 325.448 246.719 325.75C246.734 325.929 246.737 326.221 246.75 326.344C246.761 326.698 246.756 327.018 246.781 327.625C246.843 329.083 246.945 330.764 247.062 332.656C247.397 338.039 247.904 344.023 248.625 350.469C250.689 368.904 254.025 387.34 258.969 404.625C263.901 421.869 270.202 437.031 278.031 449.562C289.263 467.541 304.099 483.724 321.656 498.125C335.991 509.883 351.325 519.809 366.656 528C372.028 530.87 377.004 533.309 381.5 535.344C382.146 535.636 382.314 535.69 382.875 535.938L382.875 754.312C382.875 758.178 386.009 761.313 389.875 761.312L596.562 761.312C600.428 761.312 603.562 758.179 603.562 754.312L603.562 522.344C638.707 491.882 659.469 447.815 659.469 400.281L659.469 269.469L659.469 267.469L659.469 149.156C659.469 123.939 639.029 103.5 613.812 103.5C601.492 103.5 590.369 108.444 582.156 116.375L582.156 113.781C582.156 88.5643 561.717 68.125 536.5 68.125C523.995 68.125 512.683 73.1702 504.438 81.3125C502.407 57.9737 483.053 39.5937 459.188 39.5937ZM459.188 53.5937C476.672 53.5937 490.844 67.7651 490.844 85.25L490.844 270.5C490.844 274.366 493.978 277.5 497.844 277.5C501.71 277.5 504.844 274.366 504.844 270.5L504.844 113.781C504.844 96.2963 519.015 82.125 536.5 82.125C553.985 82.125 568.156 96.2963 568.156 113.781L568.156 257.469L568.156 276.281C568.156 280.147 571.29 283.281 575.156 283.281C579.022 283.281 582.156 280.147 582.156 276.281L582.156 149.156C582.156 131.671 596.328 117.5 613.812 117.5C631.297 117.5 645.469 131.671 645.469 149.156L645.469 267.469L645.469 269.469L645.469 400.281C645.469 444.787 625.674 486.025 592.094 513.906C590.492 515.236 589.563 517.231 589.562 519.312L589.562 747.312L396.875 747.312L396.875 531.344C396.875 528.462 395.121 525.863 392.438 524.812C392.241 524.736 391.804 524.553 391.156 524.281C390.047 523.815 388.748 523.258 387.281 522.594C383.056 520.682 378.343 518.377 373.25 515.656C358.681 507.872 344.103 498.413 330.531 487.281C314.083 473.79 300.27 458.746 289.906 442.156C282.845 430.854 277.036 416.859 272.438 400.781C267.731 384.326 264.514 366.622 262.531 348.906C261.836 342.699 261.352 336.942 261.031 331.781C260.919 329.983 260.839 328.398 260.781 327.031C260.761 326.558 260.72 325.462 260.719 325.406C260.714 325.214 260.708 325.035 260.688 324.844C260.675 324.728 260.654 324.397 260.625 323.906C260.272 317.997 260.815 310.955 263 304.437C264.915 298.724 267.889 294.199 272.031 291.062C279.105 285.707 289.662 283.149 298.719 285.344C309.842 288.04 318.56 297.424 323.281 315C323.29 315.033 323.304 315.061 323.312 315.094L336.344 378.312C338.047 386.568 350.188 385.335 350.188 376.906L350.188 269.469L350.188 267.469L350.188 132.281C350.188 114.796 364.359 100.625 381.844 100.625C399.329 100.625 413.5 114.796 413.5 132.281L413.5 257.469L413.5 273.469C413.5 277.335 416.634 280.469 420.5 280.469C424.366 280.469 427.5 277.335 427.5 273.469L427.5 85.25C427.5 67.7651 441.703 53.5937 459.188 53.5937Z" fill="#000000" fill-rule="nonzero" opacity="1" stroke="none" vectornator:layerName="Curve 1"/>
</g>
<g opacity="1" vectornator:layerName="Group 10">
<path d="M343.523 584.022L641.642 584.022L641.642 1500L343.523 1500L343.523 584.022Z" fill="#009aff" fill-rule="nonzero" opacity="1" stroke="none" vectornator:layerName="Rectangle 1"/>
<path d="M463.904 584.022C463.904 584.022 561.987 606.678 588.918 650.995C615.85 695.311 606.381 1500.59 606.381 1500.59L642.566 1500.03L642.016 584.963L463.904 584.022Z" fill="#008be6" fill-rule="nonzero" opacity="1" stroke="none" vectornator:layerName="Curve 1"/>
<path d="M381.885 664.706C381.885 642.057 400.246 623.697 422.895 623.697L422.895 623.697C445.543 623.697 463.904 642.057 463.904 664.706L463.904 1036.5C463.904 1059.14 445.543 1077.51 422.895 1077.51L422.895 1077.51C400.246 1077.51 381.885 1059.14 381.885 1036.5L381.885 664.706Z" fill="#19a4ff" fill-rule="nonzero" opacity="1" stroke="none" vectornator:layerName="Rectangle 3"/>
<path d="M343.531 577.031C339.665 577.031 336.531 580.165 336.531 584.031L336.531 1500L350.531 1500L350.531 591.031L634.656 591.031L634.656 1500L648.656 1500L648.656 584.031C648.656 580.165 645.522 577.031 641.656 577.031L343.531 577.031Z" fill="#000000" fill-rule="nonzero" opacity="1" stroke="none" vectornator:layerName="Curve 2"/>
</g>
</g>
</svg>
