<?xml version="1.0" encoding="UTF-8" standalone="no"?>
<!DOCTYPE svg PUBLIC "-//W3C//DTD SVG 1.1//EN" "http://www.w3.org/Graphics/SVG/1.1/DTD/svg11.dtd">
<!-- Created with Vectornator (http://vectornator.io/) -->
<svg height="100%" stroke-miterlimit="10" style="fill-rule:nonzero;clip-rule:evenodd;stroke-linecap:round;stroke-linejoin:round;" version="1.1" viewBox="0 0 1024 1024" width="100%" xml:space="preserve" xmlns="http://www.w3.org/2000/svg" xmlns:vectornator="http://vectornator.io" xmlns:xlink="http://www.w3.org/1999/xlink">
<defs/>
<g id="Layer-1" vectornator:layerName="Layer 1">
<g opacity="0" vectornator:layerName="Coin1">
<path d="M512 340C422.276 340 349.562 412.729 349.562 502.438C349.562 509.875 349.562 524.75 349.562 532.188C349.562 621.912 422.292 694.625 512 694.625C601.724 694.625 674.437 621.896 674.438 532.188C674.438 524.75 674.438 509.875 674.438 502.438C674.437 412.713 601.708 340 512 340Z" fill="#000000" fill-opacity="0.08" fill-rule="nonzero" opacity="1" stroke="none" vectornator:layerName="Curve 2"/>
<g opacity="1" vectornator:layerName="Group 13">
<g opacity="1" vectornator:layerName="Group 11">
<path d="M657.438 526.872C657.438 607.195 592.323 672.31 512 672.31C431.677 672.31 366.562 607.195 366.562 526.872L366.562 497.121L657.438 497.121L657.438 526.872Z" fill="#ffb000" fill-rule="nonzero" opacity="1" stroke="none" vectornator:layerName="Oval 2"/>
<path d="M366.562 490.125C362.697 490.125 359.562 493.259 359.562 497.125L359.562 526.875C359.562 611.064 427.811 679.312 512 679.312C596.189 679.312 664.438 611.064 664.438 526.875C664.438 525.945 664.438 498.055 664.438 497.125C664.438 493.259 661.304 490.125 657.438 490.125L366.562 490.125ZM373.562 504.125L650.438 504.125C650.438 512.256 650.438 526.164 650.438 526.875C650.438 603.332 588.457 665.313 512 665.312C435.543 665.312 373.562 603.332 373.562 526.875L373.562 504.125Z" fill="#000000" fill-rule="nonzero" opacity="1" stroke="none" vectornator:layerName="Curve 1"/>
</g>
<g opacity="1" vectornator:layerName="Group 12">
<path d="M366.562 497.121C366.562 416.798 431.677 351.683 512 351.683C592.323 351.683 657.438 416.798 657.438 497.121C657.438 577.444 592.323 642.559 512 642.559C431.677 642.559 366.562 577.444 366.562 497.121Z" fill="#ffc200" fill-rule="nonzero" opacity="1" stroke="none" vectornator:layerName="Oval 3"/>
<path d="M634.658 418.185C634.658 418.185 645.433 485.689 617.318 546.001C589.202 606.312 521.455 643.51 521.455 643.51C521.455 643.51 586.346 625.626 608.01 605.986C629.674 586.346 647.961 560.941 654.452 538.151C660.943 515.362 661.714 476.44 653.287 458.109C644.86 439.779 634.658 418.185 634.658 418.185Z" fill="#ffb000" fill-rule="nonzero" opacity="1" stroke="none" vectornator:layerName="Curve 1"/>
<path d="M512 344.688C427.811 344.688 359.562 412.936 359.562 497.125C359.562 581.314 427.811 649.562 512 649.562C596.189 649.562 664.438 581.314 664.438 497.125C664.438 412.936 596.189 344.688 512 344.688ZM512 358.688C588.457 358.688 650.438 420.668 650.438 497.125C650.438 573.582 588.457 635.562 512 635.562C435.543 635.562 373.562 573.582 373.562 497.125C373.562 420.668 435.543 358.688 512 358.688Z" fill="#000000" fill-rule="nonzero" opacity="1" stroke="none" vectornator:layerName="Curve 2"/>
<path d="M431.219 406.562C427.38 406.607 423.551 408.131 420.656 411.094C399.652 432.593 387.687 461.396 387.688 492.062C387.688 500.347 394.403 507.062 402.688 507.062C410.972 507.062 417.688 500.347 417.688 492.062C417.688 469.312 426.543 447.981 442.125 432.031C447.914 426.106 447.801 416.633 441.875 410.844C438.912 407.949 435.057 406.518 431.219 406.562Z" fill="#ffe287" fill-rule="nonzero" opacity="1" stroke="none" vectornator:layerName="Curve 3"/>
</g>
<path d="M502 387.938L502 408.562L501.344 408.562C473.945 408.562 451.719 430.758 451.719 458.156C451.719 483.248 473.78 503.191 502 507.062L502 565.969C484.371 562.601 471.719 550.713 471.719 537.375L451.719 537.375C451.719 562.466 473.78 582.41 502 586.281L502 606.312L522 606.312L522 587L522.656 587C550.055 587 572.281 564.774 572.281 537.375C572.281 512.284 550.22 492.366 522 488.5L522 429.594C539.629 432.954 552.281 444.818 552.281 458.156L572.281 458.156C572.281 433.065 550.22 413.148 522 409.281L522 387.938L502 387.938ZM501.344 428.562L502 428.562L502 486.75C484.371 483.383 471.719 471.494 471.719 458.156C471.719 441.803 484.991 428.563 501.344 428.562ZM522 508.812C539.629 512.173 552.281 524.037 552.281 537.375C552.281 553.728 539.009 567 522.656 567L522 567L522 508.812Z" fill="#000000" fill-rule="nonzero" opacity="1" stroke="none" vectornator:layerName="Curve 1"/>
</g>
</g>
<g opacity="0" vectornator:layerName="Coin2">
<path d="M574.125 281.625C559.14 283.067 547.476 290.718 546.844 291.094C540.114 295.093 537.001 303.167 539.281 310.656C540.784 315.592 542.011 323.171 542.062 333.5C535.496 332.737 528.812 332.344 522 332.344C422.887 332.344 342.563 412.684 342.562 511.781C342.562 610.894 422.903 691.219 522 691.219C621.113 691.219 701.438 610.878 701.438 511.781C701.438 443.294 663.024 383.884 606.656 353.656C611.776 332.71 613.728 315.797 605.156 297.781C598.196 283.153 583.145 280.757 574.125 281.625Z" fill="#000000" fill-opacity="0.08" fill-rule="nonzero" opacity="1" stroke="none" vectornator:layerName="Curve 3"/>
<g opacity="1" vectornator:layerName="Group 20">
<path d="M349.562 511.787C349.562 422.076 422.288 349.35 512 349.35C601.712 349.35 674.438 422.076 674.438 511.787C674.438 601.499 601.712 674.225 512 674.225C422.288 674.225 349.562 601.499 349.562 511.787Z" fill="#ff9900" fill-rule="nonzero" opacity="1" stroke="none" vectornator:layerName="Oval 2"/>
<path d="M423.3 377.216C423.3 377.216 454.215 424.248 499.857 444.688C545.498 465.127 605.867 458.974 605.867 458.974C605.867 458.974 620.044 540.485 591.556 593.843C563.069 647.202 523.965 659.144 491.917 672.409C470.691 681.194 568.656 665.305 568.656 665.305C568.656 665.305 685.27 613.229 673.333 501.209C661.395 389.189 582.828 364.874 553.355 356.578C523.882 348.281 488.656 339.216 423.3 377.216Z" fill="#ff8c00" fill-rule="nonzero" opacity="1" stroke="none" vectornator:layerName="Curve 1"/>
<path d="M456.291 486.524C456.291 483.213 458.975 480.53 462.285 480.53C465.596 480.53 468.28 483.213 468.28 486.524C468.28 489.835 465.596 492.518 462.285 492.518C458.975 492.518 456.291 489.835 456.291 486.524Z" fill="#ff8c00" fill-rule="nonzero" opacity="1" stroke="none" vectornator:layerName="Oval 7"/>
<path d="M633.18 501.181C633.18 497.871 635.864 495.187 639.175 495.187C642.485 495.187 645.169 497.871 645.169 501.181C645.169 504.492 642.485 507.176 639.175 507.176C635.864 507.176 633.18 504.492 633.18 501.181Z" fill="#ff9900" fill-rule="nonzero" opacity="1" stroke="none" vectornator:layerName="Oval 6"/>
<path d="M522.248 567.211C522.248 563.9 524.931 561.216 528.242 561.216C531.553 561.216 534.236 563.9 534.236 567.211C534.236 570.521 531.553 573.205 528.242 573.205C524.931 573.205 522.248 570.521 522.248 567.211Z" fill="#ff8c00" fill-rule="nonzero" opacity="1" stroke="none" vectornator:layerName="Oval 4"/>
<path d="M530.93 498.493C530.93 500.319 532.41 501.799 534.236 501.799C536.062 501.799 537.543 500.319 537.543 498.493C537.543 496.667 536.062 495.187 534.236 495.187C532.41 495.187 530.93 496.667 530.93 498.493Z" fill="#ff8c00" fill-rule="nonzero" opacity="1" stroke="none" vectornator:layerName="Oval 8"/>
<path d="M627.457 576.512C627.457 578.338 628.938 579.818 630.764 579.818C632.59 579.818 634.07 578.338 634.07 576.512C634.07 574.686 632.59 573.205 630.764 573.205C628.938 573.205 627.457 574.686 627.457 576.512Z" fill="#ff9900" fill-rule="nonzero" opacity="1" stroke="none" vectornator:layerName="Oval 10"/>
<path d="M613.64 433.016C613.64 434.842 615.12 436.322 616.946 436.322C618.772 436.322 620.253 434.842 620.253 433.016C620.253 431.19 618.772 429.71 616.946 429.71C615.12 429.71 613.64 431.19 613.64 433.016Z" fill="#ff9900" fill-rule="nonzero" opacity="1" stroke="none" vectornator:layerName="Oval 9"/>
<path d="M462.848 383.678C462.848 385.504 464.328 386.984 466.154 386.984C467.98 386.984 469.46 385.504 469.46 383.678C469.46 381.852 467.98 380.372 466.154 380.372C464.328 380.372 462.848 381.852 462.848 383.678Z" fill="#ff9900" fill-rule="nonzero" opacity="1" stroke="none" vectornator:layerName="Oval 5"/>
<path d="M456.291 611.163C456.291 612.989 457.771 614.469 459.597 614.469C461.423 614.469 462.903 612.989 462.903 611.163C462.903 609.337 461.423 607.857 459.597 607.857C457.771 607.857 456.291 609.337 456.291 611.163Z" fill="#ff8c00" fill-rule="nonzero" opacity="1" stroke="none" vectornator:layerName="Oval 3"/>
</g>
<path d="M349.562 511.787C349.562 422.076 422.288 349.35 512 349.35C601.712 349.35 674.438 422.076 674.438 511.787C674.438 601.499 601.712 674.225 512 674.225C422.288 674.225 349.562 601.499 349.562 511.787Z" fill="none" opacity="1" stroke="#000000" stroke-linecap="butt" stroke-linejoin="round" stroke-width="14" vectornator:layerName="Oval 1"/>
<g opacity="1" vectornator:layerName="Group 21">
<path d="M387.91 532.297C386.816 525.622 386.246 518.771 386.246 511.787C386.246 490.446 391.562 470.346 400.943 452.74" fill="none" opacity="1" stroke="#ffad33" stroke-linecap="round" stroke-linejoin="round" stroke-width="25" vectornator:layerName="Curve 4"/>
<path d="M401.26 571.426C399.603 568.356 398.071 565.21 396.668 561.993" fill="none" opacity="1" stroke="#ffad33" stroke-linecap="round" stroke-linejoin="round" stroke-width="25" vectornator:layerName="Curve 2"/>
</g>
<g opacity="1" vectornator:layerName="Group 19">
<path d="M530.545 408.28C530.561 407.579 543.69 384.463 547.434 358.822C551.178 333.18 548.843 316.624 545.52 305.714C545.52 305.714 572.52 289.733 579.826 305.088C587.132 320.444 584.666 333.721 577.161 361.567C569.657 389.414 549.807 416.474 549.807 416.474" fill="#593600" fill-rule="nonzero" opacity="1" stroke="none" vectornator:layerName="Curve 3"/>
<path d="M495.582 393.998C495.582 393.998 517.979 411.393 542.56 416.59C567.141 421.788 593.906 414.787 593.906 414.787" fill="none" opacity="1" stroke="#000000" stroke-linecap="round" stroke-linejoin="round" stroke-width="14" vectornator:layerName="Curve 1"/>
<path d="M530.545 408.28C530.561 407.579 543.69 384.463 547.434 358.822C551.178 333.18 548.843 316.624 545.52 305.714C545.52 305.714 572.52 289.733 579.826 305.088C587.132 320.444 584.666 333.721 577.161 361.567C569.657 389.414 549.807 416.474 549.807 416.474" fill="none" opacity="1" stroke="#000000" stroke-linecap="round" stroke-linejoin="round" stroke-width="14" vectornator:layerName="Curve 2"/>
</g>
</g>
<g opacity="0" vectornator:layerName="Coin3">
<path d="M382.719 262.219C361.163 262.219 343.719 279.686 343.719 301.219C343.719 406.484 343.719 617.016 343.719 722.281C343.719 743.837 361.186 761.281 382.719 761.281C388.961 761.281 401.445 761.281 407.688 761.281C453.094 761.281 543.906 761.281 589.312 761.281C595.555 761.281 608.039 761.281 614.281 761.281C620.516 761.281 632.984 761.281 639.219 761.281C660.774 761.281 678.219 743.814 678.219 722.281C678.219 617.016 678.219 406.484 678.219 301.219C678.219 279.663 660.752 262.219 639.219 262.219C632.984 262.219 620.516 262.219 614.281 262.219C608.039 262.219 595.555 262.219 589.312 262.219C543.906 262.219 453.094 262.219 407.688 262.219C401.445 262.219 388.961 262.219 382.719 262.219Z" fill="#000000" fill-opacity="0.08" fill-rule="nonzero" opacity="1" stroke="none" vectornator:layerName="Curve 3"/>
<g opacity="1" vectornator:layerName="Group 17">
<path d="M415.653 301.222C415.653 291.833 423.264 284.222 432.653 284.222L639.23 284.222C648.619 284.222 656.23 291.833 656.23 301.222L656.23 722.291C656.23 731.68 648.619 739.291 639.23 739.291L432.653 739.291C423.264 739.291 415.653 731.68 415.653 722.291L415.653 301.222Z" fill="#0bb300" fill-rule="nonzero" opacity="1" stroke="none" vectornator:layerName="Rectangle 2"/>
<path d="M440.406 511.748C440.406 459.055 483.122 416.339 535.816 416.339C588.509 416.339 631.225 459.055 631.225 511.748C631.225 564.442 588.509 607.158 535.816 607.158C483.122 607.158 440.406 564.442 440.406 511.748Z" fill="#0cbf00" fill-rule="nonzero" opacity="1" stroke="none" vectornator:layerName="Oval 2"/>
<g opacity="1" vectornator:layerName="Group 1">
<path d="M555.333 418.091C555.333 418.091 520.11 429.402 518.38 461.087C516.65 492.773 506.989 514.42 488.38 521.765C469.772 529.111 448.818 546.52 448.818 551.197" fill="none" opacity="1" stroke="#0fe500" stroke-linecap="butt" stroke-linejoin="round" stroke-opacity="0.3" stroke-width="14" vectornator:layerName="Curve 7"/>
<path d="M630.805 491.407C622.036 498.222 613.294 508.805 612.454 524.195C610.724 555.881 601.062 577.528 582.454 584.873C570.148 589.731 549.197 606.058 549.197 606.058" fill="none" opacity="1" stroke="#0fe500" stroke-linecap="butt" stroke-linejoin="round" stroke-opacity="0.3" stroke-width="14" vectornator:layerName="Curve 5"/>
<path d="M485.052 431.096C482.745 435.735 481.183 441.059 480.852 447.13C479.122 478.816 469.46 500.463 450.852 507.808C447.137 509.275 443.329 511.142 439.612 513.229" fill="none" opacity="1" stroke="#0fe500" stroke-linecap="butt" stroke-linejoin="round" stroke-opacity="0.3" stroke-width="14" vectornator:layerName="Curve 4"/>
<path d="M589.073 432.528C589.073 432.528 551.562 444.997 549.72 479.928C547.877 514.859 537.588 538.722 517.771 546.82C497.953 554.917 475.638 574.11 475.638 579.266" fill="none" opacity="1" stroke="#0fe500" stroke-linecap="butt" stroke-linejoin="round" stroke-opacity="0.3" stroke-width="14" vectornator:layerName="Curve 6"/>
<path d="M613.953 456.806C613.953 456.806 580.334 466.725 578.492 501.655C576.649 536.586 566.36 560.45 546.543 568.547C526.726 576.645 504.41 595.837 504.41 600.993" fill="none" opacity="1" stroke="#0fe500" stroke-linecap="butt" stroke-linejoin="round" stroke-opacity="0.3" stroke-width="14" vectornator:layerName="Curve 1"/>
</g>
<path d="M440.406 511.748C440.406 459.055 483.122 416.339 535.816 416.339C588.509 416.339 631.225 459.055 631.225 511.748C631.225 564.442 588.509 607.158 535.816 607.158C483.122 607.158 440.406 564.442 440.406 511.748Z" fill="none" opacity="1" stroke="#000000" stroke-linecap="butt" stroke-linejoin="round" stroke-width="14" vectornator:layerName="Oval 1"/>
<path d="M415.653 301.222C415.653 291.833 423.264 284.222 432.653 284.222L639.23 284.222C648.619 284.222 656.23 291.833 656.23 301.222L656.23 722.291C656.23 731.68 648.619 739.291 639.23 739.291L432.653 739.291C423.264 739.291 415.653 731.68 415.653 722.291L415.653 301.222Z" fill="none" opacity="1" stroke="#000000" stroke-linecap="butt" stroke-linejoin="round" stroke-width="14" vectornator:layerName="Rectangle 1"/>
<path d="M460.46 518.65L474.694 518.65L474.694 519.103C474.694 538.012 490.012 553.351 508.921 553.351C526.238 553.351 540.002 538.126 542.674 518.65L583.328 518.65C581.004 530.817 572.799 539.548 563.594 539.548L563.594 553.351C580.911 553.351 594.675 538.126 597.347 518.65L611.171 518.65L611.171 504.847L597.843 504.847L597.843 504.394C597.843 485.485 582.503 470.145 563.594 470.145C546.277 470.145 532.531 485.371 529.863 504.847L489.209 504.847C491.528 492.68 499.716 483.948 508.921 483.948L508.921 470.145C491.604 470.145 477.859 485.371 475.19 504.847L460.46 504.847L460.46 518.65ZM488.497 519.103L488.497 518.65L528.655 518.65C526.331 530.817 518.127 539.548 508.921 539.548C497.635 539.548 488.497 530.389 488.497 519.103ZM543.882 504.847C546.201 492.68 554.389 483.948 563.594 483.948C574.88 483.948 584.04 493.108 584.04 504.394L584.04 504.847L543.882 504.847Z" fill="#000000" fill-rule="nonzero" opacity="1" stroke="none" vectornator:layerName="Curve 1"/>
<path d="M442.781 365.885L442.781 313.034L467.676 313.684" fill="none" opacity="1" stroke="#11ff00" stroke-linecap="round" stroke-linejoin="round" stroke-width="20" vectornator:layerName="Rectangle 3"/>
</g>
<g opacity="1" vectornator:layerName="Group 15">
<path d="M390.691 301.222C390.691 291.833 398.303 284.222 407.691 284.222L614.269 284.222C623.658 284.222 631.269 291.833 631.269 301.222L631.269 722.291C631.269 731.68 623.658 739.291 614.269 739.291L407.691 739.291C398.303 739.291 390.691 731.68 390.691 722.291L390.691 301.222Z" fill="#0dcc00" fill-rule="nonzero" opacity="1" stroke="none" vectornator:layerName="Rectangle 2"/>
<path d="M415.444 511.748C415.444 459.055 458.161 416.339 510.854 416.339C563.547 416.339 606.264 459.055 606.264 511.748C606.264 564.442 563.547 607.158 510.854 607.158C458.161 607.158 415.444 564.442 415.444 511.748Z" fill="#0cbf00" fill-rule="nonzero" opacity="1" stroke="none" vectornator:layerName="Oval 2"/>
<g opacity="1" vectornator:layerName="Group 1">
<path d="M530.372 418.091C530.372 418.091 495.149 429.402 493.419 461.087C491.689 492.773 482.027 514.42 463.419 521.765C444.81 529.111 423.856 546.52 423.856 551.197" fill="none" opacity="1" stroke="#0fe500" stroke-linecap="butt" stroke-linejoin="round" stroke-opacity="0.3" stroke-width="14" vectornator:layerName="Curve 7"/>
<path d="M605.843 491.407C597.074 498.222 588.333 508.805 587.492 524.195C585.762 555.881 576.101 577.528 557.492 584.873C545.186 589.731 524.235 606.058 524.235 606.058" fill="none" opacity="1" stroke="#0fe500" stroke-linecap="butt" stroke-linejoin="round" stroke-opacity="0.3" stroke-width="14" vectornator:layerName="Curve 5"/>
<path d="M460.091 431.096C457.783 435.735 456.222 441.059 455.89 447.13C454.16 478.816 444.499 500.463 425.89 507.808C422.176 509.275 418.367 511.142 414.651 513.229" fill="none" opacity="1" stroke="#0fe500" stroke-linecap="butt" stroke-linejoin="round" stroke-opacity="0.3" stroke-width="14" vectornator:layerName="Curve 4"/>
<path d="M564.112 432.528C564.112 432.528 526.601 444.997 524.758 479.928C522.916 514.859 512.627 538.722 492.809 546.82C472.992 554.917 450.677 574.11 450.677 579.266" fill="none" opacity="1" stroke="#0fe500" stroke-linecap="butt" stroke-linejoin="round" stroke-opacity="0.3" stroke-width="14" vectornator:layerName="Curve 6"/>
<path d="M588.991 456.806C588.991 456.806 555.373 466.725 553.53 501.655C551.688 536.586 541.399 560.45 521.581 568.547C501.764 576.645 479.449 595.837 479.449 600.993" fill="none" opacity="1" stroke="#0fe500" stroke-linecap="butt" stroke-linejoin="round" stroke-opacity="0.3" stroke-width="14" vectornator:layerName="Curve 1"/>
</g>
<path d="M415.444 511.748C415.444 459.055 458.161 416.339 510.854 416.339C563.547 416.339 606.264 459.055 606.264 511.748C606.264 564.442 563.547 607.158 510.854 607.158C458.161 607.158 415.444 564.442 415.444 511.748Z" fill="none" opacity="1" stroke="#000000" stroke-linecap="butt" stroke-linejoin="round" stroke-width="14" vectornator:layerName="Oval 1"/>
<path d="M390.691 301.222C390.691 291.833 398.303 284.222 407.691 284.222L614.269 284.222C623.658 284.222 631.269 291.833 631.269 301.222L631.269 722.291C631.269 731.68 623.658 739.291 614.269 739.291L407.691 739.291C398.303 739.291 390.691 731.68 390.691 722.291L390.691 301.222Z" fill="none" opacity="1" stroke="#000000" stroke-linecap="butt" stroke-linejoin="round" stroke-width="14" vectornator:layerName="Rectangle 1"/>
<path d="M435.498 518.65L449.733 518.65L449.733 519.103C449.733 538.012 465.051 553.351 483.96 553.351C501.277 553.351 515.041 538.126 517.713 518.65L558.367 518.65C556.043 530.817 547.838 539.548 538.633 539.548L538.633 553.351C555.95 553.351 569.713 538.126 572.385 518.65L586.21 518.65L586.21 504.847L572.881 504.847L572.881 504.394C572.881 485.485 557.542 470.145 538.633 470.145C521.316 470.145 507.57 485.371 504.902 504.847L464.247 504.847C466.567 492.68 474.755 483.948 483.96 483.948L483.96 470.145C466.643 470.145 452.897 485.371 450.229 504.847L435.498 504.847L435.498 518.65ZM463.536 519.103L463.536 518.65L503.694 518.65C501.37 530.817 493.165 539.548 483.96 539.548C472.674 539.548 463.536 530.389 463.536 519.103ZM518.92 504.847C521.24 492.68 529.428 483.948 538.633 483.948C549.919 483.948 559.078 493.108 559.078 504.394L559.078 504.847L518.92 504.847Z" fill="#000000" fill-rule="nonzero" opacity="1" stroke="none" vectornator:layerName="Curve 1"/>
<path d="M417.82 365.885L417.82 313.034L442.715 313.684" fill="none" opacity="1" stroke="#11ff00" stroke-linecap="round" stroke-linejoin="round" stroke-width="20" vectornator:layerName="Rectangle 3"/>
</g>
<g opacity="1" vectornator:layerName="Group 16">
<path d="M365.73 301.222C365.73 291.833 373.341 284.222 382.73 284.222L589.307 284.222C598.696 284.222 606.307 291.833 606.307 301.222L606.307 722.291C606.307 731.68 598.696 739.291 589.307 739.291L382.73 739.291C373.341 739.291 365.73 731.68 365.73 722.291L365.73 301.222Z" fill="#0fe600" fill-rule="nonzero" opacity="1" stroke="none" vectornator:layerName="Rectangle 2"/>
<path d="M608.347 544.332L590.326 642.581C582.842 683.379 550.762 715.212 509.907 722.379L415.142 739.004L593.835 739.778L603.359 734.246L606.813 724.627L608.347 544.332Z" fill="#0dcc00" fill-rule="nonzero" opacity="1" stroke="none" vectornator:layerName="Curve 2"/>
<path d="M390.483 511.748C390.483 459.055 433.199 416.339 485.893 416.339C538.586 416.339 581.302 459.055 581.302 511.748C581.302 564.442 538.586 607.158 485.893 607.158C433.199 607.158 390.483 564.442 390.483 511.748Z" fill="#0cbf00" fill-rule="nonzero" opacity="1" stroke="none" vectornator:layerName="Oval 2"/>
<g opacity="1" vectornator:layerName="Group 1">
<path d="M505.41 418.091C505.41 418.091 470.187 429.402 468.457 461.087C466.727 492.773 457.066 514.42 438.457 521.765C419.849 529.111 398.895 546.52 398.895 551.197" fill="none" opacity="1" stroke="#0fe500" stroke-linecap="butt" stroke-linejoin="round" stroke-opacity="0.3" stroke-width="14" vectornator:layerName="Curve 7"/>
<path d="M580.882 491.407C572.113 498.222 563.371 508.805 562.531 524.195C560.801 555.881 551.139 577.528 532.531 584.873C520.225 589.731 499.274 606.058 499.274 606.058" fill="none" opacity="1" stroke="#0fe500" stroke-linecap="butt" stroke-linejoin="round" stroke-opacity="0.3" stroke-width="14" vectornator:layerName="Curve 5"/>
<path d="M435.129 431.096C432.822 435.735 431.26 441.059 430.929 447.13C429.199 478.816 419.537 500.463 400.929 507.808C397.214 509.275 393.406 511.142 389.689 513.229" fill="none" opacity="1" stroke="#0fe500" stroke-linecap="butt" stroke-linejoin="round" stroke-opacity="0.3" stroke-width="14" vectornator:layerName="Curve 4"/>
<path d="M539.15 432.528C539.15 432.528 501.639 444.997 499.797 479.928C497.954 514.859 487.665 538.722 467.848 546.82C448.031 554.917 425.715 574.11 425.715 579.266" fill="none" opacity="1" stroke="#0fe500" stroke-linecap="butt" stroke-linejoin="round" stroke-opacity="0.3" stroke-width="14" vectornator:layerName="Curve 6"/>
<path d="M564.03 456.806C564.03 456.806 530.411 466.725 528.569 501.655C526.726 536.586 516.437 560.45 496.62 568.547C476.803 576.645 454.487 595.837 454.487 600.993" fill="none" opacity="1" stroke="#0fe500" stroke-linecap="butt" stroke-linejoin="round" stroke-opacity="0.3" stroke-width="14" vectornator:layerName="Curve 1"/>
</g>
<path d="M390.483 511.748C390.483 459.055 433.199 416.339 485.893 416.339C538.586 416.339 581.302 459.055 581.302 511.748C581.302 564.442 538.586 607.158 485.893 607.158C433.199 607.158 390.483 564.442 390.483 511.748Z" fill="none" opacity="1" stroke="#000000" stroke-linecap="butt" stroke-linejoin="round" stroke-width="14" vectornator:layerName="Oval 1"/>
<path d="M365.73 301.222C365.73 291.833 373.341 284.222 382.73 284.222L589.307 284.222C598.696 284.222 606.307 291.833 606.307 301.222L606.307 722.291C606.307 731.68 598.696 739.291 589.307 739.291L382.73 739.291C373.341 739.291 365.73 731.68 365.73 722.291L365.73 301.222Z" fill="none" opacity="1" stroke="#000000" stroke-linecap="butt" stroke-linejoin="round" stroke-width="14" vectornator:layerName="Rectangle 1"/>
<path d="M410.537 518.65L424.771 518.65L424.771 519.103C424.771 538.012 440.089 553.351 458.998 553.351C476.315 553.351 490.079 538.126 492.751 518.65L533.405 518.65C531.081 530.817 522.876 539.548 513.671 539.548L513.671 553.351C530.988 553.351 544.752 538.126 547.424 518.65L561.248 518.65L561.248 504.847L547.92 504.847L547.92 504.394C547.92 485.485 532.58 470.145 513.671 470.145C496.354 470.145 482.608 485.371 479.94 504.847L439.286 504.847C441.605 492.68 449.793 483.948 458.998 483.948L458.998 470.145C441.682 470.145 427.936 485.371 425.267 504.847L410.537 504.847L410.537 518.65ZM438.574 519.103L438.574 518.65L478.732 518.65C476.408 530.817 468.204 539.548 458.998 539.548C447.712 539.548 438.574 530.389 438.574 519.103ZM493.959 504.847C496.278 492.68 504.466 483.948 513.671 483.948C524.957 483.948 534.117 493.108 534.117 504.394L534.117 504.847L493.959 504.847Z" fill="#000000" fill-rule="nonzero" opacity="1" stroke="none" vectornator:layerName="Curve 1"/>
<path d="M394.858 364.885L394.858 312.034L419.753 312.684" fill="none" opacity="1" stroke="#11ff00" stroke-linecap="round" stroke-linejoin="round" stroke-width="20" vectornator:layerName="Rectangle 3"/>
</g>
</g>
<g opacity="0" vectornator:layerName="Coin4">
<path d="M412.375 293.25C399.262 292.782 385.8 296.122 373.844 303.594C341.885 323.564 332.155 365.635 352.125 397.594C352.132 397.605 352.118 397.614 352.125 397.625C352.891 398.844 354.422 401.281 355.188 402.5C360.173 410.437 370.645 412.842 378.594 407.875C381.171 406.265 385.79 403.385 388.906 401.438C360.789 431.556 343.438 471.864 343.438 516.312C343.438 518.179 343.469 517 343.469 517C343.469 523.555 343.469 536.57 343.469 543.094C343.469 587.931 361.17 628.521 389.688 658.656C387.951 663.041 386.812 667.763 386.813 672.812C386.813 694.506 404.409 712 426.031 712C436.742 712 446.331 707.675 453.344 700.781C471.593 707.625 491.295 711.625 512 711.625C532.705 711.625 552.406 707.625 570.656 700.781C577.669 707.675 587.258 712 597.969 712C619.606 712 637.188 694.491 637.188 672.812C637.187 667.757 636.053 663.046 634.313 658.656C662.828 628.523 680.531 587.933 680.531 543.094C680.531 536.555 680.531 523.477 680.531 516.938C680.536 517.099 680.562 518.005 680.563 516.312C680.562 471.864 663.236 431.553 635.125 401.438C638.234 403.38 642.834 406.268 645.406 407.875C653.355 412.841 663.827 410.437 668.813 402.5C669.578 401.281 671.109 398.844 671.875 397.625C671.882 397.614 671.868 397.605 671.875 397.594C691.853 365.622 682.101 323.555 650.156 303.594C638.2 296.123 624.74 292.782 611.625 293.25C589.782 294.029 568.628 305.354 556.156 325.312C556.15 325.323 556.132 325.333 556.125 325.344C555.367 326.563 553.852 329 553.094 330.219C548.144 338.18 550.581 348.626 558.531 353.594C559.07 353.93 560.123 354.585 560.688 354.938C545.267 350.29 528.935 347.75 512 347.75C495.028 347.75 478.668 350.334 463.219 355C463.81 354.631 464.906 353.945 465.469 353.594C473.419 348.626 475.856 338.18 470.906 330.219C470.148 329 468.633 326.563 467.875 325.344C467.868 325.333 467.85 325.323 467.844 325.312C455.373 305.355 434.22 294.029 412.375 293.25Z" fill="#000000" fill-opacity="0.08" fill-rule="nonzero" opacity="1" stroke="none" vectornator:layerName="Curve 3"/>
<path d="M411.781 305.25C401.921 304.898 391.841 307.378 382.844 313C358.852 327.992 351.539 359.602 366.531 383.594L369.594 388.469L456.469 334.188L453.438 329.312C444.068 314.317 428.215 305.836 411.781 305.25ZM612.219 305.25C595.785 305.836 579.932 314.317 570.563 329.312L567.531 334.188L654.406 388.469L657.469 383.594C672.461 359.602 665.148 327.992 641.156 313C632.159 307.378 622.079 304.898 612.219 305.25ZM512 359.75C428.302 359.75 360.438 427.615 360.438 511.312C360.438 511.523 360.468 511.727 360.469 511.938L360.469 538.094C360.469 583.135 380.216 623.465 411.406 651.219C406.795 655.288 403.813 661.178 403.813 667.812C403.813 680.079 413.765 690 426.031 690C435.83 690 444.051 683.619 447 674.812C466.72 684.206 488.699 689.625 512 689.625C535.301 689.625 557.28 684.206 577 674.812C579.949 683.619 588.17 690 597.969 690C610.235 690 620.188 680.079 620.188 667.812C620.187 661.178 617.205 655.288 612.594 651.219C643.784 623.465 663.531 583.135 663.531 538.094L663.531 511.938C663.532 511.727 663.562 511.523 663.563 511.312C663.562 427.615 595.698 359.75 512 359.75Z" fill="#ff002a" fill-rule="nonzero" opacity="1" stroke="none" vectornator:layerName="Curve 2"/>
<path d="M360.456 511.313L360.456 538.088C360.456 621.785 428.302 689.632 512 689.632C595.698 689.632 663.544 621.785 663.544 538.088L663.544 511.313L360.456 511.313Z" fill="#cc0022" fill-rule="nonzero" opacity="1" stroke="#000000" stroke-linecap="butt" stroke-linejoin="round" stroke-width="14" vectornator:layerName="Curve 1"/>
<g opacity="1" vectornator:layerName="Group 25">
<path d="M403.818 667.799C403.818 655.533 413.762 645.589 426.028 645.589C438.294 645.589 448.238 655.533 448.238 667.799C448.238 680.065 438.294 690.009 426.028 690.009C413.762 690.009 403.818 680.065 403.818 667.799Z" fill="#ff002a" fill-rule="nonzero" opacity="1" stroke="none" vectornator:layerName="Oval 3"/>
<path d="M575.762 667.799C575.762 655.533 585.706 645.589 597.972 645.589C610.238 645.589 620.182 655.533 620.182 667.799C620.182 680.065 610.238 690.009 597.972 690.009C585.706 690.009 575.762 680.065 575.762 667.799Z" fill="#ff002a" fill-rule="nonzero" opacity="1" stroke="none" vectornator:layerName="Oval 4"/>
<path d="M436.046 648.072C437.585 651.094 438.535 654.469 438.535 658.09C438.535 670.356 428.58 680.281 416.314 680.281C412.689 680.281 409.32 679.33 406.296 677.792C409.965 685.01 417.374 689.996 426.028 689.996C438.294 689.996 448.25 680.071 448.25 667.805C448.25 659.16 443.26 651.746 436.046 648.072ZM607.99 648.072C609.529 651.094 610.479 654.469 610.479 658.09C610.479 670.356 600.524 680.281 588.258 680.281C584.633 680.281 581.264 679.33 578.24 677.792C581.909 685.01 589.318 689.996 597.972 689.996C610.238 689.996 620.194 680.071 620.194 667.805C620.194 659.16 615.204 651.746 607.99 648.072Z" fill="#cc0022" fill-rule="nonzero" opacity="1" stroke="none" vectornator:layerName="Curve 1"/>
<path d="M403.818 667.799C403.818 655.533 413.762 645.589 426.028 645.589C438.294 645.589 448.238 655.533 448.238 667.799C448.238 680.065 438.294 690.009 426.028 690.009C413.762 690.009 403.818 680.065 403.818 667.799Z" fill="none" opacity="1" stroke="#000000" stroke-linecap="butt" stroke-linejoin="round" stroke-width="14" vectornator:layerName="Oval 5"/>
<path d="M575.762 667.799C575.762 655.533 585.706 645.589 597.972 645.589C610.238 645.589 620.182 655.533 620.182 667.799C620.182 680.065 610.238 690.009 597.972 690.009C585.706 690.009 575.762 680.065 575.762 667.799Z" fill="none" opacity="1" stroke="#000000" stroke-linecap="butt" stroke-linejoin="round" stroke-width="14" vectornator:layerName="Oval 6"/>
</g>
<g opacity="1" vectornator:layerName="Group 27">
<path d="M360.452 511.313C360.452 427.615 428.302 359.764 512 359.764C595.698 359.764 663.548 427.615 663.548 511.313C663.548 595.01 595.698 662.861 512 662.861C428.302 662.861 360.452 595.01 360.452 511.313Z" fill="#ff002a" fill-rule="nonzero" opacity="1" stroke="none" vectornator:layerName="Oval 2"/>
<path d="M657.321 468.448C657.321 468.448 641.492 553.426 594.446 600.472C547.4 647.518 469.135 656.633 469.135 656.633C482.734 660.638 497.105 662.856 512 662.856C543.323 662.856 572.417 653.363 596.576 637.083L637.77 595.888C654.051 571.73 663.544 542.636 663.544 511.313C663.544 496.417 661.325 482.046 657.321 468.448Z" fill="#e60026" fill-rule="nonzero" opacity="1" stroke="none" vectornator:layerName="Curve 3"/>
<path d="M512 359.769C504.691 359.769 497.57 360.468 490.537 361.469L362.156 489.88C361.159 496.904 360.456 504.014 360.456 511.313C360.456 527.705 363.14 543.459 367.954 558.245L558.932 367.267C544.147 362.452 528.392 359.769 512 359.769Z" fill="#ff3355" fill-rule="nonzero" opacity="1" stroke="none" vectornator:layerName="Curve 2"/>
<path d="M360.452 511.313C360.452 427.615 428.302 359.764 512 359.764C595.698 359.764 663.548 427.615 663.548 511.313C663.548 595.01 595.698 662.861 512 662.861C428.302 662.861 360.452 595.01 360.452 511.313Z" fill="none" opacity="1" stroke="#000000" stroke-linecap="butt" stroke-linejoin="round" stroke-width="14" vectornator:layerName="Oval 4"/>
</g>
<g opacity="1" vectornator:layerName="Group 30">
<path d="M391.198 511.313C391.198 444.596 445.283 390.511 512 390.511C578.717 390.511 632.802 444.596 632.802 511.313C632.802 578.029 578.717 632.114 512 632.114C445.283 632.114 391.198 578.029 391.198 511.313Z" fill="#ffffff" fill-rule="nonzero" opacity="1" stroke="none" vectornator:layerName="Oval 3"/>
<path d="M512 390.521C445.283 390.521 391.208 444.596 391.208 511.313C391.208 514.591 391.438 517.814 391.694 521.027C396.653 458.864 448.562 409.949 512 409.949C575.438 409.949 627.347 458.864 632.306 521.027C632.562 517.814 632.792 514.591 632.792 511.313C632.792 444.596 578.717 390.521 512 390.521Z" fill="#e6e6e6" fill-rule="nonzero" opacity="1" stroke="none" vectornator:layerName="Curve 2"/>
<g opacity="1" vectornator:layerName="Group 29">
<path d="M512 438.281C505.373 438.281 500 443.654 500 450.281L500 495.656C489.483 500.28 482.125 510.772 482.125 523C482.125 539.504 495.496 552.875 512 552.875C524.228 552.875 534.72 545.517 539.344 535L569.156 535C575.784 535 581.156 529.627 581.156 523C581.156 516.373 575.784 511 569.156 511L539.344 511C536.336 504.16 530.84 498.664 524 495.656L524 450.281C524 443.654 518.627 438.281 512 438.281ZM500 512.719L500 523C500 529.627 505.373 535 512 535L522.281 535C519.505 537.38 515.946 538.875 512 538.875C503.228 538.875 496.125 531.772 496.125 523C496.125 519.054 497.62 515.495 500 512.719Z" fill="#e5e5e5" fill-rule="nonzero" opacity="1" stroke="none" vectornator:layerName="Curve 1"/>
<g opacity="1" vectornator:layerName="Group 28">
<path d="M569.152 512L512 512" fill="none" opacity="1" stroke="#000000" stroke-linecap="round" stroke-linejoin="round" stroke-width="24" vectornator:layerName="Line 1"/>
<path d="M512.006 439.296L512.006 512" fill="none" opacity="1" stroke="#000000" stroke-linecap="round" stroke-linejoin="round" stroke-width="24" vectornator:layerName="Line 2"/>
<path d="M489.117 512C489.117 499.362 499.362 489.117 512 489.117C524.638 489.117 534.883 499.362 534.883 512C534.883 524.638 524.638 534.883 512 534.883C499.362 534.883 489.117 524.638 489.117 512Z" fill="#ff002a" fill-rule="nonzero" opacity="1" stroke="#000000" stroke-linecap="round" stroke-linejoin="round" stroke-width="14" vectornator:layerName="Oval 5"/>
<path d="M504.274 509.423C504.274 506.307 506.8 503.781 509.916 503.781C513.032 503.781 515.558 506.307 515.558 509.423C515.558 512.539 513.032 515.065 509.916 515.065C506.8 515.065 504.274 512.539 504.274 509.423Z" fill="#ff3355" fill-rule="nonzero" opacity="1" stroke="none" vectornator:layerName="Oval 6"/>
</g>
</g>
<path d="M391.198 511.313C391.198 444.596 445.283 390.511 512 390.511C578.717 390.511 632.802 444.596 632.802 511.313C632.802 578.029 578.717 632.114 512 632.114C445.283 632.114 391.198 578.029 391.198 511.313Z" fill="none" opacity="1" stroke="#000000" stroke-linecap="butt" stroke-linejoin="round" stroke-width="14" vectornator:layerName="Oval 4"/>
</g>
<g opacity="1" vectornator:layerName="Group 26">
<path d="M512 321.593L512 361.451" fill="none" opacity="1" stroke="#000000" stroke-linecap="butt" stroke-linejoin="round" stroke-width="14" vectornator:layerName="Line 2"/>
<path d="M531.929 321.329L492.071 321.329" fill="none" opacity="1" stroke="#000000" stroke-linecap="round" stroke-linejoin="round" stroke-width="14" vectornator:layerName="Line 1"/>
</g>
<g opacity="1" vectornator:layerName="Group 24">
<path d="M366.545 383.589C351.553 359.597 358.849 327.994 382.841 313.003L382.841 313.003C406.834 298.011 438.436 305.307 453.428 329.299L456.48 334.183L369.597 388.473L366.545 383.589Z" fill="#ff002a" fill-rule="nonzero" opacity="1" stroke="none" vectornator:layerName="Rectangle 1"/>
<path d="M415.315 306.554C415.315 306.554 422.94 324.244 416.096 337.165C409.253 350.087 372.399 383.616 372.399 383.616L456.172 334.533C456.172 334.533 456.48 308.925 415.315 306.554Z" fill="#cc0022" fill-rule="nonzero" opacity="1" stroke="none" vectornator:layerName="Curve 4"/>
<path d="M366.048 328.271C371.144 317.874 380.986 312.246 388.032 315.699C395.078 319.152 396.659 330.38 391.564 340.776C386.468 351.173 376.626 356.802 369.58 353.349C362.534 349.896 360.953 338.668 366.048 328.271Z" fill="#ff3355" fill-rule="nonzero" opacity="1" stroke="none" vectornator:layerName="Oval 5"/>
<path d="M366.545 383.589C351.553 359.597 358.849 327.994 382.841 313.003L382.841 313.003C406.834 298.011 438.436 305.307 453.428 329.299L456.48 334.183L369.597 388.473L366.545 383.589Z" fill="none" opacity="1" stroke="#000000" stroke-linecap="butt" stroke-linejoin="round" stroke-width="14" vectornator:layerName="Rectangle 2"/>
<path d="M413.222 361.992L428.637 386.515" fill="none" opacity="1" stroke="#000000" stroke-linecap="butt" stroke-linejoin="round" stroke-width="14" vectornator:layerName="Line 1"/>
</g>
<g opacity="1" vectornator:layerName="Group 23">
<path d="M657.455 383.589C672.447 359.597 665.151 327.994 641.159 313.003L641.159 313.003C617.166 298.011 585.564 305.307 570.572 329.299L567.52 334.183L654.403 388.473L657.455 383.589Z" fill="#ff002a" fill-rule="nonzero" opacity="1" stroke="none" vectornator:layerName="Rectangle 2"/>
<path d="M632.802 372.897C632.802 372.897 649.416 337.165 631.27 313.497C619.18 297.727 674.188 324.637 666.058 368.522L656.707 385.995L632.802 372.897Z" fill="#cc0022" fill-rule="nonzero" opacity="1" stroke="none" vectornator:layerName="Curve 2"/>
<path d="M606.075 317.954C614.176 314.74 622.36 316.209 624.354 321.235C626.348 326.261 621.397 332.941 613.296 336.156C605.194 339.37 597.01 337.901 595.016 332.874C593.022 327.848 597.973 321.168 606.075 317.954Z" fill="#ff3355" fill-rule="nonzero" opacity="1" stroke="none" vectornator:layerName="Oval 6"/>
<path d="M657.455 383.589C672.447 359.597 665.151 327.994 641.159 313.003L641.159 313.003C617.166 298.011 585.564 305.307 570.572 329.299L567.52 334.183L654.403 388.473L657.455 383.589Z" fill="none" opacity="1" stroke="#000000" stroke-linecap="butt" stroke-linejoin="round" stroke-width="14" vectornator:layerName="Rectangle 3"/>
<path d="M610.778 361.992L595.363 386.515" fill="none" opacity="1" stroke="#000000" stroke-linecap="butt" stroke-linejoin="round" stroke-width="14" vectornator:layerName="Line 2"/>
</g>
</g>
<g opacity="0" vectornator:layerName="Coin5">
<path d="M456 362.406C452.738 362.407 449.505 363.082 446.531 364.344C432.63 370.244 404.869 382.037 390.969 387.938C387.919 389.232 385.16 391.162 382.938 393.562C368.981 408.637 341.052 438.767 327.094 453.844C319.192 462.378 319.316 475.274 327.344 483.688C369.253 527.613 452.979 610.5 494.781 654.312C504.027 664.003 519.927 664.031 529.188 654.375C570.995 610.785 654.71 528.328 696.625 484.625C704.552 476.36 704.8 463.7 697.219 455.125C683.859 440.014 657.173 409.799 643.812 394.688C641.548 392.126 638.712 390.056 635.5 388.688C621.2 382.595 592.579 370.435 578.281 364.344C575.29 363.07 572.048 362.406 568.781 362.406C540.582 362.409 484.2 362.403 456 362.406Z" fill="#000000" fill-opacity="0.08" fill-rule="nonzero" opacity="1" stroke="none" vectornator:layerName="Curve 3"/>
<g opacity="1" vectornator:layerName="Group 7">
<g opacity="1" vectornator:layerName="Group 6">
<path d="M356.111 472.503L440.69 500.895L509.679 646.374L356.111 472.503Z" fill="#dbdcff" fill-rule="nonzero" opacity="1" stroke="none" vectornator:layerName="Curve 1"/>
<path d="M437.991 499.015L513.078 647.166L587.879 498.663L437.991 499.015Z" fill="#adb0ff" fill-rule="nonzero" opacity="1" stroke="none" vectornator:layerName="Curve 2"/>
<path d="M677.398 470.69L521.799 638.458L588.583 498.538L677.398 470.69Z" fill="#7378ff" fill-rule="nonzero" opacity="1" stroke="none" vectornator:layerName="Curve 3"/>
<path d="M402.797 402.2L457.87 429.843L566.619 428.815L618.646 403.973L569.688 379.229L458.191 377.251L402.797 402.2Z" fill="#e0e1ff" fill-rule="nonzero" opacity="1" stroke="none" vectornator:layerName="Curve 4"/>
<path d="M677.773 466.725L589.221 499.661L565.782 428.703L626.21 404.663L677.773 466.725Z" fill="#9d9fff" fill-rule="nonzero" opacity="1" stroke="none" vectornator:layerName="Curve 5"/>
<path d="M458.779 430.284L439.06 498.797L587.581 499.318L568.031 428.792L458.779 430.284Z" fill="#7076ff" fill-rule="nonzero" opacity="1" stroke="none" vectornator:layerName="Curve 6"/>
<path d="M347.75 464.921L402.904 403.158L457.772 430.191L437.893 498.249L347.75 464.921Z" fill="#a3a6f5" fill-rule="nonzero" opacity="1" stroke="none" vectornator:layerName="Curve 7"/>
</g>
<path d="M512.681 647.599L347.87 465.87L402.828 403.42L457.563 378.979L568.601 378.966L624.904 404.2L677.51 466.797L512.681 647.599Z" fill="#0009ff" fill-opacity="0.14" fill-rule="nonzero" opacity="1" stroke="none" vectornator:layerName="Curve 1"/>
</g>
<g opacity="1" vectornator:layerName="Group 4">
<path d="M512 648.158L346.227 466.026L435.849 498.356L587.088 498.356L677.773 466.026L512 648.158Z" fill="none" opacity="1" stroke="#000000" stroke-linecap="butt" stroke-linejoin="round" stroke-width="14" vectornator:layerName="Polygon 1"/>
<path d="M435.376 499.968L507.528 640.566" fill="none" opacity="1" stroke="#000000" stroke-linecap="butt" stroke-linejoin="round" stroke-width="14" vectornator:layerName="Curve 2"/>
<path d="M588.078 499.253L511.663 648.158" fill="none" opacity="1" stroke="#000000" stroke-linecap="butt" stroke-linejoin="round" stroke-width="14" vectornator:layerName="Curve 1"/>
<path d="M346.227 466.066L399.278 402.997L456.492 378.719L567.508 378.679L624.722 402.957L677.773 466.026" fill="none" opacity="1" stroke="#000000" stroke-linecap="butt" stroke-linejoin="round" stroke-width="14" vectornator:layerName="Curve 4"/>
<path d="M400.534 402.703L457.287 428.062L565.28 428.062L622.033 402.703" fill="none" opacity="1" stroke="#000000" stroke-linecap="butt" stroke-linejoin="round" stroke-width="14" vectornator:layerName="Curve 6"/>
<path d="M457.946 429.242C457.946 429.242 436.309 498.369 436.309 498.886" fill="none" opacity="1" stroke="#000000" stroke-linecap="butt" stroke-linejoin="round" stroke-width="14" vectornator:layerName="Curve 8"/>
<path d="M565.441 429.61C565.441 429.61 587.078 498.737 587.078 499.253" fill="none" opacity="1" stroke="#000000" stroke-linecap="butt" stroke-linejoin="round" stroke-width="14" vectornator:layerName="Curve 7"/>
</g>
</g>
<g opacity="0" vectornator:layerName="Coin6">
<path d="M511.406 313.474C494.892 313.474 478.757 323.237 471.418 339.278C395.121 356.506 335.635 422.257 335.579 504.5C335.579 504.527 335.579 504.566 335.579 504.596C335.579 508.814 335.579 517.251 335.579 521.469C335.579 625.416 414.207 709.816 511.406 709.816C608.624 709.816 687.233 625.392 687.233 521.469C687.233 517.251 687.233 508.814 687.233 504.596C687.233 504.566 687.233 504.527 687.233 504.5C687.177 422.247 627.636 356.491 551.364 339.278C543.999 323.239 527.849 313.474 511.406 313.474Z" fill="#000000" fill-opacity="0.08" fill-rule="nonzero" opacity="1" stroke="none" vectornator:layerName="Curve 3"/>
<g opacity="1" vectornator:layerName="Group 5">
<g opacity="1" vectornator:layerName="Group 4">
<path d="M349.873 492.457L349.873 514.082C349.873 603.301 422.185 675.613 511.405 675.613C600.624 675.613 672.936 603.301 672.936 514.082L672.936 492.457L349.873 492.457Z" fill="#ffbf00" fill-rule="nonzero" opacity="1" stroke="none" vectornator:layerName="Curve 2"/>
<path d="M566.968 632.678C566.968 632.678 527.998 666.413 487.538 671.256C487.538 671.256 542.021 689.179 595.313 653.031C648.606 616.883 668.421 552.49 668.421 552.49C668.421 552.49 620.064 615.101 566.968 632.678Z" fill="#ffb300" fill-rule="nonzero" opacity="1" stroke="none" vectornator:layerName="Curve 3"/>
<path d="M349.873 492.457L349.873 514.082C349.873 603.301 422.185 675.613 511.405 675.613C600.624 675.613 672.936 603.301 672.936 514.082L672.936 492.457L349.873 492.457Z" fill="none" opacity="1" stroke="#000000" stroke-linecap="round" stroke-linejoin="round" stroke-width="14" vectornator:layerName="Curve 1"/>
</g>
<g opacity="1" vectornator:layerName="Group 3">
<path d="M511.405 328.301C498.57 328.301 488.155 337.56 488.155 348.969C488.155 349.524 488.294 350.036 488.342 350.58C410.072 360.548 349.873 420.226 349.873 492.561C349.873 571.873 422.185 636.154 511.405 636.154C600.624 636.154 672.936 571.873 672.936 492.561C672.936 420.226 612.737 360.548 534.467 350.58C534.516 350.036 534.655 349.524 534.655 348.969C534.655 337.56 524.239 328.301 511.405 328.301Z" fill="#ffdf40" fill-rule="nonzero" opacity="1" stroke="none" vectornator:layerName="Curve 4"/>
<path d="M550.271 355.363C550.271 355.363 629.202 411.566 607.795 491.254C586.388 570.942 472.103 632.554 472.103 632.554C472.103 632.554 645.613 664.8 674.127 500.129C665.865 370.458 550.271 355.363 550.271 355.363Z" fill="#ffc800" fill-rule="nonzero" opacity="1" stroke="none" vectornator:layerName="Curve 7"/>
<path d="M377.001 570.91C377.001 570.91 371.767 481.942 404.968 429.052C438.168 376.162 504.09 364.278 504.09 364.278C504.09 364.278 503.189 338.232 525.535 339.09C541.168 339.69 499.29 330.35 499.29 330.35L489.613 349.916C489.613 349.916 390.414 365.6 362.468 436.861C334.522 508.122 377.001 570.91 377.001 570.91Z" fill="#ffea80" fill-rule="nonzero" opacity="1" stroke="none" vectornator:layerName="Curve 8"/>
<g opacity="1" vectornator:layerName="Group 2">
<path d="M533.561 376.832C529.433 376.338 525.677 378.982 525.248 382.665C523.196 400.319 519.082 435.627 517.03 453.281C515.248 468.61 536.952 476.497 547.811 464.615C560.42 450.818 585.639 423.214 598.248 409.417C600.883 406.535 600.3 402.295 596.967 400.055C578.838 387.872 557.179 379.654 533.561 376.832ZM496.561 376.915C472.418 379.907 450.3 388.493 431.967 401.25C428.717 403.512 428.209 407.707 430.811 410.556C443.779 424.752 469.687 453.141 482.655 467.338C493.584 479.302 515.238 471.233 513.467 456.004C511.338 437.686 507.065 401.066 504.936 382.749C504.506 379.053 500.7 376.402 496.561 376.915ZM618.092 420.557C616.182 420.355 614.176 420.835 612.561 422.001C597.733 432.709 568.503 453.794 553.248 464.81C553.149 464.881 552.77 465.162 552.373 465.449C538.916 475.166 547.991 494.389 565.123 492.812C584.533 491.024 623.339 487.459 642.748 485.672C646.934 485.287 649.934 481.871 649.311 478.172C645.856 457.667 636.637 438.873 623.092 423.112C621.829 421.642 620.002 420.758 618.092 420.557ZM411.655 421.835C409.731 422.049 407.876 422.919 406.623 424.418C393.695 439.892 384.897 458.201 381.53 478.116C380.904 481.817 383.905 485.231 388.092 485.617C406.675 487.327 443.822 490.739 462.405 492.45C479.649 494.038 488.521 474.742 475.155 465.087C460.667 454.624 431.705 433.715 417.217 423.251C415.586 422.073 413.579 421.62 411.655 421.835ZM557.967 495.923C542.832 496.769 535.842 514.29 548.373 523.341C564.494 534.986 596.722 558.256 612.842 569.9C616.081 572.24 620.852 571.745 623.373 568.789C637.45 552.285 646.837 532.473 649.811 510.868C650.313 507.224 647.356 503.913 643.248 503.534C622.712 501.643 581.66 497.87 561.123 495.978C560.046 495.879 558.976 495.866 557.967 495.923ZM472.061 496.034C471.057 495.977 470.007 496.019 468.936 496.117C448.589 497.989 407.908 501.719 387.561 503.59C383.451 503.968 380.495 507.278 380.998 510.924C383.964 532.385 393.259 552.054 407.186 568.483C409.703 571.452 414.502 571.966 417.748 569.622C433.522 558.234 464.657 535.777 480.842 524.091C480.748 524.16 480.93 524.026 481.686 523.48C494.303 514.371 487.125 496.883 472.061 496.034ZM498.748 519.48C493.436 519.027 487.851 520.718 483.78 525.175C470.748 539.441 444.686 567.968 431.655 582.234C429.038 585.099 429.584 589.317 432.873 591.568C451.33 604.197 473.522 612.65 497.748 615.459C501.868 615.936 505.634 613.298 506.061 609.625C508.184 591.341 512.438 554.793 514.561 536.509C515.673 526.928 507.602 520.235 498.748 519.48ZM533.905 522.23C525.057 523.01 517.047 529.74 518.155 539.259C520.197 556.803 524.269 591.886 526.311 609.43C526.742 613.134 530.539 615.791 534.686 615.264C558.093 612.289 579.549 604.031 597.498 591.846C600.807 589.6 601.373 585.357 598.748 582.484C586.56 569.141 562.704 543.029 549.998 529.119C549.879 528.988 549.415 528.449 548.936 527.925C544.837 523.438 539.214 521.762 533.905 522.23Z" fill="#ffc800" fill-rule="nonzero" opacity="1" stroke="none" vectornator:layerName="Curve 10"/>
<path d="M528.592 379.776L520.384 450.392C519.363 459.18 531.826 463.768 538.093 456.91L588.53 401.722C571.383 390.199 550.922 382.444 528.592 379.776ZM493.592 379.86C470.755 382.69 449.859 390.802 432.53 402.861L484.4 459.645C490.666 466.505 503.132 461.918 502.11 453.128L493.592 379.86ZM613.217 423.529L553.025 466.994C545.309 472.566 550.473 483.647 560.36 482.736L637.998 475.588C634.731 456.196 626.024 438.431 613.217 423.529ZM408.561 424.779C396.337 439.409 388.027 456.698 384.842 475.533L459.175 482.376C469.062 483.286 474.225 472.207 466.511 466.635L408.561 424.779ZM556.353 498.942C546.466 498.031 541.302 509.111 549.016 514.683L613.498 561.26C626.813 545.65 635.687 526.933 638.498 506.507L556.353 498.942ZM473.033 514.82C480.749 509.249 475.587 498.168 465.7 499.077L384.311 506.562C387.115 526.849 395.917 545.44 409.092 560.983L473.033 514.82ZM503.209 532.268C504.229 523.478 491.764 518.892 485.499 525.751L433.373 582.817C450.826 594.759 471.805 602.746 494.717 605.402L503.209 532.268ZM539.196 528.512C532.929 521.651 520.462 526.24 521.486 535.03L529.655 605.208C551.788 602.395 572.054 594.591 589.03 583.067L539.196 528.512Z" fill="#ffc800" fill-rule="nonzero" opacity="1" stroke="none" vectornator:layerName="Curve 5"/>
<path d="M492.592 378.971C489.318 379.376 486.094 379.907 482.905 380.526L490.123 442.447C490.931 449.396 483.323 453.638 476.998 451.753L483.405 458.754C489.671 465.613 502.145 461.015 501.123 452.225L492.592 378.971ZM574.561 393.194L526.092 446.253C524.23 448.291 521.814 449.213 519.373 449.42L519.373 449.503C518.352 458.292 530.825 462.889 537.092 456.031L587.53 400.833C583.399 398.057 579.056 395.514 574.561 393.194ZM612.217 422.64L609.873 424.335C617.959 436.585 623.533 450.287 625.998 464.921L548.467 472.06C547.911 477.194 552.419 482.479 559.373 481.839L636.998 474.699C633.731 455.307 625.024 437.542 612.217 422.64ZM457.623 460.059C459.726 465.678 454.995 472.418 447.186 471.699L385.905 466.06C385.167 468.907 384.337 471.717 383.842 474.644L458.186 481.477C468.073 482.388 473.213 471.326 465.498 465.754L457.623 460.059ZM464.592 498.201C464.353 500.361 463.313 502.497 461.03 504.146L399.53 548.565C402.135 552.565 404.976 556.417 408.092 560.094L472.03 513.924C479.746 508.353 474.574 497.291 464.686 498.201L464.592 498.201ZM624.905 504.451C621.041 521.528 612.918 537.205 601.498 550.593L544.905 509.702C545.464 511.197 546.408 512.614 548.03 513.785L612.498 560.372C625.813 544.761 634.687 526.044 637.498 505.618L624.905 504.451ZM493.123 521.591C492.489 521.536 491.856 521.648 491.217 521.702L482.717 594.735C465.188 592.703 448.801 587.529 434.248 579.873L432.373 581.929C449.826 593.87 470.805 601.857 493.717 604.513L502.217 531.37C502.855 525.876 498.215 522.033 493.123 521.591ZM533.592 524.841L577.03 572.4C562.565 582.219 545.705 589.326 527.342 592.957L528.655 604.319C550.788 601.506 571.054 593.702 588.03 582.179L538.186 527.619C536.869 526.178 535.274 525.339 533.592 524.841Z" fill="#ffb300" fill-rule="nonzero" opacity="1" stroke="none" vectornator:layerName="Curve 6"/>
<g opacity="1" vectornator:layerName="Group 1">
<path d="M440.789 407.668C437.531 402.687 442.67 394.628 452.267 389.668C461.864 384.707 472.285 384.724 475.543 389.705C478.801 394.686 473.662 402.745 464.064 407.705C454.467 412.665 444.046 412.649 440.789 407.668Z" fill="#ffe566" fill-rule="nonzero" opacity="1" stroke="none" vectornator:layerName="Oval 3"/>
<path d="M403.019 447.201C398.949 440.979 400.781 433.282 407.111 430.011C413.44 426.74 421.87 429.132 425.94 435.354C430.01 441.577 428.178 449.273 421.848 452.544C415.519 455.816 407.089 453.423 403.019 447.201Z" fill="#ffe566" fill-rule="nonzero" opacity="1" stroke="none" vectornator:layerName="Oval 2"/>
<path d="M386.731 518.836C384.148 512.015 390.419 503.981 400.739 500.893C411.058 497.805 421.518 500.831 424.101 507.653C426.685 514.474 420.413 522.508 410.094 525.596C399.774 528.684 389.315 525.658 386.731 518.836Z" fill="#ffe566" fill-rule="nonzero" opacity="1" stroke="none" vectornator:layerName="Oval 4"/>
<path d="M453.375 577.496C448.035 574.866 447.984 565.87 453.26 557.403C458.536 548.936 467.142 544.204 472.483 546.834C477.823 549.464 477.874 558.459 472.598 566.926C467.322 575.393 458.716 580.125 453.375 577.496Z" fill="#ffe566" fill-rule="nonzero" opacity="1" stroke="none" vectornator:layerName="Oval 5"/>
<path d="M530.798 556.632C525.115 557.09 520.624 551.412 520.768 543.951C520.912 536.491 525.636 530.071 531.32 529.613C537.003 529.155 541.493 534.833 541.349 542.293C541.205 549.754 536.481 556.174 530.798 556.632Z" fill="#ffe566" fill-rule="nonzero" opacity="1" stroke="none" vectornator:layerName="Oval 6"/>
<path d="M553.785 521.119C546.535 517.549 544.141 509.065 548.438 502.169C552.735 495.273 562.096 492.578 569.346 496.148C576.597 499.718 578.991 508.203 574.693 515.098C570.396 521.994 561.035 524.69 553.785 521.119Z" fill="#ffe566" fill-rule="nonzero" opacity="1" stroke="none" vectornator:layerName="Oval 7"/>
<path d="M573.04 458.707C569.749 454.765 574.636 446.584 583.956 440.434C593.276 434.284 603.501 432.494 606.792 436.437C610.084 440.379 605.197 448.56 595.877 454.71C586.556 460.86 576.332 462.65 573.04 458.707Z" fill="#ffe566" fill-rule="nonzero" opacity="1" stroke="none" vectornator:layerName="Oval 8"/>
<path d="M529.835 399.378C524.466 392.949 524.881 384.591 530.762 380.71C536.643 376.83 545.763 378.896 551.132 385.326C556.5 391.755 556.085 400.113 550.204 403.994C544.323 407.874 535.203 405.808 529.835 399.378Z" fill="#ffe566" fill-rule="nonzero" opacity="1" stroke="none" vectornator:layerName="Oval 1"/>
</g>
<path d="M528.592 379.776L520.384 450.392C519.363 459.18 531.826 463.768 538.093 456.91L588.53 401.722C571.383 390.199 550.922 382.444 528.592 379.776ZM493.592 379.86C470.755 382.69 449.859 390.802 432.53 402.861L484.4 459.645C490.666 466.505 503.132 461.918 502.11 453.128L493.592 379.86ZM613.217 423.529L553.025 466.994C545.309 472.566 550.473 483.647 560.36 482.736L637.998 475.588C634.731 456.196 626.024 438.431 613.217 423.529ZM408.561 424.779C396.337 439.409 388.027 456.698 384.842 475.533L459.175 482.376C469.062 483.286 474.225 472.207 466.511 466.635L408.561 424.779ZM556.353 498.942C546.466 498.031 541.302 509.111 549.016 514.683L613.498 561.26C626.813 545.65 635.687 526.933 638.498 506.507L556.353 498.942ZM473.033 514.82C480.749 509.249 475.587 498.168 465.7 499.077L384.311 506.562C387.115 526.849 395.917 545.44 409.092 560.983L473.033 514.82ZM503.209 532.268C504.229 523.478 491.764 518.892 485.499 525.751L433.373 582.817C450.826 594.759 471.805 602.746 494.717 605.402L503.209 532.268ZM539.196 528.512C532.929 521.651 520.462 526.24 521.486 535.03L529.655 605.208C551.788 602.395 572.054 594.591 589.03 583.067L539.196 528.512Z" fill="none" opacity="1" stroke="#000000" stroke-linecap="round" stroke-linejoin="round" stroke-width="14" vectornator:layerName="Curve 3"/>
</g>
<path d="M511.405 328.301C498.57 328.301 488.155 337.56 488.155 348.969C488.155 349.524 488.294 350.036 488.342 350.58C410.072 360.548 349.873 420.226 349.873 492.561C349.873 571.873 422.185 636.154 511.405 636.154C600.624 636.154 672.936 571.873 672.936 492.561C672.936 420.226 612.737 360.548 534.467 350.58C534.516 350.036 534.655 349.524 534.655 348.969C534.655 337.56 524.239 328.301 511.405 328.301Z" fill="none" opacity="1" stroke="#000000" stroke-linecap="round" stroke-linejoin="round" stroke-width="14" vectornator:layerName="Curve 2"/>
</g>
</g>
</g>
<g opacity="1" vectornator:layerName="Group 5">
<g opacity="1" vectornator:layerName="Group 5">
<path d="M913.469 108.156C906.655 108.529 900.001 111.664 895.344 117.469C891.15 122.696 884.85 130.538 878.562 138.375C877.87 137.313 877.227 136.27 876.312 135.094C876.312 135.094 872.975 132.094 872.406 131.688C869.854 129.866 868.582 129.386 867.562 128.938C865.634 128.09 864.618 127.816 863.5 127.469C861.375 126.808 859.278 126.262 856.844 125.656C852.041 124.462 846.094 123.115 840.125 121.812C828.221 119.216 816.44 116.826 816.375 116.812C802.823 114.062 789.627 122.849 786.906 136.406C786.524 138.313 785.915 141.343 785.375 144.031C617.537 154.507 308.938 173.775 150.125 183.688C86.7151 187.645 38.5759 242.243 42.5312 305.625C49.4982 417.164 62.8769 631.239 70.4062 751.781C70.2417 751.833 70.0249 751.89 69.875 751.938C69.838 751.949 68.2813 752.469 68.2812 752.469C66.123 753.254 64.1137 754.345 62.25 755.688C62.25 755.688 59.463 758.004 57.2812 760.406C57.2812 760.406 55.6282 762.746 53.9688 765.875C53.9688 765.875 52.7493 769.284 52.4062 770.656C51.6643 774.029 51.7585 775.866 51.8125 777.188C51.9177 779.761 52.2063 780.833 52.4062 781.781C52.7813 783.56 53.1014 784.539 53.4375 785.625C54.081 787.704 54.8195 789.803 55.7188 792.281C57.4979 797.185 59.8445 803.297 62.2188 809.375C66.9563 821.504 71.7602 833.417 71.7812 833.469C74.0786 839.144 78.1846 843.282 83 845.906C79.7304 849.117 76.7068 852.093 74.5938 854.188C73.3886 855.382 72.4209 856.351 71.6562 857.125C71.2673 857.519 70.9617 857.833 70.5938 858.219C69.7312 859.124 70.4304 857.029 66.8438 863.094C66.4921 863.688 66.1762 864.285 65.875 864.906C65.875 864.906 64.3501 868.858 63.5312 872.906C63.5312 872.906 63.3901 876.777 64.0625 881.688C64.0625 881.688 65.7286 886.483 66.625 888.219C68.9291 892.283 70.8126 893.761 71.9688 894.781C74.2675 896.81 75.3575 897.341 76.3125 897.906C78.0977 898.962 79.2489 899.494 80.5938 900.125C83.1845 901.341 86.1541 902.621 89.7188 904.094C96.7939 907.017 105.963 910.607 115.156 914.156C133.515 921.243 151.888 928.106 151.938 928.125C165.585 933.212 180.665 925.593 184.688 911.594C186.759 904.383 189.909 893.401 192.969 882.75C193.241 882.735 193.509 882.767 193.781 882.75C363.805 872.141 703.852 850.922 873.875 840.312C937.285 836.355 985.424 781.757 981.469 718.375C974.141 600.992 959.484 366.227 952.156 248.844C951.511 238.501 949.496 228.558 946.312 219.156C950.037 217.369 954.872 215.063 957.969 213.562C962.508 211.364 966.258 209.534 969.062 208.125C970.478 207.414 971.639 206.829 972.719 206.25C973.277 205.95 973.792 205.678 974.562 205.219C974.967 204.977 975.408 204.718 976.219 204.156L979.469 201.5C980.35 200.65 981.159 199.72 981.906 198.75C986.96 192.186 987.279 185.474 987.094 182.031C986.894 178.325 986.136 176.221 985.594 174.719C984.525 171.757 983.683 170.52 983.031 169.469C981.786 167.46 980.911 166.396 979.969 165.219C978.156 162.953 976.158 160.679 973.781 158.062C969.077 152.884 963.031 146.542 956.938 140.25C944.777 127.695 932.583 115.49 932.531 115.438C927.268 110.175 920.282 107.783 913.469 108.156Z" fill="#000000" fill-opacity="0.08" fill-rule="nonzero" opacity="1" stroke="none" vectornator:layerName="Curve 2"/>
<g opacity="1" vectornator:layerName="Group 4">
<g opacity="1" vectornator:layerName="Group 3">
<path d="M67.4784 304.05C64.3826 254.441 102.089 211.715 151.698 208.619L831.788 166.178C881.397 163.082 924.123 200.788 927.219 250.397L956.522 719.95C959.617 769.559 921.911 812.285 872.302 815.381L192.212 857.822C142.603 860.918 99.877 823.212 96.7811 773.603L67.4784 304.05Z" fill="#ff0031" fill-rule="nonzero" opacity="1" stroke="none" vectornator:layerName="Rectangle 1"/>
<path d="M935.617 356.085C935.617 356.085 963.602 668.674 869.235 745.168C774.868 821.662 351.078 848.802 351.078 848.802L892.223 814.419L937.038 786.298L958.258 734.098L935.617 356.085Z" fill="#de002b" fill-rule="nonzero" opacity="1" stroke="none" vectornator:layerName="Curve 2"/>
<path d="M116.107 360.589L116.405 365.362" fill="none" opacity="1" stroke="#ff738e" stroke-linecap="round" stroke-linejoin="round" stroke-width="30" vectornator:layerName="Curve 3"/>
<path d="M170.408 252.539L154.5 253.531C129.727 255.077 110.858 276.436 112.406 301.25L113.865 324.647" fill="none" opacity="1" stroke="#ff738e" stroke-linecap="round" stroke-linejoin="round" stroke-width="30" vectornator:layerName="Curve 1"/>
<path d="M67.4784 304.05C64.3826 254.441 102.089 211.715 151.698 208.619L831.788 166.178C881.397 163.082 924.123 200.788 927.219 250.397L956.522 719.95C959.617 769.559 921.911 812.285 872.302 815.381L192.212 857.822C142.603 860.918 99.877 823.212 96.7811 773.603L67.4784 304.05Z" fill="none" opacity="1" stroke="#000000" stroke-linecap="round" stroke-linejoin="round" stroke-width="14" vectornator:layerName="Rectangle 2"/>
</g>
<g opacity="1" vectornator:layerName="Group 2">
<path d="M297.773 248.492C289.786 248.478 282.009 248.815 274.46 249.523C266.938 250.228 259.789 251.258 252.991 252.617C246.118 253.991 239.842 255.714 234.116 257.898C228.397 260.08 223.257 262.682 218.773 266.273C214.05 270.054 209.367 275.923 208.585 283.773C204.601 323.789 196.632 403.82 192.648 443.836C191.861 451.734 192.691 459.675 195.773 466.961C198.636 473.732 203.123 479.678 208.773 484.429C214.24 489.028 220.645 492.504 227.648 494.992C222.155 495.724 216.779 496.957 211.616 498.804C200.276 502.863 190.39 509.416 182.804 518.336C180.475 521.073 179.218 524.554 179.241 528.148C179.389 551.036 180.456 572.461 182.491 592.429C184.503 612.17 187.011 630.324 190.023 646.961C193.016 663.495 196.316 678.377 199.96 691.617C203.531 704.59 207.003 715.863 210.46 725.523C211.075 727.24 211.993 728.825 213.179 730.211C216.93 734.598 221.543 738.191 226.679 740.929C231.183 743.331 236.017 745.342 241.148 746.992C246.247 748.632 251.482 749.862 256.773 750.773C261.759 751.632 266.609 752.328 271.398 752.804C283.056 753.965 293.885 753.856 303.898 752.304C312.034 751.044 319.782 748.507 326.96 744.742C327.808 745.735 328.75 746.653 329.835 747.398C332.942 749.533 336.36 751.335 340.148 753.054C343.886 754.751 347.797 756.282 351.929 757.648C356.053 759.013 360.243 760.159 364.491 761.148C368.862 762.167 373.09 762.926 377.21 763.336C385.678 764.179 393.693 764.358 401.273 763.804C409.034 763.237 416.444 761.761 423.398 759.211C430.449 756.625 436.937 752.872 442.616 748.086C448.453 743.167 453.343 737.072 457.366 730.117C457.376 730.101 457.388 730.102 457.398 730.086C459.649 726.16 461.849 721.511 464.273 715.867C466.634 710.367 469.152 704.213 471.804 697.398C472.803 694.83 473.829 691.875 474.835 689.179C473.693 700.643 472.232 715.242 471.366 723.929C470.563 731.999 471.767 740.144 475.366 747.398C478.618 753.953 483.393 759.661 489.241 764.148C494.884 768.477 501.334 771.771 508.366 774.148C515.226 776.467 522.357 777.95 529.679 778.679C542.925 779.998 555.138 779.401 566.21 776.367C575.775 773.745 584.005 770.373 590.929 765.586C593.424 768.893 596.303 771.909 599.585 774.492C605.311 778.998 611.976 782.46 619.335 784.992C626.642 787.506 634.438 789.106 642.71 789.929C649.766 790.632 656.364 790.807 662.585 790.304C668.235 789.848 673.42 789.09 678.21 787.961C682.794 786.88 686.945 785.572 690.741 783.898C693.449 782.705 695.794 781.611 698.054 780.429C698.14 780.566 698.186 780.699 698.273 780.836C699.234 782.355 700.464 783.688 701.898 784.773C704.794 786.965 707.958 788.79 711.398 790.429C714.694 792 718.171 793.39 721.773 794.648C725.59 795.982 729.617 797.108 733.835 797.992C738.001 798.865 742.114 799.49 746.21 799.898C752.805 800.555 759.334 800.685 765.741 800.273C772.522 799.837 778.984 798.559 784.991 796.304C791.376 793.908 797.25 790.119 801.866 784.929C807.133 779.009 809.896 771.565 810.648 764.023C814.616 724.133 822.554 644.351 826.523 604.461C827.417 595.481 826.511 586.577 822.741 578.523C819.391 571.363 814.332 565.141 808.023 560.429C802.119 556.021 795.364 552.716 787.991 550.492C781.13 548.422 774.07 547.053 766.866 546.336C762.064 545.858 757.171 545.738 752.179 545.961C747.122 546.186 742.095 546.784 737.148 547.773C732.125 548.777 727.278 550.224 722.648 552.023C718.539 553.619 714.68 555.636 711.023 557.961C710.647 557.352 710.238 556.545 709.866 555.961C709.237 554.971 708.49 554.058 707.648 553.242C702.534 548.286 696.279 544.938 689.085 542.086C687.028 541.27 684.821 540.74 682.679 540.086C686.763 540.493 691.445 540.951 694.366 541.242C714.391 543.235 733.115 542.513 750.398 538.867C767.659 535.226 783.202 528.703 796.585 519.179C810.008 509.628 820.869 497.212 828.898 482.429C837.024 467.467 841.879 450.294 843.773 431.273C845.897 409.939 844.649 390.551 839.46 373.336C834.389 356.512 826.094 341.737 814.616 329.648C803.301 317.731 789.356 308.495 773.273 301.929C757.406 295.453 739.908 291.328 720.835 289.429C715.413 288.89 709.949 288.557 704.523 288.429C699.112 288.302 693.739 288.393 688.335 288.679C677.578 289.25 667.61 290.55 658.429 292.711C649.171 294.889 640.976 297.924 633.929 302.242C633.681 302.394 633.457 302.615 633.21 302.773C633.163 302.623 633.164 302.454 633.116 302.304C631.985 298.749 630.67 295.325 629.054 292.023C626.771 287.358 622.254 284.194 617.085 283.679C592.78 281.258 544.171 276.414 519.866 273.992C500.281 272.042 484.201 271.168 471.335 271.398C467.05 271.475 463.112 271.667 459.429 272.023C452.081 272.734 445.639 273.964 439.648 276.961C433.734 279.918 426.983 286.061 426.054 295.398C425.826 297.687 425.4 302.019 425.148 304.554C420.388 296.194 414.316 288.607 406.929 282.054C396.447 272.757 383.749 265.557 369.241 260.211C354.773 254.879 338.835 251.406 321.491 249.679C313.714 248.905 305.807 248.506 297.773 248.492ZM314.929 352.679L317.616 353.992L315.554 354.492C315.875 354.478 315.46 354.461 315.46 354.461L313.898 353.179L314.929 352.679ZM415.148 405.023C414.777 408.749 414.472 411.85 414.116 415.429C412.584 413.514 411.166 411.732 409.773 409.992C411.338 408.6 413.007 407.323 414.46 405.804C414.699 405.555 414.912 405.276 415.148 405.023ZM312.054 487.992C314.633 490.899 317.405 493.564 320.398 495.929C326.308 500.601 332.819 504.208 339.741 506.554C345.992 508.673 352.363 510.069 358.804 510.711C377.996 512.621 395.856 508.391 409.46 496.398C411.971 494.184 414.253 491.738 416.398 489.179C418.771 493.503 421.663 497.514 425.21 500.992C430.682 506.358 437.254 510.426 444.46 513.273C445.967 513.868 447.568 514.241 449.116 514.742C437.967 513.744 428.235 513.85 419.616 515.617C411.763 517.227 404.731 519.436 398.491 522.804C396.757 523.741 395.304 525.04 394.085 526.523C391.662 524.383 389.053 522.461 386.241 520.804C380.684 517.53 374.549 515.034 367.96 513.273C361.74 511.611 355.486 510.492 349.21 509.867C340.952 509.045 332.688 509.224 324.585 510.429C316.555 511.624 309.155 513.725 302.429 516.929C301.666 517.293 300.954 517.764 300.273 518.242C298.129 515.573 295.731 513.095 293.054 510.898C287.355 506.221 280.638 502.692 273.273 500.086C276.147 499.84 279.005 499.514 281.835 499.054C292.219 497.368 301.801 494.153 310.304 489.273C310.94 488.908 311.486 488.439 312.054 487.992ZM612.71 517.398C613.241 518.079 613.725 518.774 614.304 519.429C622.458 528.655 633.689 533.821 646.179 536.023C645.279 536.077 644.353 536.041 643.46 536.117C636.827 536.682 630.642 537.71 624.866 539.492C618.987 541.306 613.566 543.95 608.929 547.836C608.207 548.44 607.522 549.172 606.835 549.867C604.14 546.232 600.995 542.932 597.366 540.148C591.724 535.819 585.274 532.526 578.241 530.148C577.323 529.838 576.359 529.649 575.429 529.367C580.849 529.907 588.554 530.681 592.929 531.117C597.16 531.538 601.379 530.136 604.523 527.273C607.621 524.451 610.353 521.1 612.71 517.398ZM469.241 518.804C486.471 520.52 510.775 522.928 535.585 525.398C530.338 525.828 525.242 526.57 520.398 527.898C511.396 530.365 503.623 533.549 496.96 537.898C496.154 536.876 495.376 535.831 494.491 534.867C489.17 529.067 482.619 524.519 475.273 521.179C473.315 520.289 471.297 519.514 469.241 518.804Z" fill="#de002b" fill-rule="nonzero" opacity="1" stroke="none" vectornator:layerName="Curve 2"/>
<g opacity="1" vectornator:layerName="Group 1">
<g opacity="1" vectornator:layerName="Group 2">
<path d="M419.808 426.568C416.188 443.564 409.435 456.419 399.549 465.134C389.663 473.849 376.576 477.395 360.289 475.774C355.01 475.248 349.764 474.102 344.551 472.335C339.339 470.569 334.393 467.836 329.713 464.137C325.033 460.438 320.78 455.591 316.952 449.594C313.125 443.598 310.07 436.119 307.786 427.157L303.364 410.041C298.994 409.493 295.481 408.888 292.825 408.226C290.168 407.565 287.789 406.959 285.689 406.41C285.318 406.713 284.964 407.132 284.628 407.665C284.291 408.199 284.072 408.971 283.972 409.982C283.837 411.33 284.621 412.571 286.324 413.705C288.026 414.838 291.612 415.848 297.082 416.732L304.271 441.951L302.845 456.272C296.108 460.139 288.3 462.793 279.421 464.235C270.543 465.677 261.33 465.922 251.782 464.972C244.818 464.279 238.514 462.942 232.869 460.962C227.224 458.982 222.412 456.319 218.435 452.974C214.457 449.628 211.504 445.676 209.576 441.117C207.647 436.557 206.98 431.301 207.572 425.348L223.507 265.284C223.764 262.7 225.31 260.273 228.146 258.003C230.981 255.733 234.756 253.699 239.473 251.899C244.19 250.1 249.673 248.576 255.923 247.326C262.173 246.077 268.82 245.122 275.862 244.462C282.904 243.801 290.196 243.478 297.739 243.492C305.281 243.505 312.703 243.875 320.004 244.602C336.291 246.224 350.973 249.443 364.049 254.262C377.125 259.08 388.093 265.419 396.953 273.277C405.813 281.136 412.349 290.408 416.56 301.093C420.771 311.779 422.206 323.861 420.864 337.34C420.081 345.203 418.152 352.328 415.078 358.714C412.003 365.101 408.187 370.677 403.628 375.441C399.07 380.206 393.886 384.142 388.074 387.25C382.263 390.358 376.23 392.565 369.974 393.871C369.773 395.893 370.195 397.353 371.24 398.251C372.285 399.149 373.593 399.676 375.166 399.833C376.738 399.989 379.153 399.663 382.41 398.853C385.667 398.042 389.407 396.373 393.629 393.844L419.808 426.568ZM310.513 346.773C310.828 347.031 311.347 347.225 312.072 347.354C312.796 347.483 313.271 347.558 313.496 347.581C316.191 347.849 318.185 347.197 319.476 345.624C320.767 344.051 321.602 341.354 321.983 337.535L322.586 331.47C322.978 327.538 322.786 324.627 322.01 322.734C321.234 320.842 319.554 319.767 316.971 319.51C316.409 319.454 315.73 319.443 314.932 319.477C314.135 319.511 313.5 319.618 313.028 319.798C313.051 320.708 313.012 321.668 312.912 322.679C312.811 323.69 312.705 324.757 312.593 325.881L310.513 346.773Z" fill="#ffffff" fill-rule="nonzero" opacity="1" stroke="#000000" stroke-linecap="round" stroke-linejoin="round" stroke-width="14"/>
<path d="M615.585 278.622C616.811 281.126 617.899 283.872 618.849 286.86C619.799 289.847 620.514 292.924 620.993 296.091C621.472 299.259 621.782 302.409 621.924 305.543C622.065 308.676 622.002 311.591 621.734 314.287C620.582 325.857 617.48 334.226 612.428 339.395C607.376 344.564 600.918 346.757 593.055 345.974L525.155 339.214C520.999 338.801 518.758 340.223 518.434 343.48C518.412 343.705 518.367 344.154 518.3 344.828C518.233 345.502 518.3 345.962 518.503 346.209L599.04 354.227C599.883 356.013 600.64 358.101 601.309 360.494C601.978 362.886 602.496 365.376 602.862 367.965C603.229 370.554 603.477 373.188 603.607 375.866C603.738 378.545 603.685 381.064 603.45 383.423C602.78 390.162 601.505 396.133 599.625 401.334C597.746 406.535 595.51 410.765 592.917 414.024L556.355 410.384C546.807 409.433 538.891 408.901 532.607 408.785C526.323 408.67 521.344 408.827 517.671 409.255C513.999 409.684 511.385 410.303 509.829 411.112C508.274 411.921 507.446 412.832 507.346 413.843C507.256 414.741 507.313 415.598 507.515 416.412C507.718 417.226 508.296 417.964 509.251 418.627C512.149 418.008 515.092 417.506 518.079 417.123C521.067 416.74 524.377 416.531 528.011 416.495C531.644 416.46 535.691 416.551 540.15 416.768C544.609 416.985 549.759 417.384 555.6 417.966L602.946 422.679C604.002 424.599 605.039 426.716 606.057 429.03C607.074 431.343 607.918 433.979 608.588 436.939C609.257 439.898 609.716 443.262 609.965 447.03C610.214 450.798 610.098 455.097 609.617 459.927C609.315 462.96 608.769 466.167 607.979 469.548C607.188 472.93 606.176 476.26 604.942 479.541C603.708 482.821 602.21 485.905 600.448 488.792C598.685 491.68 596.682 494.146 594.436 496.191L468.238 483.628C461.611 482.968 455.514 481.539 449.948 479.34C444.381 477.141 439.634 474.116 435.707 470.265C431.78 466.414 428.841 461.754 426.889 456.285C424.938 450.816 424.326 444.431 425.053 437.129L441.004 276.897C441.541 271.505 448.167 268.194 460.881 266.965C473.595 265.735 492.757 266.394 518.367 268.944L615.585 278.622Z" fill="#ffffff" fill-rule="nonzero" opacity="1" stroke="#000000" stroke-linecap="round" stroke-linejoin="round" stroke-width="14"/>
<path d="M653.239 502.045C641.107 500.837 631.881 496.658 625.56 489.506C619.239 482.354 616.76 471.926 618.125 458.222L633.221 306.582C633.668 302.089 636.519 298.233 641.774 295.012C647.03 291.792 653.723 289.225 661.854 287.312C669.985 285.399 679.069 284.176 689.104 283.644C699.14 283.112 709.212 283.349 719.322 284.355C737.181 286.133 753.279 289.948 767.613 295.799C781.948 301.65 793.992 309.712 803.746 319.985C813.5 330.258 820.616 342.821 825.093 357.673C829.57 372.526 830.818 389.893 828.839 409.775C827.106 427.185 822.732 442.347 815.718 455.262C808.704 468.176 799.428 478.738 787.89 486.949C776.353 495.159 762.821 500.901 747.294 504.177C731.767 507.452 714.625 508.156 695.866 506.289L653.239 502.045ZM727.675 391.876C728.212 386.484 728.561 381.84 728.722 377.942C728.883 374.045 728.812 370.776 728.507 368.137C728.18 365.722 727.579 364.074 726.702 363.193C725.826 362.311 724.77 361.809 723.534 361.686C722.299 361.563 721.324 361.665 720.611 361.991C719.898 362.317 719.3 362.626 718.817 362.918C718.728 364.951 718.709 366.849 718.761 368.613C718.812 370.376 718.813 372.362 718.763 374.569C718.714 376.776 718.603 379.317 718.43 382.193C718.257 385.068 717.964 388.584 717.55 392.74L716.46 403.692C716.046 407.848 715.64 411.352 715.243 414.205C714.845 417.058 714.453 419.572 714.067 421.745C713.68 423.919 713.288 425.865 712.89 427.584C712.492 429.302 712.136 431.167 711.823 433.178C712.238 433.56 712.764 433.981 713.399 434.441C714.033 434.901 714.969 435.193 716.204 435.316C717.44 435.439 718.574 435.155 719.607 434.463C720.64 433.772 721.555 432.275 722.351 429.972C723.17 427.444 723.885 424.254 724.495 420.401C725.106 416.548 725.679 411.926 726.216 406.535L727.675 391.876Z" fill="#ffffff" fill-rule="nonzero" opacity="1" stroke="#000000" stroke-linecap="round" stroke-linejoin="round" stroke-width="14"/>
</g>
<g opacity="1" vectornator:layerName="Group 1">
<path d="M194.233 508.061C200.015 501.263 207.493 496.222 216.668 492.938C225.843 489.654 235.823 488.549 246.606 489.622C254.469 490.405 261.526 491.873 267.777 494.027C274.029 496.181 279.278 499.001 283.526 502.486C287.773 505.972 290.911 510.056 292.941 514.739C294.97 519.422 295.694 524.684 295.113 530.525C293.891 537.096 292.735 544.156 291.643 551.705C290.551 559.253 289.496 566.72 288.477 574.106C287.458 581.491 286.557 588.548 285.774 595.276C284.991 602.005 284.359 607.784 283.878 612.614C283.576 615.647 283.614 618.401 283.991 620.878C284.368 623.354 285.849 624.721 288.432 624.978C289.331 625.068 290.471 625.011 291.852 624.808C291.897 623.225 292.008 621.534 292.187 619.737C292.366 617.94 292.562 615.974 292.774 613.84C293.49 606.651 294.43 598.35 295.594 588.937C296.758 579.524 298.073 570.013 299.54 560.403C301.007 550.793 302.551 541.56 304.17 532.703C305.789 523.846 307.35 516.429 308.852 510.453C313.973 508.013 319.959 506.284 326.81 505.264C333.661 504.244 340.625 504.087 347.701 504.791C353.205 505.339 358.664 506.337 364.079 507.783C369.493 509.23 374.344 511.216 378.63 513.741C382.916 516.266 386.352 519.359 388.937 523.02C391.522 526.68 392.737 530.998 392.582 535.974C391.641 542.006 390.338 548.825 388.673 556.43C387.009 564.034 385.167 571.99 383.149 580.297C381.131 588.604 379.004 597.156 376.767 605.951C374.53 614.747 372.369 623.352 370.283 631.766C371.25 632.316 372.294 632.646 373.418 632.758C374.99 632.915 376.447 632.521 377.789 631.577C379.131 630.633 380.469 628.015 381.804 623.724C384.72 613.805 387.406 603.919 389.861 594.068C392.316 584.216 394.542 574.682 396.537 565.465C398.532 556.248 400.286 547.461 401.799 539.104C403.311 530.747 404.588 523.046 405.63 516.003C410.066 513.609 415.728 511.706 422.619 510.293C429.509 508.88 438.458 508.722 449.466 509.818C456.767 510.545 463.294 512.215 469.046 514.83C474.798 517.444 479.592 520.843 483.43 525.025C487.268 529.207 490.072 534.081 491.844 539.645C493.615 545.21 494.177 551.25 493.528 557.765C493.316 559.899 492.64 563.263 491.502 567.858C490.364 572.452 488.918 577.867 487.163 584.101C485.408 590.336 483.369 597.138 481.048 604.507C478.726 611.876 476.269 619.459 473.678 627.255C471.087 635.051 468.445 642.786 465.753 650.458C463.061 658.131 460.419 665.298 457.827 671.96C455.235 678.622 452.795 684.618 450.506 689.949C448.217 695.279 446.18 699.501 444.396 702.613C441.107 708.298 437.296 712.966 432.962 716.619C428.628 720.271 423.724 723.101 418.249 725.108C412.774 727.115 406.752 728.359 400.181 728.84C393.611 729.32 386.45 729.174 378.7 728.403C375.33 728.067 371.733 727.454 367.908 726.563C364.083 725.671 360.331 724.617 356.652 723.4C352.973 722.183 349.532 720.848 346.33 719.395C343.129 717.942 340.466 716.485 338.343 715.026C337.297 712.994 336.263 710.565 335.239 707.741C334.216 704.916 333.263 701.957 332.38 698.863C331.496 695.769 330.72 692.742 330.051 689.783C329.381 686.824 328.933 684.198 328.708 681.907C326.113 681.762 324.305 682.263 323.283 683.409C322.262 684.555 321.645 686.195 321.432 688.329C321.197 690.688 321.412 693.659 322.076 697.242C322.741 700.825 323.607 704.654 324.676 708.731C317.759 713.261 310.066 716.182 301.598 717.494C293.13 718.806 283.56 718.931 272.889 717.869C268.508 717.433 263.976 716.811 259.292 716.005C254.608 715.198 250.095 714.097 245.753 712.7C241.411 711.304 237.409 709.629 233.746 707.676C230.084 705.724 227.033 703.321 224.595 700.469C221.311 691.294 217.919 680.35 214.421 667.637C210.922 654.924 207.709 640.481 204.781 624.308C201.854 608.135 199.4 590.336 197.42 570.911C195.44 551.486 194.378 530.536 194.233 508.061Z" fill="#ffffff" fill-rule="nonzero" opacity="1" stroke="#000000" stroke-linecap="round" stroke-linejoin="round" stroke-width="14"/>
<path d="M582.951 732.912C577.943 736.497 571.037 739.496 562.232 741.909C553.427 744.322 543.071 744.936 531.165 743.751C524.875 743.125 518.876 741.847 513.169 739.918C507.463 737.988 502.528 735.427 498.365 732.233C494.202 729.039 491.011 725.205 488.79 720.73C486.57 716.255 485.745 711.153 486.315 705.425L503.642 531.376C508.65 527.791 515.556 524.792 524.361 522.378C533.166 519.965 543.522 519.351 555.428 520.537C561.719 521.163 567.717 522.441 573.424 524.37C579.131 526.299 584.065 528.861 588.228 532.055C592.391 535.248 595.583 539.083 597.803 543.558C600.024 548.033 600.849 553.134 600.278 558.863L582.951 732.912Z" fill="#ffffff" fill-rule="nonzero" opacity="1" stroke="#000000" stroke-linecap="round" stroke-linejoin="round" stroke-width="14"/>
<path d="M717.571 551.482C720.738 549.302 724.239 547.467 728.074 545.977C731.909 544.487 735.91 543.325 740.077 542.492C744.243 541.659 748.492 541.146 752.821 540.953C757.151 540.761 761.338 540.865 765.382 541.268C771.672 541.894 777.763 543.096 783.655 544.874C789.547 546.651 794.684 549.176 799.066 552.449C803.448 555.721 806.808 559.855 809.147 564.853C811.485 569.85 812.302 575.887 811.598 582.963L795.713 742.522C795.21 747.577 793.522 751.719 790.648 754.95C787.774 758.18 784.127 760.625 779.708 762.283C775.289 763.942 770.311 764.95 764.773 765.306C759.236 765.662 753.547 765.55 747.706 764.968C744.112 764.61 740.509 764.053 736.897 763.296C733.286 762.54 729.891 761.606 726.711 760.496C723.532 759.385 720.589 758.185 717.881 756.894C715.174 755.604 712.871 754.24 710.972 752.803C706.757 746.144 702.997 739.758 699.692 733.643C696.387 727.529 693.369 721.67 690.637 716.066C687.905 710.463 685.373 705.134 683.04 700.081C680.707 695.028 678.461 690.238 676.303 685.712C674.371 685.747 673.02 686.208 672.251 687.096C671.482 687.983 671.031 689.101 670.896 690.449C670.729 692.134 671.013 693.836 671.749 695.554C672.486 697.272 673.467 699.383 674.692 701.887L692.365 738.019L691.476 746.949C689.679 747.904 687.417 748.983 684.688 750.186C681.959 751.389 678.649 752.45 674.757 753.367C670.866 754.284 666.404 754.946 661.372 755.352C656.34 755.759 650.623 755.643 644.221 755.006C636.92 754.279 630.253 752.878 624.22 750.803C618.188 748.728 613.067 746.034 608.86 742.723C604.652 739.411 601.525 735.498 599.478 730.984C597.432 726.469 596.689 721.404 597.248 715.788L614.055 546.962C614.334 544.154 615.835 541.609 618.558 539.328C621.281 537.047 624.866 535.22 629.313 533.848C633.761 532.475 638.902 531.541 644.736 531.044C650.571 530.547 656.746 530.623 663.261 531.272C670.675 532.01 677.437 533.59 683.548 536.014C689.66 538.437 694.215 541.103 697.216 544.011C699.374 547.402 701.698 551.405 704.188 556.02C706.678 560.636 709.291 565.717 712.029 571.264C714.766 576.812 717.611 582.71 720.562 588.959C723.513 595.209 726.534 601.607 729.626 608.154C730.749 608.266 731.881 608.01 733.021 607.386C734.16 606.762 734.814 605.608 734.982 603.923C735.105 602.687 734.804 601.154 734.079 599.323C733.353 597.493 732.569 595.685 731.726 593.899L716.649 560.749L717.571 551.482Z" fill="#ffffff" fill-rule="nonzero" opacity="1" stroke="#000000" stroke-linecap="round" stroke-linejoin="round" stroke-width="14"/>
</g>
</g>
</g>
<g opacity="1" vectornator:layerName="Group 7">
<g opacity="1" vectornator:layerName="Group 5">
<path d="M819.94 251.414C819.94 251.414 960.734 185.263 962.099 183.491C963.464 181.719 914.828 133.111 914.828 133.111L819.94 251.414Z" fill="#ffffff" fill-rule="nonzero" opacity="1" stroke="#000000" stroke-linecap="round" stroke-linejoin="round" stroke-width="14" vectornator:layerName="Curve 3"/>
<path d="M792.796 234.021C792.796 234.021 857.749 153.565 857.993 152.195C858.236 150.825 811.408 141.317 811.408 141.317L792.796 234.021Z" fill="#ffffff" fill-rule="nonzero" opacity="1" stroke="#000000" stroke-linecap="round" stroke-linejoin="round" stroke-width="14" vectornator:layerName="Curve 2"/>
</g>
<g opacity="1" vectornator:layerName="Group 6">
<path d="M200.454 766.098C200.454 766.098 89.3095 874.229 88.3736 875.812C87.4376 877.395 160.648 904.678 160.648 904.678L200.454 766.098Z" fill="#ffffff" fill-rule="nonzero" opacity="1" stroke="#000000" stroke-linecap="round" stroke-linejoin="round" stroke-width="14" vectornator:layerName="Curve 1"/>
<path d="M177.014 744.834C177.014 744.834 77.9308 775.32 76.8436 775.983C75.7563 776.646 94.9635 824.109 94.9635 824.109L177.014 744.834Z" fill="#ffffff" fill-rule="nonzero" opacity="1" stroke="#000000" stroke-linecap="round" stroke-linejoin="round" stroke-width="14" vectornator:layerName="Curve 4"/>
</g>
</g>
</g>
</g>
</g>
</g>
</svg>
