<?xml version="1.0" encoding="UTF-8" standalone="no"?>
<!DOCTYPE svg PUBLIC "-//W3C//DTD SVG 1.1//EN" "http://www.w3.org/Graphics/SVG/1.1/DTD/svg11.dtd">
<!-- Created with Vectornator (http://vectornator.io/) -->
<svg height="100%" stroke-miterlimit="10" style="fill-rule:nonzero;clip-rule:evenodd;stroke-linecap:round;stroke-linejoin:round;" version="1.1" viewBox="0 0 1024 1024" width="100%" xml:space="preserve" xmlns="http://www.w3.org/2000/svg" xmlns:vectornator="http://vectornator.io" xmlns:xlink="http://www.w3.org/1999/xlink">
<defs/>
<g id="Layer-1" vectornator:layerName="Layer 1">
<g opacity="1" vectornator:layerName="Curve 6">
<path d="M788.281 178.188C784.329 183.392 780.907 188.986 777.406 194.5C771.92 203.142 766.554 211.877 761.188 220.594C745.433 246.183 729.975 271.935 714.438 297.656C741.173 282.752 767.949 267.902 794.562 252.781C803.622 247.634 812.667 242.487 821.656 237.219C827.381 233.864 833.221 230.624 838.656 226.812C838.791 226.673 827.625 215.677 813.719 202.25C799.813 188.824 788.416 178.048 788.281 178.188Z" fill="#000000" stroke="none"/>
</g>
<g opacity="1" vectornator:layerName="Curve 7">
<path d="M740.688 683.938C756.924 704.603 773.121 725.315 789.531 745.844C795.097 752.807 800.65 759.771 806.312 766.656C809.88 770.994 813.375 775.426 817.312 779.438C817.494 779.503 822.978 764.83 829.562 746.656C836.147 728.482 841.338 713.691 841.156 713.625C836.679 711.643 831.948 710.307 827.281 708.844C819.993 706.558 812.642 704.397 805.312 702.25C783.824 695.956 762.247 689.982 740.688 683.938Z" fill="#000000" stroke="none"/>
</g>
<g opacity="1" vectornator:layerName="Curve 8">
<path d="M184.406 410.438C184.318 410.406 181.635 417.548 178.438 426.375C175.24 435.202 172.724 442.374 172.812 442.406C176.248 442.963 179.753 443.205 183.219 443.5C188.655 443.963 194.089 444.355 199.531 444.75C215.512 445.911 231.511 446.928 247.5 447.969C234.084 439.817 220.667 431.64 207.188 423.594C202.594 420.852 198.004 418.089 193.375 415.406C190.418 413.693 187.49 411.916 184.406 410.438Z" fill="#000000" stroke="none"/>
</g>
<g opacity="1" vectornator:layerName="Curve 10">
<path d="M511 751.219C503.094 769.241 495.175 787.244 487.375 805.312C484.72 811.462 482.033 817.607 479.438 823.781C477.785 827.712 476.074 831.634 474.656 835.656C474.657 835.75 482.268 835.798 491.656 835.75C501.045 835.702 508.657 835.594 508.656 835.5C509.072 831.567 509.164 827.575 509.312 823.625C509.544 817.482 509.714 811.333 509.875 805.188C510.346 787.194 510.655 769.215 511 751.219Z" fill="#000000" stroke="none"/>
</g>
<g opacity="1" vectornator:layerName="Curve 9">
<path d="M550.562 159.125C541.174 159.173 533.562 159.281 533.562 159.375C533.814 163.437 534.389 167.465 534.906 171.5C535.714 177.8 536.591 184.116 537.469 190.406C540.041 208.85 542.773 227.262 545.469 245.688C550.336 227.226 555.219 208.773 559.969 190.281C561.587 183.981 563.229 177.692 564.781 171.375C565.773 167.341 566.829 163.278 567.562 159.188C567.562 159.094 559.951 159.077 550.562 159.125Z" fill="#000000" stroke="none"/>
</g>
<g opacity="1" vectornator:layerName="Curve 4">
<path d="M811.156 465.125C808.225 466.422 805.41 468.005 802.594 469.531C798.159 471.935 793.778 474.414 789.375 476.875C776.428 484.112 763.546 491.474 750.656 498.812C764.579 498.964 778.514 499.161 792.438 499.188C797.184 499.197 801.91 499.186 806.656 499.125C809.691 499.086 812.76 499.119 815.781 498.812C815.874 498.8 814.9 491.239 813.625 481.938C812.35 472.636 811.249 465.112 811.156 465.125Z" fill="#000000" stroke="none"/>
</g>
<g opacity="1" vectornator:layerName="Curve 5">
<path d="M309.75 115.094C309.661 114.922 295.675 122.007 278.531 130.938C261.388 139.868 247.567 147.266 247.656 147.438C252.391 153.71 257.688 159.572 262.844 165.5C270.919 174.785 279.1 183.964 287.281 193.156C311.295 220.138 335.549 246.906 359.75 273.719C349.357 239.708 339.012 205.685 328.375 171.75C324.749 160.182 321.137 148.619 317.375 137.094C314.969 129.724 312.673 122.278 309.75 115.094Z" fill="#000000" stroke="none"/>
</g>
<g opacity="1" vectornator:layerName="Curve 3">
<path d="M278.719 648.781C243.924 657.093 209.11 665.316 174.375 673.875C162.537 676.792 150.678 679.727 138.875 682.781C131.332 684.733 123.735 686.553 116.344 689.031C116.169 689.114 122.777 703.332 131.094 720.781C139.41 738.231 146.294 752.302 146.469 752.219C152.994 747.907 159.138 743.036 165.344 738.281C175.058 730.839 184.686 723.273 194.312 715.719C222.564 693.549 250.624 671.149 278.719 648.781Z" fill="#000000" stroke="none"/>
</g>
</g>
</svg>
