<?xml version="1.0" encoding="UTF-8" standalone="no"?>
<!DOCTYPE svg PUBLIC "-//W3C//DTD SVG 1.1//EN" "http://www.w3.org/Graphics/SVG/1.1/DTD/svg11.dtd">
<!-- Created with Vectornator (http://vectornator.io/) -->
<svg height="100%" stroke-miterlimit="10" style="fill-rule:nonzero;clip-rule:evenodd;stroke-linecap:round;stroke-linejoin:round;" version="1.1" viewBox="0 0 1024 1024" width="100%" xml:space="preserve" xmlns="http://www.w3.org/2000/svg" xmlns:vectornator="http://vectornator.io" xmlns:xlink="http://www.w3.org/1999/xlink">
<defs/>
<g id="Layer-1" vectornator:layerName="Layer 1">
<path d="M512 340C422.276 340 349.562 412.729 349.562 502.438C349.562 509.875 349.562 524.75 349.562 532.188C349.562 621.912 422.292 694.625 512 694.625C601.724 694.625 674.437 621.896 674.438 532.188C674.438 524.75 674.438 509.875 674.438 502.438C674.437 412.713 601.708 340 512 340Z" fill="#000000" fill-opacity="0.08" fill-rule="nonzero" opacity="1" stroke="none" vectornator:layerName="Curve 2"/>
<g opacity="1" vectornator:layerName="Group 13">
<g opacity="1" vectornator:layerName="Group 11">
<path d="M657.438 526.872C657.438 607.195 592.323 672.31 512 672.31C431.677 672.31 366.562 607.195 366.562 526.872L366.562 497.121L657.438 497.121L657.438 526.872Z" fill="#ffb000" fill-rule="nonzero" opacity="1" stroke="none" vectornator:layerName="Oval 2"/>
<path d="M366.562 490.125C362.697 490.125 359.562 493.259 359.562 497.125L359.562 526.875C359.562 611.064 427.811 679.312 512 679.312C596.189 679.312 664.438 611.064 664.438 526.875C664.438 525.945 664.438 498.055 664.438 497.125C664.438 493.259 661.304 490.125 657.438 490.125L366.562 490.125ZM373.562 504.125L650.438 504.125C650.438 512.256 650.438 526.164 650.438 526.875C650.438 603.332 588.457 665.313 512 665.312C435.543 665.312 373.562 603.332 373.562 526.875L373.562 504.125Z" fill="#000000" fill-rule="nonzero" opacity="1" stroke="none" vectornator:layerName="Curve 1"/>
</g>
<g opacity="1" vectornator:layerName="Group 12">
<path d="M366.562 497.121C366.562 416.798 431.677 351.683 512 351.683C592.323 351.683 657.438 416.798 657.438 497.121C657.438 577.444 592.323 642.559 512 642.559C431.677 642.559 366.562 577.444 366.562 497.121Z" fill="#ffc200" fill-rule="nonzero" opacity="1" stroke="none" vectornator:layerName="Oval 3"/>
<path d="M634.658 418.185C634.658 418.185 645.433 485.689 617.318 546.001C589.202 606.312 521.455 643.51 521.455 643.51C521.455 643.51 586.346 625.626 608.01 605.986C629.674 586.346 647.961 560.941 654.452 538.151C660.943 515.362 661.714 476.44 653.287 458.109C644.86 439.779 634.658 418.185 634.658 418.185Z" fill="#ffb000" fill-rule="nonzero" opacity="1" stroke="none" vectornator:layerName="Curve 1"/>
<path d="M512 344.688C427.811 344.688 359.562 412.936 359.562 497.125C359.562 581.314 427.811 649.562 512 649.562C596.189 649.562 664.438 581.314 664.438 497.125C664.438 412.936 596.189 344.688 512 344.688ZM512 358.688C588.457 358.688 650.438 420.668 650.438 497.125C650.438 573.582 588.457 635.562 512 635.562C435.543 635.562 373.562 573.582 373.562 497.125C373.562 420.668 435.543 358.688 512 358.688Z" fill="#000000" fill-rule="nonzero" opacity="1" stroke="none" vectornator:layerName="Curve 2"/>
<path d="M431.219 406.562C427.38 406.607 423.551 408.131 420.656 411.094C399.652 432.593 387.687 461.396 387.688 492.062C387.688 500.347 394.403 507.062 402.688 507.063C410.972 507.063 417.688 500.347 417.688 492.062C417.688 469.312 426.543 447.981 442.125 432.031C447.914 426.106 447.801 416.633 441.875 410.844C438.912 407.949 435.057 406.518 431.219 406.562Z" fill="#ffe287" fill-rule="nonzero" opacity="1" stroke="none" vectornator:layerName="Curve 3"/>
</g>
<path d="M502 387.938L502 408.562L501.344 408.562C473.945 408.562 451.719 430.758 451.719 458.156C451.719 483.248 473.78 503.191 502 507.063L502 565.969C484.371 562.601 471.719 550.713 471.719 537.375L451.719 537.375C451.719 562.466 473.78 582.41 502 586.281L502 606.312L522 606.312L522 587L522.656 587C550.055 587 572.281 564.774 572.281 537.375C572.281 512.284 550.22 492.366 522 488.5L522 429.594C539.629 432.954 552.281 444.818 552.281 458.156L572.281 458.156C572.281 433.065 550.22 413.148 522 409.281L522 387.938L502 387.938ZM501.344 428.562L502 428.562L502 486.75C484.371 483.383 471.719 471.494 471.719 458.156C471.719 441.803 484.991 428.563 501.344 428.562ZM522 508.813C539.629 512.173 552.281 524.037 552.281 537.375C552.281 553.728 539.009 567 522.656 567L522 567L522 508.813Z" fill="#000000" fill-rule="nonzero" opacity="1" stroke="none" vectornator:layerName="Curve 1"/>
</g>
</g>
</svg>
