<?xml version="1.0" encoding="UTF-8" standalone="no"?>
<!DOCTYPE svg PUBLIC "-//W3C//DTD SVG 1.1//EN" "http://www.w3.org/Graphics/SVG/1.1/DTD/svg11.dtd">
<!-- Created with Vectornator (http://vectornator.io/) -->
<svg height="100%" stroke-miterlimit="10" style="fill-rule:nonzero;clip-rule:evenodd;stroke-linecap:round;stroke-linejoin:round;" version="1.1" viewBox="0 0 1024 1024" width="100%" xml:space="preserve" xmlns="http://www.w3.org/2000/svg" xmlns:vectornator="http://vectornator.io" xmlns:xlink="http://www.w3.org/1999/xlink">
<defs/>
<g id="Layer-1" vectornator:layerName="Layer 1">
<path d="M150.907 290.907C150.907 213.587 213.587 150.907 290.907 150.907L733.093 150.907C810.413 150.907 873.093 213.587 873.093 290.907L873.093 733.093C873.093 810.413 810.413 873.093 733.093 873.093L290.907 873.093C213.587 873.093 150.907 810.413 150.907 733.093L150.907 290.907Z" fill="#45ff00" fill-rule="nonzero" opacity="1" stroke="none" vectornator:layerName="Rectangle 1"/>
<path d="M379.305 201.094C379.305 201.094 401.453 201.094 290.906 201.094C241.347 201.094 201.094 241.301 201.094 290.906L201.094 339.819" fill="none" opacity="1" stroke="#92ff80" stroke-linecap="round" stroke-linejoin="round" stroke-width="35" vectornator:layerName="Curve 11"/>
<path d="M871.285 403.19C871.285 403.19 857.745 673.515 784.969 776.04C712.192 878.565 432.851 870.773 432.851 870.773L755.059 872.29L837.927 829.257L872.441 764.557L871.285 403.19Z" fill="#3ee600" fill-rule="nonzero" opacity="1" stroke="none" vectornator:layerName="Curve 12"/>
<path d="M150.907 290.907C150.907 213.587 213.587 150.907 290.907 150.907L733.093 150.907C810.413 150.907 873.093 213.587 873.093 290.907L873.093 733.093C873.093 810.413 810.413 873.093 733.093 873.093L290.907 873.093C213.587 873.093 150.907 810.413 150.907 733.093L150.907 290.907Z" fill="none" opacity="1" stroke="#000000" stroke-linecap="butt" stroke-linejoin="round" stroke-width="14" vectornator:layerName="Rectangle 2"/>
<path d="M566.188 727.671L487.77 727.671L487.77 459.116L396.193 459.116L396.193 407.017C420.363 405.943 437.282 404.331 446.95 402.183C462.347 398.781 474.879 391.978 484.547 381.773C491.172 374.79 496.185 365.48 499.586 353.843C501.556 346.86 502.541 341.668 502.541 338.267L566.188 338.267L566.188 727.671Z" fill="#1ab300" opacity="1" stroke="none" vectornator:layerName="Text 1"/>
<path d="M566.188 704.329L487.77 704.329L487.77 435.774L396.193 435.774L396.193 383.675C420.363 382.6 437.282 380.989 446.95 378.841C462.347 375.439 474.879 368.636 484.547 358.431C491.172 351.448 496.185 342.138 499.586 330.501C501.556 323.518 502.541 318.326 502.541 314.925L566.188 314.925L566.188 704.329Z" fill="#000000" opacity="1" stroke="none" vectornator:layerName="Text 2"/>
<g opacity="1" vectornator:layerName="Group 14">
<g opacity="1" vectornator:layerName="Curve 6">
<path d="M355.812 704.344C336.394 724.807 316.917 745.202 297.688 765.844C290.885 773.145 284.067 780.472 277.375 787.875C273.452 792.215 269.462 796.514 265.938 801.188C265.803 801.327 276.969 812.324 290.875 825.75C304.781 839.176 316.147 849.952 316.281 849.812C318.649 843.272 320.422 836.504 322.312 829.812C325.297 819.248 328.169 808.63 331.031 798.031C339.455 766.837 347.609 735.597 355.812 704.344Z" fill="#000000" stroke="none"/>
</g>
<g opacity="1" vectornator:layerName="Curve 7">
<path d="M213 239.656C212.818 239.59 207.334 254.263 200.75 272.438C194.166 290.612 189.006 305.403 189.188 305.469C196.124 307.683 203.263 309.256 210.344 310.938C221.404 313.564 232.501 316.045 243.594 318.531C276.121 325.821 308.698 332.774 341.281 339.812C314.012 318.139 286.797 296.418 259.375 274.938C250.039 267.625 240.701 260.297 231.281 253.094C225.28 248.505 219.314 243.811 213 239.656Z" fill="#000000" stroke="none"/>
</g>
<g opacity="1" vectornator:layerName="Curve 8">
<path d="M802.469 511.969C798.899 511.873 795.316 512.092 791.75 512.25C786.139 512.498 780.545 512.812 774.938 513.125C758.451 514.044 741.98 515.09 725.5 516.125C739.413 522.203 753.318 528.319 767.281 534.281C772.046 536.316 776.802 538.343 781.594 540.312C784.667 541.576 787.739 542.926 790.906 543.938C790.995 543.969 793.646 536.828 796.844 528C800.041 519.172 802.557 512.001 802.469 511.969Z" fill="#000000" stroke="none"/>
</g>
<g opacity="1" vectornator:layerName="Curve 10">
<path d="M499.594 170.156C490.205 170.204 482.593 170.312 482.594 170.406C483.082 174.486 483.905 178.525 484.656 182.562C485.831 188.876 487.07 195.2 488.312 201.5C491.958 219.981 495.764 238.419 499.531 256.875C503.328 238.38 507.137 219.894 510.812 201.375C512.065 195.062 513.346 188.763 514.531 182.438C515.289 178.393 516.098 174.337 516.594 170.25C516.593 170.156 508.982 170.108 499.594 170.156Z" fill="#000000" stroke="none"/>
</g>
<g opacity="1" vectornator:layerName="Curve 9">
<path d="M512 810.406C508.632 828.897 505.246 847.394 502 865.906C500.893 872.218 499.757 878.521 498.719 884.844C498.054 888.889 497.337 892.95 496.938 897.031C496.938 897.125 504.549 897.142 513.938 897.094C523.326 897.046 530.938 896.938 530.938 896.844C530.354 892.761 529.439 888.723 528.594 884.688C527.272 878.375 525.889 872.079 524.5 865.781C520.425 847.303 516.196 828.857 512 810.406Z" fill="#000000" stroke="none"/>
</g>
<g opacity="1" vectornator:layerName="Curve 4">
<path d="M284.938 562.844C284.844 562.856 285.788 570.386 287.062 579.688C288.337 588.989 289.469 596.544 289.562 596.531C292.558 595.775 295.458 594.698 298.375 593.688C302.948 592.104 307.513 590.43 312.062 588.781C325.419 583.941 338.717 578.955 352.031 574C337.693 571.463 323.359 568.918 309 566.5C304.113 565.677 299.21 564.85 294.312 564.094C291.196 563.612 288.085 563.065 284.938 562.844Z" fill="#000000" stroke="none"/>
</g>
<g opacity="1" vectornator:layerName="Curve 5">
<path d="M652.656 727.656C676.827 747.406 700.96 767.217 725.281 786.781C733.921 793.731 742.557 800.688 751.281 807.531C756.457 811.591 761.611 815.72 767.062 819.406C767.152 819.578 781.108 812.462 798.25 803.531C815.392 794.6 829.214 787.234 829.125 787.062C821.163 783.885 813.011 781.194 804.906 778.406C791.626 773.838 778.315 769.372 765 764.906C727.595 752.361 690.12 740.026 652.656 727.656Z" fill="#000000" stroke="none"/>
</g>
<g opacity="1" vectornator:layerName="Curve 3">
<path d="M779.094 196.781C772.858 201.694 767.043 207.148 761.156 212.469C751.924 220.815 742.795 229.24 733.656 237.688C706.819 262.496 680.2 287.542 653.531 312.531C686.908 301.593 720.298 290.714 753.594 279.531C764.95 275.717 776.315 271.919 787.625 267.969C794.868 265.439 802.173 263.014 809.219 259.969C809.393 259.886 802.785 245.668 794.469 228.219C786.152 210.769 779.268 196.698 779.094 196.781Z" fill="#000000" stroke="none"/>
</g>
</g>
</g>
</svg>
