<?xml version="1.0" encoding="UTF-8" standalone="no"?>
<!DOCTYPE svg PUBLIC "-//W3C//DTD SVG 1.1//EN" "http://www.w3.org/Graphics/SVG/1.1/DTD/svg11.dtd">
<!-- Created with Vectornator (http://vectornator.io/) -->
<svg height="100%" stroke-miterlimit="10" style="fill-rule:nonzero;clip-rule:evenodd;stroke-linecap:round;stroke-linejoin:round;" version="1.1" viewBox="0 0 1024 1024" width="100%" xml:space="preserve" xmlns="http://www.w3.org/2000/svg" xmlns:vectornator="http://vectornator.io" xmlns:xlink="http://www.w3.org/1999/xlink">
<defs/>
<g id="Layer-1" vectornator:layerName="Layer 1">
<g opacity="0" vectornator:layerName="Group 14">
<path d="M512 340C422.276 340 349.562 412.729 349.562 502.438C349.562 509.875 349.562 524.75 349.562 532.188C349.562 621.912 422.292 694.625 512 694.625C601.724 694.625 674.437 621.896 674.438 532.188C674.438 524.75 674.438 509.875 674.438 502.438C674.437 412.713 601.708 340 512 340Z" fill="#000000" fill-opacity="0.08" fill-rule="nonzero" opacity="1" stroke="none" vectornator:layerName="Curve 2"/>
<g opacity="1" vectornator:layerName="Group 13">
<g opacity="1" vectornator:layerName="Group 11">
<path d="M657.438 526.872C657.438 607.195 592.323 672.31 512 672.31C431.677 672.31 366.562 607.195 366.562 526.872L366.562 497.121L657.438 497.121L657.438 526.872Z" fill="#ffb000" fill-rule="nonzero" opacity="1" stroke="none" vectornator:layerName="Oval 2"/>
<path d="M366.562 490.125C362.697 490.125 359.562 493.259 359.562 497.125L359.562 526.875C359.562 611.064 427.811 679.312 512 679.312C596.189 679.312 664.438 611.064 664.438 526.875C664.438 525.945 664.438 498.055 664.438 497.125C664.438 493.259 661.304 490.125 657.438 490.125L366.562 490.125ZM373.562 504.125L650.438 504.125C650.438 512.256 650.438 526.164 650.438 526.875C650.438 603.332 588.457 665.313 512 665.312C435.543 665.312 373.562 603.332 373.562 526.875L373.562 504.125Z" fill="#000000" fill-rule="nonzero" opacity="1" stroke="none" vectornator:layerName="Curve 1"/>
</g>
<g opacity="1" vectornator:layerName="Group 12">
<path d="M366.562 497.121C366.562 416.798 431.677 351.683 512 351.683C592.323 351.683 657.438 416.798 657.438 497.121C657.438 577.444 592.323 642.559 512 642.559C431.677 642.559 366.562 577.444 366.562 497.121Z" fill="#ffc200" fill-rule="nonzero" opacity="1" stroke="none" vectornator:layerName="Oval 3"/>
<path d="M634.658 418.185C634.658 418.185 645.433 485.689 617.318 546.001C589.202 606.312 521.455 643.51 521.455 643.51C521.455 643.51 586.346 625.626 608.01 605.986C629.674 586.346 647.961 560.941 654.452 538.151C660.943 515.362 661.714 476.44 653.287 458.109C644.86 439.779 634.658 418.185 634.658 418.185Z" fill="#ffb000" fill-rule="nonzero" opacity="1" stroke="none" vectornator:layerName="Curve 1"/>
<path d="M512 344.688C427.811 344.688 359.562 412.936 359.562 497.125C359.562 581.314 427.811 649.562 512 649.562C596.189 649.562 664.438 581.314 664.438 497.125C664.438 412.936 596.189 344.688 512 344.688ZM512 358.688C588.457 358.688 650.438 420.668 650.438 497.125C650.438 573.582 588.457 635.562 512 635.562C435.543 635.562 373.562 573.582 373.562 497.125C373.562 420.668 435.543 358.688 512 358.688Z" fill="#000000" fill-rule="nonzero" opacity="1" stroke="none" vectornator:layerName="Curve 2"/>
<path d="M431.219 406.562C427.38 406.607 423.551 408.131 420.656 411.094C399.652 432.593 387.687 461.396 387.688 492.062C387.688 500.347 394.403 507.062 402.688 507.062C410.972 507.062 417.688 500.347 417.688 492.062C417.688 469.312 426.543 447.981 442.125 432.031C447.914 426.106 447.801 416.633 441.875 410.844C438.912 407.949 435.057 406.518 431.219 406.562Z" fill="#ffe287" fill-rule="nonzero" opacity="1" stroke="none" vectornator:layerName="Curve 3"/>
</g>
<path d="M502 387.938L502 408.562L501.344 408.562C473.945 408.562 451.719 430.758 451.719 458.156C451.719 483.248 473.78 503.191 502 507.062L502 565.969C484.371 562.601 471.719 550.713 471.719 537.375L451.719 537.375C451.719 562.466 473.78 582.41 502 586.281L502 606.312L522 606.312L522 587L522.656 587C550.055 587 572.281 564.774 572.281 537.375C572.281 512.284 550.22 492.366 522 488.5L522 429.594C539.629 432.954 552.281 444.818 552.281 458.156L572.281 458.156C572.281 433.065 550.22 413.148 522 409.281L522 387.938L502 387.938ZM501.344 428.562L502 428.562L502 486.75C484.371 483.383 471.719 471.494 471.719 458.156C471.719 441.803 484.991 428.563 501.344 428.562ZM522 508.812C539.629 512.173 552.281 524.037 552.281 537.375C552.281 553.728 539.009 567 522.656 567L522 567L522 508.812Z" fill="#000000" fill-rule="nonzero" opacity="1" stroke="none" vectornator:layerName="Curve 1"/>
</g>
</g>
<g opacity="1" vectornator:layerName="Group 18">
<path d="M382.719 262.219C361.163 262.219 343.719 279.686 343.719 301.219C343.719 406.484 343.719 617.016 343.719 722.281C343.719 743.837 361.186 761.281 382.719 761.281C388.961 761.281 401.445 761.281 407.688 761.281C453.094 761.281 543.906 761.281 589.312 761.281C595.555 761.281 608.039 761.281 614.281 761.281C620.516 761.281 632.984 761.281 639.219 761.281C660.774 761.281 678.219 743.814 678.219 722.281C678.219 617.016 678.219 406.484 678.219 301.219C678.219 279.663 660.752 262.219 639.219 262.219C632.984 262.219 620.516 262.219 614.281 262.219C608.039 262.219 595.555 262.219 589.312 262.219C543.906 262.219 453.094 262.219 407.688 262.219C401.445 262.219 388.961 262.219 382.719 262.219Z" fill="#000000" fill-opacity="0.08" fill-rule="nonzero" opacity="1" stroke="none" vectornator:layerName="Curve 3"/>
<g opacity="1" vectornator:layerName="Group 17">
<path d="M415.653 301.222C415.653 291.833 423.264 284.222 432.653 284.222L639.23 284.222C648.619 284.222 656.23 291.833 656.23 301.222L656.23 722.291C656.23 731.68 648.619 739.291 639.23 739.291L432.653 739.291C423.264 739.291 415.653 731.68 415.653 722.291L415.653 301.222Z" fill="#0bb300" fill-rule="nonzero" opacity="1" stroke="none" vectornator:layerName="Rectangle 2"/>
<path d="M440.406 511.748C440.406 459.055 483.122 416.339 535.816 416.339C588.509 416.339 631.225 459.055 631.225 511.748C631.225 564.442 588.509 607.158 535.816 607.158C483.122 607.158 440.406 564.442 440.406 511.748Z" fill="#0cbf00" fill-rule="nonzero" opacity="1" stroke="none" vectornator:layerName="Oval 2"/>
<g opacity="1" vectornator:layerName="Group 1">
<path d="M555.333 418.091C555.333 418.091 520.11 429.402 518.38 461.087C516.65 492.773 506.989 514.42 488.38 521.765C469.772 529.111 448.818 546.52 448.818 551.197" fill="none" opacity="1" stroke="#0fe500" stroke-linecap="butt" stroke-linejoin="round" stroke-opacity="0.3" stroke-width="14" vectornator:layerName="Curve 7"/>
<path d="M630.805 491.407C622.036 498.222 613.294 508.805 612.454 524.195C610.724 555.881 601.062 577.528 582.454 584.873C570.148 589.731 549.197 606.058 549.197 606.058" fill="none" opacity="1" stroke="#0fe500" stroke-linecap="butt" stroke-linejoin="round" stroke-opacity="0.3" stroke-width="14" vectornator:layerName="Curve 5"/>
<path d="M485.052 431.096C482.745 435.735 481.183 441.059 480.852 447.13C479.122 478.816 469.46 500.463 450.852 507.808C447.137 509.275 443.329 511.142 439.612 513.229" fill="none" opacity="1" stroke="#0fe500" stroke-linecap="butt" stroke-linejoin="round" stroke-opacity="0.3" stroke-width="14" vectornator:layerName="Curve 4"/>
<path d="M589.073 432.528C589.073 432.528 551.562 444.997 549.72 479.928C547.877 514.859 537.588 538.722 517.771 546.82C497.953 554.917 475.638 574.11 475.638 579.266" fill="none" opacity="1" stroke="#0fe500" stroke-linecap="butt" stroke-linejoin="round" stroke-opacity="0.3" stroke-width="14" vectornator:layerName="Curve 6"/>
<path d="M613.953 456.806C613.953 456.806 580.334 466.725 578.492 501.655C576.649 536.586 566.36 560.45 546.543 568.547C526.726 576.645 504.41 595.837 504.41 600.993" fill="none" opacity="1" stroke="#0fe500" stroke-linecap="butt" stroke-linejoin="round" stroke-opacity="0.3" stroke-width="14" vectornator:layerName="Curve 1"/>
</g>
<path d="M440.406 511.748C440.406 459.055 483.122 416.339 535.816 416.339C588.509 416.339 631.225 459.055 631.225 511.748C631.225 564.442 588.509 607.158 535.816 607.158C483.122 607.158 440.406 564.442 440.406 511.748Z" fill="none" opacity="1" stroke="#000000" stroke-linecap="butt" stroke-linejoin="round" stroke-width="14" vectornator:layerName="Oval 1"/>
<path d="M415.653 301.222C415.653 291.833 423.264 284.222 432.653 284.222L639.23 284.222C648.619 284.222 656.23 291.833 656.23 301.222L656.23 722.291C656.23 731.68 648.619 739.291 639.23 739.291L432.653 739.291C423.264 739.291 415.653 731.68 415.653 722.291L415.653 301.222Z" fill="none" opacity="1" stroke="#000000" stroke-linecap="butt" stroke-linejoin="round" stroke-width="14" vectornator:layerName="Rectangle 1"/>
<path d="M460.46 518.65L474.694 518.65L474.694 519.103C474.694 538.012 490.012 553.351 508.921 553.351C526.238 553.351 540.002 538.126 542.674 518.65L583.328 518.65C581.004 530.817 572.799 539.548 563.594 539.548L563.594 553.351C580.911 553.351 594.675 538.126 597.347 518.65L611.171 518.65L611.171 504.847L597.843 504.847L597.843 504.394C597.843 485.485 582.503 470.145 563.594 470.145C546.277 470.145 532.531 485.371 529.863 504.847L489.209 504.847C491.528 492.68 499.716 483.948 508.921 483.948L508.921 470.145C491.604 470.145 477.859 485.371 475.19 504.847L460.46 504.847L460.46 518.65ZM488.497 519.103L488.497 518.65L528.655 518.65C526.331 530.817 518.127 539.548 508.921 539.548C497.635 539.548 488.497 530.389 488.497 519.103ZM543.882 504.847C546.201 492.68 554.389 483.948 563.594 483.948C574.88 483.948 584.04 493.108 584.04 504.394L584.04 504.847L543.882 504.847Z" fill="#000000" fill-rule="nonzero" opacity="1" stroke="none" vectornator:layerName="Curve 1"/>
<path d="M442.781 365.885L442.781 313.034L467.676 313.684" fill="none" opacity="1" stroke="#11ff00" stroke-linecap="round" stroke-linejoin="round" stroke-width="20" vectornator:layerName="Rectangle 3"/>
</g>
<g opacity="1" vectornator:layerName="Group 15">
<path d="M390.691 301.222C390.691 291.833 398.303 284.222 407.691 284.222L614.269 284.222C623.658 284.222 631.269 291.833 631.269 301.222L631.269 722.291C631.269 731.68 623.658 739.291 614.269 739.291L407.691 739.291C398.303 739.291 390.691 731.68 390.691 722.291L390.691 301.222Z" fill="#0dcc00" fill-rule="nonzero" opacity="1" stroke="none" vectornator:layerName="Rectangle 2"/>
<path d="M415.444 511.748C415.444 459.055 458.161 416.339 510.854 416.339C563.547 416.339 606.264 459.055 606.264 511.748C606.264 564.442 563.547 607.158 510.854 607.158C458.161 607.158 415.444 564.442 415.444 511.748Z" fill="#0cbf00" fill-rule="nonzero" opacity="1" stroke="none" vectornator:layerName="Oval 2"/>
<g opacity="1" vectornator:layerName="Group 1">
<path d="M530.372 418.091C530.372 418.091 495.149 429.402 493.419 461.087C491.689 492.773 482.027 514.42 463.419 521.765C444.81 529.111 423.856 546.52 423.856 551.197" fill="none" opacity="1" stroke="#0fe500" stroke-linecap="butt" stroke-linejoin="round" stroke-opacity="0.3" stroke-width="14" vectornator:layerName="Curve 7"/>
<path d="M605.843 491.407C597.074 498.222 588.333 508.805 587.492 524.195C585.762 555.881 576.101 577.528 557.492 584.873C545.186 589.731 524.235 606.058 524.235 606.058" fill="none" opacity="1" stroke="#0fe500" stroke-linecap="butt" stroke-linejoin="round" stroke-opacity="0.3" stroke-width="14" vectornator:layerName="Curve 5"/>
<path d="M460.091 431.096C457.783 435.735 456.222 441.059 455.89 447.13C454.16 478.816 444.499 500.463 425.89 507.808C422.176 509.275 418.367 511.142 414.651 513.229" fill="none" opacity="1" stroke="#0fe500" stroke-linecap="butt" stroke-linejoin="round" stroke-opacity="0.3" stroke-width="14" vectornator:layerName="Curve 4"/>
<path d="M564.112 432.528C564.112 432.528 526.601 444.997 524.758 479.928C522.916 514.859 512.627 538.722 492.809 546.82C472.992 554.917 450.677 574.11 450.677 579.266" fill="none" opacity="1" stroke="#0fe500" stroke-linecap="butt" stroke-linejoin="round" stroke-opacity="0.3" stroke-width="14" vectornator:layerName="Curve 6"/>
<path d="M588.991 456.806C588.991 456.806 555.373 466.725 553.53 501.655C551.688 536.586 541.399 560.45 521.581 568.547C501.764 576.645 479.449 595.837 479.449 600.993" fill="none" opacity="1" stroke="#0fe500" stroke-linecap="butt" stroke-linejoin="round" stroke-opacity="0.3" stroke-width="14" vectornator:layerName="Curve 1"/>
</g>
<path d="M415.444 511.748C415.444 459.055 458.161 416.339 510.854 416.339C563.547 416.339 606.264 459.055 606.264 511.748C606.264 564.442 563.547 607.158 510.854 607.158C458.161 607.158 415.444 564.442 415.444 511.748Z" fill="none" opacity="1" stroke="#000000" stroke-linecap="butt" stroke-linejoin="round" stroke-width="14" vectornator:layerName="Oval 1"/>
<path d="M390.691 301.222C390.691 291.833 398.303 284.222 407.691 284.222L614.269 284.222C623.658 284.222 631.269 291.833 631.269 301.222L631.269 722.291C631.269 731.68 623.658 739.291 614.269 739.291L407.691 739.291C398.303 739.291 390.691 731.68 390.691 722.291L390.691 301.222Z" fill="none" opacity="1" stroke="#000000" stroke-linecap="butt" stroke-linejoin="round" stroke-width="14" vectornator:layerName="Rectangle 1"/>
<path d="M435.498 518.65L449.733 518.65L449.733 519.103C449.733 538.012 465.051 553.351 483.96 553.351C501.277 553.351 515.041 538.126 517.713 518.65L558.367 518.65C556.043 530.817 547.838 539.548 538.633 539.548L538.633 553.351C555.95 553.351 569.713 538.126 572.385 518.65L586.21 518.65L586.21 504.847L572.881 504.847L572.881 504.394C572.881 485.485 557.542 470.145 538.633 470.145C521.316 470.145 507.57 485.371 504.902 504.847L464.247 504.847C466.567 492.68 474.755 483.948 483.96 483.948L483.96 470.145C466.643 470.145 452.897 485.371 450.229 504.847L435.498 504.847L435.498 518.65ZM463.536 519.103L463.536 518.65L503.694 518.65C501.37 530.817 493.165 539.548 483.96 539.548C472.674 539.548 463.536 530.389 463.536 519.103ZM518.92 504.847C521.24 492.68 529.428 483.948 538.633 483.948C549.919 483.948 559.078 493.108 559.078 504.394L559.078 504.847L518.92 504.847Z" fill="#000000" fill-rule="nonzero" opacity="1" stroke="none" vectornator:layerName="Curve 1"/>
<path d="M417.82 365.885L417.82 313.034L442.715 313.684" fill="none" opacity="1" stroke="#11ff00" stroke-linecap="round" stroke-linejoin="round" stroke-width="20" vectornator:layerName="Rectangle 3"/>
</g>
<g opacity="1" vectornator:layerName="Group 16">
<path d="M365.73 301.222C365.73 291.833 373.341 284.222 382.73 284.222L589.307 284.222C598.696 284.222 606.307 291.833 606.307 301.222L606.307 722.291C606.307 731.68 598.696 739.291 589.307 739.291L382.73 739.291C373.341 739.291 365.73 731.68 365.73 722.291L365.73 301.222Z" fill="#0fe600" fill-rule="nonzero" opacity="1" stroke="none" vectornator:layerName="Rectangle 2"/>
<path d="M608.347 544.332L590.326 642.581C582.842 683.379 550.762 715.212 509.907 722.379L415.142 739.004L593.835 739.778L603.359 734.246L606.813 724.627L608.347 544.332Z" fill="#0dcc00" fill-rule="nonzero" opacity="1" stroke="none" vectornator:layerName="Curve 2"/>
<path d="M390.483 511.748C390.483 459.055 433.199 416.339 485.893 416.339C538.586 416.339 581.302 459.055 581.302 511.748C581.302 564.442 538.586 607.158 485.893 607.158C433.199 607.158 390.483 564.442 390.483 511.748Z" fill="#0cbf00" fill-rule="nonzero" opacity="1" stroke="none" vectornator:layerName="Oval 2"/>
<g opacity="1" vectornator:layerName="Group 1">
<path d="M505.41 418.091C505.41 418.091 470.187 429.402 468.457 461.087C466.727 492.773 457.066 514.42 438.457 521.765C419.849 529.111 398.895 546.52 398.895 551.197" fill="none" opacity="1" stroke="#0fe500" stroke-linecap="butt" stroke-linejoin="round" stroke-opacity="0.3" stroke-width="14" vectornator:layerName="Curve 7"/>
<path d="M580.882 491.407C572.113 498.222 563.371 508.805 562.531 524.195C560.801 555.881 551.139 577.528 532.531 584.873C520.225 589.731 499.274 606.058 499.274 606.058" fill="none" opacity="1" stroke="#0fe500" stroke-linecap="butt" stroke-linejoin="round" stroke-opacity="0.3" stroke-width="14" vectornator:layerName="Curve 5"/>
<path d="M435.129 431.096C432.822 435.735 431.26 441.059 430.929 447.13C429.199 478.816 419.537 500.463 400.929 507.808C397.214 509.275 393.406 511.142 389.689 513.229" fill="none" opacity="1" stroke="#0fe500" stroke-linecap="butt" stroke-linejoin="round" stroke-opacity="0.3" stroke-width="14" vectornator:layerName="Curve 4"/>
<path d="M539.15 432.528C539.15 432.528 501.639 444.997 499.797 479.928C497.954 514.859 487.665 538.722 467.848 546.82C448.031 554.917 425.715 574.11 425.715 579.266" fill="none" opacity="1" stroke="#0fe500" stroke-linecap="butt" stroke-linejoin="round" stroke-opacity="0.3" stroke-width="14" vectornator:layerName="Curve 6"/>
<path d="M564.03 456.806C564.03 456.806 530.411 466.725 528.569 501.655C526.726 536.586 516.437 560.45 496.62 568.547C476.803 576.645 454.487 595.837 454.487 600.993" fill="none" opacity="1" stroke="#0fe500" stroke-linecap="butt" stroke-linejoin="round" stroke-opacity="0.3" stroke-width="14" vectornator:layerName="Curve 1"/>
</g>
<path d="M390.483 511.748C390.483 459.055 433.199 416.339 485.893 416.339C538.586 416.339 581.302 459.055 581.302 511.748C581.302 564.442 538.586 607.158 485.893 607.158C433.199 607.158 390.483 564.442 390.483 511.748Z" fill="none" opacity="1" stroke="#000000" stroke-linecap="butt" stroke-linejoin="round" stroke-width="14" vectornator:layerName="Oval 1"/>
<path d="M365.73 301.222C365.73 291.833 373.341 284.222 382.73 284.222L589.307 284.222C598.696 284.222 606.307 291.833 606.307 301.222L606.307 722.291C606.307 731.68 598.696 739.291 589.307 739.291L382.73 739.291C373.341 739.291 365.73 731.68 365.73 722.291L365.73 301.222Z" fill="none" opacity="1" stroke="#000000" stroke-linecap="butt" stroke-linejoin="round" stroke-width="14" vectornator:layerName="Rectangle 1"/>
<path d="M410.537 518.65L424.771 518.65L424.771 519.103C424.771 538.012 440.089 553.351 458.998 553.351C476.315 553.351 490.079 538.126 492.751 518.65L533.405 518.65C531.081 530.817 522.876 539.548 513.671 539.548L513.671 553.351C530.988 553.351 544.752 538.126 547.424 518.65L561.248 518.65L561.248 504.847L547.92 504.847L547.92 504.394C547.92 485.485 532.58 470.145 513.671 470.145C496.354 470.145 482.608 485.371 479.94 504.847L439.286 504.847C441.605 492.68 449.793 483.948 458.998 483.948L458.998 470.145C441.682 470.145 427.936 485.371 425.267 504.847L410.537 504.847L410.537 518.65ZM438.574 519.103L438.574 518.65L478.732 518.65C476.408 530.817 468.204 539.548 458.998 539.548C447.712 539.548 438.574 530.389 438.574 519.103ZM493.959 504.847C496.278 492.68 504.466 483.948 513.671 483.948C524.957 483.948 534.117 493.108 534.117 504.394L534.117 504.847L493.959 504.847Z" fill="#000000" fill-rule="nonzero" opacity="1" stroke="none" vectornator:layerName="Curve 1"/>
<path d="M394.858 364.885L394.858 312.034L419.753 312.684" fill="none" opacity="1" stroke="#11ff00" stroke-linecap="round" stroke-linejoin="round" stroke-width="20" vectornator:layerName="Rectangle 3"/>
</g>
</g>
<g opacity="0" vectornator:layerName="Group 22">
<path d="M574.125 281.625C559.14 283.067 547.476 290.718 546.844 291.094C540.114 295.093 537.001 303.167 539.281 310.656C540.784 315.592 542.011 323.171 542.062 333.5C535.496 332.737 528.812 332.344 522 332.344C422.887 332.344 342.563 412.684 342.562 511.781C342.562 610.894 422.903 691.219 522 691.219C621.113 691.219 701.438 610.878 701.438 511.781C701.438 443.294 663.024 383.884 606.656 353.656C611.776 332.71 613.728 315.797 605.156 297.781C598.196 283.153 583.145 280.757 574.125 281.625Z" fill="#000000" fill-opacity="0.08" fill-rule="nonzero" opacity="1" stroke="none" vectornator:layerName="Curve 3"/>
<g opacity="1" vectornator:layerName="Group 20">
<path d="M349.562 511.787C349.562 422.076 422.288 349.35 512 349.35C601.712 349.35 674.438 422.076 674.438 511.787C674.438 601.499 601.712 674.225 512 674.225C422.288 674.225 349.562 601.499 349.562 511.787Z" fill="#ff9900" fill-rule="nonzero" opacity="1" stroke="none" vectornator:layerName="Oval 2"/>
<path d="M423.3 377.216C423.3 377.216 454.215 424.248 499.857 444.688C545.498 465.127 605.867 458.974 605.867 458.974C605.867 458.974 620.044 540.485 591.556 593.843C563.069 647.202 523.965 659.144 491.917 672.409C470.691 681.194 568.656 665.305 568.656 665.305C568.656 665.305 685.27 613.229 673.333 501.209C661.395 389.189 582.828 364.874 553.355 356.578C523.882 348.281 488.656 339.216 423.3 377.216Z" fill="#ff8c00" fill-rule="nonzero" opacity="1" stroke="none" vectornator:layerName="Curve 1"/>
<path d="M456.291 486.524C456.291 483.213 458.975 480.53 462.285 480.53C465.596 480.53 468.28 483.213 468.28 486.524C468.28 489.835 465.596 492.518 462.285 492.518C458.975 492.518 456.291 489.835 456.291 486.524Z" fill="#ff8c00" fill-rule="nonzero" opacity="1" stroke="none" vectornator:layerName="Oval 7"/>
<path d="M633.18 501.181C633.18 497.871 635.864 495.187 639.175 495.187C642.485 495.187 645.169 497.871 645.169 501.181C645.169 504.492 642.485 507.176 639.175 507.176C635.864 507.176 633.18 504.492 633.18 501.181Z" fill="#ff9900" fill-rule="nonzero" opacity="1" stroke="none" vectornator:layerName="Oval 6"/>
<path d="M522.248 567.211C522.248 563.9 524.931 561.216 528.242 561.216C531.553 561.216 534.236 563.9 534.236 567.211C534.236 570.521 531.553 573.205 528.242 573.205C524.931 573.205 522.248 570.521 522.248 567.211Z" fill="#ff8c00" fill-rule="nonzero" opacity="1" stroke="none" vectornator:layerName="Oval 4"/>
<path d="M530.93 498.493C530.93 500.319 532.41 501.799 534.236 501.799C536.062 501.799 537.543 500.319 537.543 498.493C537.543 496.667 536.062 495.187 534.236 495.187C532.41 495.187 530.93 496.667 530.93 498.493Z" fill="#ff8c00" fill-rule="nonzero" opacity="1" stroke="none" vectornator:layerName="Oval 8"/>
<path d="M627.457 576.512C627.457 578.338 628.938 579.818 630.764 579.818C632.59 579.818 634.07 578.338 634.07 576.512C634.07 574.686 632.59 573.205 630.764 573.205C628.938 573.205 627.457 574.686 627.457 576.512Z" fill="#ff9900" fill-rule="nonzero" opacity="1" stroke="none" vectornator:layerName="Oval 10"/>
<path d="M613.64 433.016C613.64 434.842 615.12 436.322 616.946 436.322C618.772 436.322 620.253 434.842 620.253 433.016C620.253 431.19 618.772 429.71 616.946 429.71C615.12 429.71 613.64 431.19 613.64 433.016Z" fill="#ff9900" fill-rule="nonzero" opacity="1" stroke="none" vectornator:layerName="Oval 9"/>
<path d="M462.848 383.678C462.848 385.504 464.328 386.984 466.154 386.984C467.98 386.984 469.46 385.504 469.46 383.678C469.46 381.852 467.98 380.372 466.154 380.372C464.328 380.372 462.848 381.852 462.848 383.678Z" fill="#ff9900" fill-rule="nonzero" opacity="1" stroke="none" vectornator:layerName="Oval 5"/>
<path d="M456.291 611.163C456.291 612.989 457.771 614.469 459.597 614.469C461.423 614.469 462.903 612.989 462.903 611.163C462.903 609.337 461.423 607.857 459.597 607.857C457.771 607.857 456.291 609.337 456.291 611.163Z" fill="#ff8c00" fill-rule="nonzero" opacity="1" stroke="none" vectornator:layerName="Oval 3"/>
</g>
<path d="M349.562 511.787C349.562 422.076 422.288 349.35 512 349.35C601.712 349.35 674.438 422.076 674.438 511.787C674.438 601.499 601.712 674.225 512 674.225C422.288 674.225 349.562 601.499 349.562 511.787Z" fill="none" opacity="1" stroke="#000000" stroke-linecap="butt" stroke-linejoin="round" stroke-width="14" vectornator:layerName="Oval 1"/>
<g opacity="1" vectornator:layerName="Group 21">
<path d="M387.91 532.297C386.816 525.622 386.246 518.771 386.246 511.787C386.246 490.446 391.562 470.346 400.943 452.74" fill="none" opacity="1" stroke="#ffad33" stroke-linecap="round" stroke-linejoin="round" stroke-width="25" vectornator:layerName="Curve 4"/>
<path d="M401.26 571.426C399.603 568.356 398.071 565.21 396.668 561.993" fill="none" opacity="1" stroke="#ffad33" stroke-linecap="round" stroke-linejoin="round" stroke-width="25" vectornator:layerName="Curve 2"/>
</g>
<g opacity="1" vectornator:layerName="Group 19">
<path d="M530.545 408.28C530.561 407.579 543.69 384.463 547.434 358.822C551.178 333.18 548.843 316.624 545.52 305.714C545.52 305.714 572.52 289.733 579.826 305.088C587.132 320.444 584.666 333.721 577.161 361.567C569.657 389.414 549.807 416.474 549.807 416.474" fill="#593600" fill-rule="nonzero" opacity="1" stroke="none" vectornator:layerName="Curve 3"/>
<path d="M495.582 393.998C495.582 393.998 517.979 411.393 542.56 416.59C567.141 421.788 593.906 414.787 593.906 414.787" fill="none" opacity="1" stroke="#000000" stroke-linecap="round" stroke-linejoin="round" stroke-width="14" vectornator:layerName="Curve 1"/>
<path d="M530.545 408.28C530.561 407.579 543.69 384.463 547.434 358.822C551.178 333.18 548.843 316.624 545.52 305.714C545.52 305.714 572.52 289.733 579.826 305.088C587.132 320.444 584.666 333.721 577.161 361.567C569.657 389.414 549.807 416.474 549.807 416.474" fill="none" opacity="1" stroke="#000000" stroke-linecap="round" stroke-linejoin="round" stroke-width="14" vectornator:layerName="Curve 2"/>
</g>
</g>
<g opacity="0" vectornator:layerName="Group 31">
<path d="M412.375 293.25C399.262 292.782 385.8 296.122 373.844 303.594C341.885 323.564 332.155 365.635 352.125 397.594C352.132 397.605 352.118 397.614 352.125 397.625C352.891 398.844 354.422 401.281 355.188 402.5C360.173 410.437 370.645 412.842 378.594 407.875C381.171 406.265 385.79 403.385 388.906 401.438C360.789 431.556 343.438 471.864 343.438 516.312C343.438 518.179 343.469 517 343.469 517C343.469 523.555 343.469 536.57 343.469 543.094C343.469 587.931 361.17 628.521 389.688 658.656C387.951 663.041 386.812 667.763 386.812 672.812C386.813 694.506 404.409 712 426.031 712C436.742 712 446.331 707.675 453.344 700.781C471.593 707.625 491.295 711.625 512 711.625C532.705 711.625 552.406 707.625 570.656 700.781C577.669 707.675 587.258 712 597.969 712C619.606 712 637.188 694.491 637.188 672.812C637.187 667.757 636.053 663.046 634.312 658.656C662.828 628.523 680.531 587.933 680.531 543.094C680.531 536.555 680.531 523.477 680.531 516.938C680.536 517.099 680.562 518.005 680.562 516.312C680.562 471.864 663.236 431.553 635.125 401.438C638.234 403.38 642.834 406.268 645.406 407.875C653.355 412.841 663.827 410.437 668.812 402.5C669.578 401.281 671.109 398.844 671.875 397.625C671.882 397.614 671.868 397.605 671.875 397.594C691.853 365.622 682.101 323.555 650.156 303.594C638.2 296.123 624.74 292.782 611.625 293.25C589.782 294.029 568.628 305.354 556.156 325.312C556.15 325.323 556.132 325.333 556.125 325.344C555.367 326.563 553.852 329 553.094 330.219C548.144 338.18 550.581 348.626 558.531 353.594C559.07 353.93 560.123 354.585 560.688 354.938C545.267 350.29 528.935 347.75 512 347.75C495.028 347.75 478.668 350.334 463.219 355C463.81 354.631 464.906 353.945 465.469 353.594C473.419 348.626 475.856 338.18 470.906 330.219C470.148 329 468.633 326.563 467.875 325.344C467.868 325.333 467.85 325.323 467.844 325.312C455.373 305.355 434.22 294.029 412.375 293.25Z" fill="#000000" fill-opacity="0.08" fill-rule="nonzero" opacity="1" stroke="none" vectornator:layerName="Curve 3"/>
<path d="M411.781 305.25C401.921 304.898 391.841 307.378 382.844 313C358.852 327.992 351.539 359.602 366.531 383.594L369.594 388.469L456.469 334.188L453.438 329.312C444.068 314.317 428.215 305.836 411.781 305.25ZM612.219 305.25C595.785 305.836 579.932 314.317 570.562 329.312L567.531 334.188L654.406 388.469L657.469 383.594C672.461 359.602 665.148 327.992 641.156 313C632.159 307.378 622.079 304.898 612.219 305.25ZM512 359.75C428.302 359.75 360.438 427.615 360.438 511.312C360.438 511.523 360.468 511.727 360.469 511.938L360.469 538.094C360.469 583.135 380.216 623.465 411.406 651.219C406.795 655.288 403.812 661.178 403.812 667.812C403.813 680.079 413.765 690 426.031 690C435.83 690 444.051 683.619 447 674.812C466.72 684.206 488.699 689.625 512 689.625C535.301 689.625 557.28 684.206 577 674.812C579.949 683.619 588.17 690 597.969 690C610.235 690 620.188 680.079 620.188 667.812C620.187 661.178 617.205 655.288 612.594 651.219C643.784 623.465 663.531 583.135 663.531 538.094L663.531 511.938C663.532 511.727 663.562 511.523 663.562 511.312C663.562 427.615 595.698 359.75 512 359.75Z" fill="#ff002a" fill-rule="nonzero" opacity="1" stroke="none" vectornator:layerName="Curve 2"/>
<path d="M360.456 511.313L360.456 538.088C360.456 621.785 428.302 689.632 512 689.632C595.698 689.632 663.544 621.785 663.544 538.088L663.544 511.313L360.456 511.313Z" fill="#cc0022" fill-rule="nonzero" opacity="1" stroke="#000000" stroke-linecap="butt" stroke-linejoin="round" stroke-width="14" vectornator:layerName="Curve 1"/>
<g opacity="1" vectornator:layerName="Group 25">
<path d="M403.818 667.799C403.818 655.533 413.762 645.589 426.028 645.589C438.294 645.589 448.238 655.533 448.238 667.799C448.238 680.065 438.294 690.009 426.028 690.009C413.762 690.009 403.818 680.065 403.818 667.799Z" fill="#ff002a" fill-rule="nonzero" opacity="1" stroke="none" vectornator:layerName="Oval 3"/>
<path d="M575.762 667.799C575.762 655.533 585.706 645.589 597.972 645.589C610.238 645.589 620.182 655.533 620.182 667.799C620.182 680.065 610.238 690.009 597.972 690.009C585.706 690.009 575.762 680.065 575.762 667.799Z" fill="#ff002a" fill-rule="nonzero" opacity="1" stroke="none" vectornator:layerName="Oval 4"/>
<path d="M436.046 648.072C437.585 651.094 438.535 654.469 438.535 658.09C438.535 670.356 428.58 680.281 416.314 680.281C412.689 680.281 409.32 679.33 406.296 677.792C409.965 685.01 417.374 689.996 426.028 689.996C438.294 689.996 448.25 680.071 448.25 667.805C448.25 659.16 443.26 651.746 436.046 648.072ZM607.99 648.072C609.529 651.094 610.479 654.469 610.479 658.09C610.479 670.356 600.524 680.281 588.258 680.281C584.633 680.281 581.264 679.33 578.24 677.792C581.909 685.01 589.318 689.996 597.972 689.996C610.238 689.996 620.194 680.071 620.194 667.805C620.194 659.16 615.204 651.746 607.99 648.072Z" fill="#cc0022" fill-rule="nonzero" opacity="1" stroke="none" vectornator:layerName="Curve 1"/>
<path d="M403.818 667.799C403.818 655.533 413.762 645.589 426.028 645.589C438.294 645.589 448.238 655.533 448.238 667.799C448.238 680.065 438.294 690.009 426.028 690.009C413.762 690.009 403.818 680.065 403.818 667.799Z" fill="none" opacity="1" stroke="#000000" stroke-linecap="butt" stroke-linejoin="round" stroke-width="14" vectornator:layerName="Oval 5"/>
<path d="M575.762 667.799C575.762 655.533 585.706 645.589 597.972 645.589C610.238 645.589 620.182 655.533 620.182 667.799C620.182 680.065 610.238 690.009 597.972 690.009C585.706 690.009 575.762 680.065 575.762 667.799Z" fill="none" opacity="1" stroke="#000000" stroke-linecap="butt" stroke-linejoin="round" stroke-width="14" vectornator:layerName="Oval 6"/>
</g>
<g opacity="1" vectornator:layerName="Group 27">
<path d="M360.452 511.313C360.452 427.615 428.302 359.764 512 359.764C595.698 359.764 663.548 427.615 663.548 511.313C663.548 595.01 595.698 662.861 512 662.861C428.302 662.861 360.452 595.01 360.452 511.313Z" fill="#ff002a" fill-rule="nonzero" opacity="1" stroke="none" vectornator:layerName="Oval 2"/>
<path d="M657.321 468.448C657.321 468.448 641.492 553.426 594.446 600.472C547.4 647.518 469.135 656.633 469.135 656.633C482.734 660.638 497.105 662.856 512 662.856C543.323 662.856 572.417 653.363 596.576 637.083L637.77 595.888C654.051 571.73 663.544 542.636 663.544 511.313C663.544 496.417 661.325 482.046 657.321 468.448Z" fill="#e60026" fill-rule="nonzero" opacity="1" stroke="none" vectornator:layerName="Curve 3"/>
<path d="M512 359.769C504.691 359.769 497.57 360.468 490.537 361.469L362.156 489.88C361.159 496.904 360.456 504.014 360.456 511.313C360.456 527.705 363.14 543.459 367.954 558.245L558.932 367.267C544.147 362.452 528.392 359.769 512 359.769Z" fill="#ff3355" fill-rule="nonzero" opacity="1" stroke="none" vectornator:layerName="Curve 2"/>
<path d="M360.452 511.313C360.452 427.615 428.302 359.764 512 359.764C595.698 359.764 663.548 427.615 663.548 511.313C663.548 595.01 595.698 662.861 512 662.861C428.302 662.861 360.452 595.01 360.452 511.313Z" fill="none" opacity="1" stroke="#000000" stroke-linecap="butt" stroke-linejoin="round" stroke-width="14" vectornator:layerName="Oval 4"/>
</g>
<g opacity="1" vectornator:layerName="Group 30">
<path d="M391.198 511.313C391.198 444.596 445.283 390.511 512 390.511C578.717 390.511 632.802 444.596 632.802 511.313C632.802 578.029 578.717 632.114 512 632.114C445.283 632.114 391.198 578.029 391.198 511.313Z" fill="#ffffff" fill-rule="nonzero" opacity="1" stroke="none" vectornator:layerName="Oval 3"/>
<path d="M512 390.521C445.283 390.521 391.208 444.596 391.208 511.313C391.208 514.591 391.438 517.814 391.694 521.027C396.653 458.864 448.562 409.949 512 409.949C575.438 409.949 627.347 458.864 632.306 521.027C632.562 517.814 632.792 514.591 632.792 511.313C632.792 444.596 578.717 390.521 512 390.521Z" fill="#e6e6e6" fill-rule="nonzero" opacity="1" stroke="none" vectornator:layerName="Curve 2"/>
<g opacity="1" vectornator:layerName="Group 29">
<path d="M512 438.281C505.373 438.281 500 443.654 500 450.281L500 495.656C489.483 500.28 482.125 510.772 482.125 523C482.125 539.504 495.496 552.875 512 552.875C524.228 552.875 534.72 545.517 539.344 535L569.156 535C575.784 535 581.156 529.627 581.156 523C581.156 516.373 575.784 511 569.156 511L539.344 511C536.336 504.16 530.84 498.664 524 495.656L524 450.281C524 443.654 518.627 438.281 512 438.281ZM500 512.719L500 523C500 529.627 505.373 535 512 535L522.281 535C519.505 537.38 515.946 538.875 512 538.875C503.228 538.875 496.125 531.772 496.125 523C496.125 519.054 497.62 515.495 500 512.719Z" fill="#e5e5e5" fill-rule="nonzero" opacity="1" stroke="none" vectornator:layerName="Curve 1"/>
<g opacity="1" vectornator:layerName="Group 28">
<path d="M569.152 512L512 512" fill="none" opacity="1" stroke="#000000" stroke-linecap="round" stroke-linejoin="round" stroke-width="24" vectornator:layerName="Line 1"/>
<path d="M512.006 439.296L512.006 512" fill="none" opacity="1" stroke="#000000" stroke-linecap="round" stroke-linejoin="round" stroke-width="24" vectornator:layerName="Line 2"/>
<path d="M489.117 512C489.117 499.362 499.362 489.117 512 489.117C524.638 489.117 534.883 499.362 534.883 512C534.883 524.638 524.638 534.883 512 534.883C499.362 534.883 489.117 524.638 489.117 512Z" fill="#ff002a" fill-rule="nonzero" opacity="1" stroke="#000000" stroke-linecap="round" stroke-linejoin="round" stroke-width="14" vectornator:layerName="Oval 5"/>
<path d="M504.274 509.423C504.274 506.307 506.8 503.781 509.916 503.781C513.032 503.781 515.558 506.307 515.558 509.423C515.558 512.539 513.032 515.065 509.916 515.065C506.8 515.065 504.274 512.539 504.274 509.423Z" fill="#ff3355" fill-rule="nonzero" opacity="1" stroke="none" vectornator:layerName="Oval 6"/>
</g>
</g>
<path d="M391.198 511.313C391.198 444.596 445.283 390.511 512 390.511C578.717 390.511 632.802 444.596 632.802 511.313C632.802 578.029 578.717 632.114 512 632.114C445.283 632.114 391.198 578.029 391.198 511.313Z" fill="none" opacity="1" stroke="#000000" stroke-linecap="butt" stroke-linejoin="round" stroke-width="14" vectornator:layerName="Oval 4"/>
</g>
<g opacity="1" vectornator:layerName="Group 26">
<path d="M512 321.593L512 361.451" fill="none" opacity="1" stroke="#000000" stroke-linecap="butt" stroke-linejoin="round" stroke-width="14" vectornator:layerName="Line 2"/>
<path d="M531.929 321.329L492.071 321.329" fill="none" opacity="1" stroke="#000000" stroke-linecap="round" stroke-linejoin="round" stroke-width="14" vectornator:layerName="Line 1"/>
</g>
<g opacity="1" vectornator:layerName="Group 24">
<path d="M366.545 383.589C351.553 359.597 358.849 327.994 382.841 313.003L382.841 313.003C406.834 298.011 438.436 305.307 453.428 329.299L456.48 334.183L369.597 388.473L366.545 383.589Z" fill="#ff002a" fill-rule="nonzero" opacity="1" stroke="none" vectornator:layerName="Rectangle 1"/>
<path d="M415.315 306.554C415.315 306.554 422.94 324.244 416.096 337.165C409.253 350.087 372.399 383.616 372.399 383.616L456.172 334.533C456.172 334.533 456.48 308.925 415.315 306.554Z" fill="#cc0022" fill-rule="nonzero" opacity="1" stroke="none" vectornator:layerName="Curve 4"/>
<path d="M366.048 328.271C371.144 317.874 380.986 312.246 388.032 315.699C395.078 319.152 396.659 330.38 391.564 340.776C386.468 351.173 376.626 356.802 369.58 353.349C362.534 349.896 360.953 338.668 366.048 328.271Z" fill="#ff3355" fill-rule="nonzero" opacity="1" stroke="none" vectornator:layerName="Oval 5"/>
<path d="M366.545 383.589C351.553 359.597 358.849 327.994 382.841 313.003L382.841 313.003C406.834 298.011 438.436 305.307 453.428 329.299L456.48 334.183L369.597 388.473L366.545 383.589Z" fill="none" opacity="1" stroke="#000000" stroke-linecap="butt" stroke-linejoin="round" stroke-width="14" vectornator:layerName="Rectangle 2"/>
<path d="M413.222 361.992L428.637 386.515" fill="none" opacity="1" stroke="#000000" stroke-linecap="butt" stroke-linejoin="round" stroke-width="14" vectornator:layerName="Line 1"/>
</g>
<g opacity="1" vectornator:layerName="Group 23">
<path d="M657.455 383.589C672.447 359.597 665.151 327.994 641.159 313.003L641.159 313.003C617.166 298.011 585.564 305.307 570.572 329.299L567.52 334.183L654.403 388.473L657.455 383.589Z" fill="#ff002a" fill-rule="nonzero" opacity="1" stroke="none" vectornator:layerName="Rectangle 2"/>
<path d="M632.802 372.897C632.802 372.897 649.416 337.165 631.27 313.497C619.18 297.727 674.188 324.637 666.058 368.522L656.707 385.995L632.802 372.897Z" fill="#cc0022" fill-rule="nonzero" opacity="1" stroke="none" vectornator:layerName="Curve 2"/>
<path d="M606.075 317.954C614.176 314.74 622.36 316.209 624.354 321.235C626.348 326.261 621.397 332.941 613.296 336.156C605.194 339.37 597.01 337.901 595.016 332.874C593.022 327.848 597.973 321.168 606.075 317.954Z" fill="#ff3355" fill-rule="nonzero" opacity="1" stroke="none" vectornator:layerName="Oval 6"/>
<path d="M657.455 383.589C672.447 359.597 665.151 327.994 641.159 313.003L641.159 313.003C617.166 298.011 585.564 305.307 570.572 329.299L567.52 334.183L654.403 388.473L657.455 383.589Z" fill="none" opacity="1" stroke="#000000" stroke-linecap="butt" stroke-linejoin="round" stroke-width="14" vectornator:layerName="Rectangle 3"/>
<path d="M610.778 361.992L595.363 386.515" fill="none" opacity="1" stroke="#000000" stroke-linecap="butt" stroke-linejoin="round" stroke-width="14" vectornator:layerName="Line 2"/>
</g>
</g>
</g>
</svg>
